<?xml version="1.0" standalone="no"?>
<!DOCTYPE svg PUBLIC "-//W3C//DTD SVG 20010904//EN"
 "http://www.w3.org/TR/2001/REC-SVG-20010904/DTD/svg10.dtd">
<svg version="1.0" xmlns="http://www.w3.org/2000/svg"
 width="135.000000pt" height="189.000000pt" viewBox="0 0 135.000000 189.000000"
 preserveAspectRatio="xMidYMid meet">
<metadata>
Created by potrace 1.16, written by Peter Selinger 2001-2019
</metadata>
<g transform="translate(0.000000,189.000000) scale(0.100000,-0.100000)"
fill="#000000" stroke="none">
<path d="M600 1270 c0 -527 2 -600 15 -600 13 0 15 72 15 584 0 321 -3 591 -6
600 -3 9 -10 16 -15 16 -5 0 -9 -255 -9 -600z"/>
<path d="M720 1270 c0 -393 3 -600 10 -600 7 0 10 207 10 600 0 393 -3 600
-10 600 -7 0 -10 -207 -10 -600z"/>
<path d="M476 1774 c-3 -9 -6 -255 -6 -547 0 -494 2 -535 19 -572 17 -38 100
-125 119 -125 25 0 16 17 -27 56 -85 77 -81 41 -81 652 0 491 -4 587 -24 536z"/>
<path d="M846 1783 c-3 -3 -6 -250 -6 -547 0 -611 2 -591 -79 -656 -23 -18
-41 -37 -41 -42 0 -41 123 82 139 139 13 46 15 1099 2 1107 -4 3 -11 3 -15 -1z"/>
<path d="M357 1673 c-4 -3 -7 -241 -6 -527 0 -381 4 -530 13 -554 19 -53 85
-126 160 -176 37 -25 74 -46 81 -46 33 0 21 20 -27 48 -79 44 -143 106 -172
164 l-26 52 0 523 c0 288 -4 523 -8 523 -5 0 -12 -3 -15 -7z"/>
<path d="M966 1664 c-3 -9 -6 -251 -6 -538 l0 -522 -28 -45 c-31 -48 -76 -87
-159 -139 -50 -30 -67 -50 -42 -50 16 0 105 55 156 96 25 21 54 59 72 96 l31
61 0 523 c0 475 -4 569 -24 518z"/>
<path d="M235 1569 c-3 -13 -5 -244 -3 -514 3 -478 4 -491 25 -537 30 -65 79
-128 133 -168 53 -41 187 -110 212 -110 39 0 14 21 -83 71 -112 57 -191 126
-230 199 l-24 45 -3 510 c-3 462 -9 576 -27 504z"/>
<path d="M1087 1574 c-4 -4 -7 -233 -7 -509 l0 -501 -25 -50 c-14 -27 -33 -58
-43 -69 -39 -47 -132 -112 -210 -148 -78 -37 -101 -57 -66 -57 9 0 57 21 107
47 106 54 197 138 237 218 l25 50 3 504 c1 277 -1 508 -6 513 -4 4 -11 5 -15
2z"/>
<path d="M122 995 l3 -500 32 -65 c44 -90 133 -177 234 -230 102 -53 219 -94
233 -80 6 6 3 12 -10 16 -260 91 -372 173 -442 322 l-27 57 -3 480 c-2 299 -7
484 -13 490 -6 6 -9 -160 -7 -490z"/>
<path d="M1205 1478 c-3 -7 -6 -227 -7 -488 l-3 -475 -27 -58 c-68 -144 -197
-240 -432 -321 -13 -5 -16 -10 -9 -17 13 -13 168 44 249 92 124 73 216 190
243 310 14 60 15 956 1 964 -6 3 -12 0 -15 -7z"/>
<path d="M4 1386 c-3 -7 -4 -206 -2 -442 l3 -429 26 -66 c83 -214 243 -350
491 -419 84 -23 101 -25 96 -8 -2 6 -38 20 -79 30 -158 38 -327 145 -415 264
-91 122 -88 104 -92 627 -3 422 -7 497 -28 443z"/>
<path d="M1310 957 c0 -402 -2 -449 -18 -499 -27 -83 -68 -145 -142 -218 -79
-77 -205 -146 -340 -184 -46 -13 -86 -29 -88 -36 -10 -30 151 20 282 88 151
78 258 196 308 340 23 66 23 73 23 506 0 343 -3 440 -12 443 -10 4 -13 -89
-13 -440z"/>
</g>
</svg>
