<?xml version="1.0" standalone="no"?>
<svg id="SvgjsSvg1001" width="600" height="600" xmlns="http://www.w3.org/2000/svg" version="1.1" xmlns:xlink="http://www.w3.org/1999/xlink" xmlns:svgjs="http://svgjs.com/svgjs" class="svg-paper" viewBox="0 0 600 600"><title id="SvgjsTitle1760">x=(cos(y)-y)|y=(min(x,sin(x))-y)|dTest=0.0|sd=0.2|sm=0.2|ts=0.05 | generated with FlowLines</title><g id="SvgjsG1761"><polyline id="SvgjsPolyline1762" points="0,521.08 11.1,525.63 19.67,528.38 28.39,530.6 40.2,532.74 52.12,534.03 64.11,534.5 76.11,534.22 88.06,533.22 99.95,531.55 111.72,529.23 126.24,525.48 137.66,521.81 148.9,517.59 162.63,511.56 173.34,506.15 183.79,500.25 198.95,490.56 213.48,479.94 227.42,468.55 243.03,454.51 266.57,431.39 339.89,356.22 407.56,288.13 433.42,263.09 438.09,259.33 440.79,258.06 443.74,258.23 449.36,260.31 471.01,270.66 492.18,281.97 536.67,306.89 560.65,319.3 571.55,324.31 582.66,328.85 591.14,331.86 599.76,334.46" fill="none" stroke="#000000" stroke-width="1"/><polyline id="SvgjsPolyline1763" points="2.42,508.78 13.11,514.23 21.43,517.65 29.97,520.48 41.62,523.36 53.46,525.26 62.42,526.09 74.42,526.44 86.41,525.99 98.34,524.78 110.19,522.87 121.9,520.28 136.32,516.15 147.64,512.16 158.74,507.6 172.27,501.14 182.8,495.39 198.09,485.9 215.15,473.65 231.42,460.38 249.25,444.33 279.34,415.02 438.54,256.03" fill="none" stroke="#000000" stroke-width="1"/><polyline id="SvgjsPolyline1764" points="0.95,534.58 9.56,537.2 21.25,539.91 33.1,541.78 45.05,542.86 57.05,543.2 69.04,542.84 80.99,541.83 92.88,540.19 104.67,537.94 116.33,535.12 130.7,530.82 141.99,526.77 155.83,520.98 166.64,515.78 177.21,510.09 187.51,503.94 202.45,493.91 214.41,484.86 228.21,473.3 241.45,461.12 264.71,437.71 338.97,359.29 391.49,305.75 414.92,282.52 430.19,268.09 437.15,262.4 439.7,260.82 442.5,259.78 445.49,259.7 451.23,261.4 467.56,268.94 488.8,280.12 541.2,309.35 562.59,320.22 570.77,323.97 581.86,328.54 590.33,331.59 598.94,334.23" fill="none" stroke="#000000" stroke-width="1"/><polyline id="SvgjsPolyline1765" points="599.75,94.25 468.1,225.64 448.8,244.53 439.89,252.56 437.3,254.03 434.42,253.72 414.42,247.34 405.69,245.15 396.86,243.45 384.93,242.13 372.94,242.14 366.98,242.78 361.09,243.92 355.36,245.68 349.93,248.21 347.43,249.87 345.2,251.87 343.58,254.37 343.9,257.18 346.63,258.1 349.51,257.34" fill="none" stroke="#000000" stroke-width="1"/><polyline id="SvgjsPolyline1766" points="598.78,99.63 524.88,174.22 502.01,198 483.65,217.8 471.87,231.41 464.64,240.98 461.6,246.15 460.46,248.92 459.26,254.79 459.47,257.77 460.66,260.51 462.53,262.84 467.16,266.65 477.32,273.02 508.55,290.93 539.93,308.57 561.28,319.53 580.51,327.97 588.95,331.08 597.53,333.8" fill="none" stroke="#000000" stroke-width="1"/><polyline id="SvgjsPolyline1767" points="129.4,599.29 145.87,592.03 162.01,584.07 177.78,575.38 193.11,565.96 207.94,555.77 222.22,544.8 233.63,535.07 246.69,522.69 255.01,514.04 263,505.09 270.68,495.86 279.86,484.01 295.48,461.98 323.64,419.47 337.22,399.68 353.19,377.91 369.99,356.77 381.66,343.07 391.67,331.9 410.46,312.51 419.2,304.3 428.31,296.48 435.48,291.04 443.07,286.21 451.22,282.42 456.98,280.77 459.94,280.28 465.91,279.74 471.9,279.91 477.82,280.88 483.61,282.46 492.05,285.57 503,290.48 548.31,313.88 567.25,322.95 583.91,329.75 598.18,334.37" fill="none" stroke="#000000" stroke-width="1"/><polyline id="SvgjsPolyline1768" points="1.05,493.32 10.98,500.05 18.78,504.54 26.91,508.39 38.17,512.54 46.85,514.92 58.63,517.18 70.56,518.45 82.55,518.79 94.54,518.28 106.46,516.96 118.28,514.89 129.95,512.12 141.45,508.68 155.52,503.5 169.23,497.42 179.9,491.94 190.31,485.96 197.93,481.17 215.12,469.12 233.85,454.12 254.02,436.18 297.32,394.64 374.23,318.82 425,267.77 431.15,261.2 434.71,256.4" fill="none" stroke="#000000" stroke-width="1"/><polyline id="SvgjsPolyline1769" points="0.21,546.96 11.95,549.45 20.84,550.8 32.78,551.98 44.77,552.46 56.77,552.29 68.74,551.49 83.63,549.68 95.44,547.59 107.15,544.96 121.6,540.94 132.98,537.14 144.19,532.85 155.19,528.07 165.98,522.81 179.12,515.58 189.34,509.29 204.15,499.06 216,489.87 227.41,480.13 240.57,467.85 251.16,457.23 265.57,441.96 307.88,395.28 330.28,371.05 375.93,323.39 405.54,293.6 422.82,276.95 434.12,267.08 439.03,263.64 441.7,262.28 444.57,261.44 447.56,261.35 450.51,261.88 456.18,263.84 461.68,266.24 483.09,277.06 532.88,304.82 556.76,317.4 567.6,322.55 578.63,327.28 589.88,331.44 598.48,334.11" fill="none" stroke="#000000" stroke-width="1"/><polyline id="SvgjsPolyline1770" points="599.22,132.64 578.49,154.32 562.53,172.24 549.22,188.49 538.55,202.98 530.49,215.63 526.21,223.54 523.69,228.98 521.51,234.57 519.78,240.32 518.62,246.2 518.16,252.18 518.23,255.18 519.02,261.12 520.65,266.89 523.04,272.39 526.06,277.57 529.56,282.44 537.61,291.33 542.01,295.41 551.21,303.1 558.48,308.41 566.02,313.33 573.79,317.86 581.78,322.01 589.97,325.73 598.36,328.98" fill="none" stroke="#000000" stroke-width="1"/><polyline id="SvgjsPolyline1771" points="599.66,77.2 561.6,115.5 542.25,134.33 522.62,152.87 507.1,167.02 489,182.77 475.06,194.16 463.11,203.23 450.75,211.72 440.47,217.9 429.76,223.32 421.44,226.73 412.88,229.5 404.14,231.65 377.52,236.16 368.7,237.95 360.05,240.4 351.75,243.86 346.63,246.98 344.31,248.88 342.27,251.08 340.76,253.66 340.46,256.59 342.38,258.76 345.31,259.22 348.23,258.59 350.83,257.13" fill="none" stroke="#000000" stroke-width="1"/><polyline id="SvgjsPolyline1772" points="598.18,88.76 536.42,150.03 497.3,187.26 481.74,201.36 468.09,213.09 456.33,222.4 446.53,229.32 438.88,234.06 430.81,238.02 425.14,239.98 419.28,241.25 410.31,241.92 389.33,241.07 377.33,241.11 368.38,241.97 359.58,243.83 351.21,247.09 346.22,250.4 344.18,252.59 342.98,255.3 344.25,257.79 347.17,258.16 349.97,257.16" fill="none" stroke="#000000" stroke-width="1"/><polyline id="SvgjsPolyline1773" points="156.67,1.17 94.29,96.6 80.12,119.58 68.31,140.46 57.61,161.95 49.55,181.33 46.55,189.82 43.06,201.3 40.85,210.02 38.51,221.79 36.9,233.68 36.05,245.65 35.93,254.64 36.45,266.63 37.33,275.59 39.15,287.45 41.66,299.18 44.8,310.76 49.54,324.99 53.94,336.15 60.15,349.8 65.67,360.46 71.67,370.85 78.21,380.91 85.31,390.58 93.06,399.73 101.55,408.22 108.43,414.01 115.78,419.2 123.58,423.68 131.8,427.34 140.35,430.13 149.15,432 158.09,432.97 167.09,433.09 176.06,432.42 184.96,431.06 196.63,428.29 208.05,424.62 219.2,420.19 230.09,415.15 243.36,408.17 261.39,397.4 281.34,384.06 303.08,368.06 324.16,351.19 346.89,331.61 371.16,309.26 392.5,288.17 400.69,279.4 406.55,272.57 410.15,267.77 413.1,262.56 414.73,256.8 414.56,253.83 413.07,251.25 410.77,249.34 408.15,247.89 399.64,244.98 393.78,243.71 387.84,242.85 375.86,242.29" fill="none" stroke="#000000" stroke-width="1"/><polyline id="SvgjsPolyline1774" points="500.86,0.62 484.12,17.81 470.89,30.01 457.09,41.57 440.31,54.19 425.43,64.31 410.18,73.88 347.81,109.85 324.88,124.1 312.47,132.53 300.36,141.38 288.62,150.71 279.54,158.55 268.66,168.87 258.42,179.83 250.8,189.1 242.21,201.39 236.27,211.81 231.38,222.77 227.81,234.21 226.6,240.09 225.83,246.04 225.53,252.03 225.73,258.02 226.47,263.98 227.75,269.84 229.6,275.54 232,281.04 234.96,286.25 238.46,291.12 242.46,295.59 246.93,299.59 251.81,303.08 257.04,306.02 262.55,308.38 268.28,310.16 274.15,311.36 280.11,312.02 286.11,312.16 292.1,311.83 298.05,311.05 306.84,309.14 315.43,306.46 321.02,304.28 334.51,297.74 342.24,293.15 349.7,288.11 356.85,282.64 363.61,276.7 367.8,272.41 371.6,267.77 374.58,262.58 375.37,259.69 375.17,256.72 372.33,251.51 369.91,249.77 367.08,248.79 364.12,248.35 358.14,248.62 352.37,250.22 349.69,251.56 347.33,253.4 346.24,256.02" fill="none" stroke="#000000" stroke-width="1"/><polyline id="SvgjsPolyline1775" points="598.77,116.6 571.37,144.35 550.79,166.18 532.81,186.32 517.55,204.84 510.34,214.44 505.23,221.84 500.5,229.5 497.66,234.78 495.16,240.23 493.18,245.89 491.94,251.76 491.7,254.75 492.16,260.72 492.9,263.62 493.97,266.43 496.91,271.65 500.62,276.36 504.81,280.65 509.3,284.63 516.37,290.19 526.19,297.09 536.28,303.58 549.19,311.22 559.74,316.94 567.79,320.97 578.72,325.91 589.9,330.26 598.46,333.04" fill="none" stroke="#000000" stroke-width="1"/><polyline id="SvgjsPolyline1776" points="598.62,107.43 569.01,137.22 539.88,167.47 519.55,189.53 501.92,209.98 494.48,219.4 489.2,226.69 485.91,231.7 481.45,239.52 477.84,247.75 476.55,253.6 476.47,256.59 476.87,259.56 477.77,262.42 479.11,265.1 482.74,269.86 487.07,274.01 491.75,277.77 506.6,287.93 532.26,303.47 555.96,316.39 574.96,325.32 586.12,329.75 594.64,332.64" fill="none" stroke="#000000" stroke-width="1"/><polyline id="SvgjsPolyline1777" points="90.83,599.86 110.82,593.41 130.46,585.98 149.71,577.62 168.48,568.2 186.66,557.7 204.16,546.1 220.88,533.39 234.5,521.62 243.19,513.35 253.61,502.57 263.55,491.33 273.04,479.71 289.21,458.1 321.9,411.4 334.24,394.41 352.57,370.66 367.87,352.17 387.78,329.74 408.62,308.16 417.29,299.87 426.26,291.89 433.26,286.24 440.63,281.08 448.56,276.84 454.23,274.91 457.18,274.33 460.16,274.04 466.15,274.32 474.9,276.37 483.32,279.54 496.88,285.93 547.14,312.83" fill="none" stroke="#000000" stroke-width="1"/><polyline id="SvgjsPolyline1778" points="159.22,598.94 172.5,591.98 188.11,583.02 203.3,573.36 215.59,564.77 227.52,555.67 241.28,544.07 252.24,533.83 262.71,523.09 270.72,514.15 278.39,504.93 287.54,493.04 294.52,483.28 307.76,463.27 336.1,417.3 347.46,399.64 361.08,379.88 373.65,363.06 383.01,351.34 392.7,339.89 408.94,322.22 417.44,313.76 426.27,305.63 433.17,299.86 440.38,294.47 445.41,291.2 450.65,288.28 456.14,285.87 461.87,284.11 467.79,283.16 470.79,283.02 476.78,283.36 482.68,284.41 491.31,286.94 505.19,292.63 558.88,319.4" fill="none" stroke="#000000" stroke-width="1"/><polyline id="SvgjsPolyline1779" points="275.75,599.3 293.29,582.92 307.8,567.74 321.4,551.75 335.74,532.51 347.21,514.92 357.75,496.76 367.54,478.18 394.28,424.47 402.9,408.67 410.59,395.79 420.57,380.82 431.54,366.55 437.44,359.75 443.65,353.24 454.77,343.18 461.95,337.76 466.97,334.48 474.86,330.15 480.35,327.74 486.01,325.75 491.81,324.22 500.7,322.83 506.69,322.49 518.67,323.01 533.47,325.4 548.04,328.94 579.86,337.7 597.41,341.67" fill="none" stroke="#000000" stroke-width="1"/><polyline id="SvgjsPolyline1780" points="1.78,477.93 10.79,485.84 20.47,492.93 30.87,498.9 41.86,503.7 53.3,507.32 65.03,509.8 76.94,511.22 88.93,511.65 100.92,511.16 115.81,509.35 130.49,506.32 144.91,502.18 158.99,497.01 172.68,490.9 185.97,483.94 198.82,476.21 216.11,464.31 234.99,449.48 253.13,433.78 277.4,411.42 331.59,359.56 391.43,300.62 422.97,268.52 428.99,261.83 432.38,256.91 432,254.13 429.49,252.55 423.91,250.35 415.34,247.63 406.62,245.38 397.8,243.62 388.88,242.44 379.89,241.95 370.91,242.31 364.96,243.11 359.11,244.44 353.46,246.44 348.2,249.31 345.87,251.19 343.99,253.51 343.44,256.37 345.69,258.05 348.64,257.7 351.07,256.06" fill="none" stroke="#000000" stroke-width="1"/><polyline id="SvgjsPolyline1781" points="0.44,559.35 12.32,561.02 24.28,562.02 36.27,562.39 48.27,562.16 60.24,561.36 72.17,560.02 84.02,558.15 95.78,555.77 107.43,552.9 118.95,549.54 130.32,545.71 141.52,541.41 155.26,535.38 166.01,530.05 176.52,524.27 186.79,518.05 201.67,507.94 215.92,496.94 229.51,485.14 242.49,472.68 263.05,450.83 314.35,392.08 346.63,356.55 386.01,315.35 405.07,296.23 422.42,279.64 429.16,273.67 436.22,268.1 441.34,264.98 444.11,263.84 447.03,263.19 450.03,263.15 455.88,264.41 461.49,266.54" fill="none" stroke="#000000" stroke-width="1"/><polyline id="SvgjsPolyline1782" points="599.45,149.58 585.23,165.02 571.67,181.06 560.77,195.38 550.85,210.39 543.73,223.59 539.18,234.69 537.46,240.43 536.2,246.3 535.4,255.25 536.13,264.21 537.54,270.04 539.65,275.65 543.93,283.56 547.39,288.46 551.23,293.07 559.76,301.49 566.73,307.19 571.59,310.71 584.35,318.58 597.87,325.06" fill="none" stroke="#000000" stroke-width="1"/><polyline id="SvgjsPolyline1783" points="599.13,123.56 574.03,149.37 555.8,169.29 538.35,189.88 525.67,206.62 517.47,219.18 513.12,227.05 510.58,232.49 508.44,238.09 506.13,246.79 505.24,252.71 505.13,255.71 505.65,261.68 506.31,264.61 508.39,270.23 511.31,275.46 514.87,280.29 518.87,284.76 527.7,292.88 534.78,298.43 544.61,305.31 554.78,311.68 562.6,316.14 573.26,321.64 581.44,325.39 589.78,328.76 598.29,331.7" fill="none" stroke="#000000" stroke-width="1"/><polyline id="SvgjsPolyline1784" points="599.33,60.12 565.94,94.6 546.65,113.49 531.34,127.86 513.45,143.87 499.72,155.5 485.64,166.71 473.6,175.66 463.73,182.48 451.05,190.5 437.96,197.82 427.19,203.1 416.16,207.84 407.76,211.05 367.95,224.45 359.6,227.79 351.48,231.67 343.77,236.3 336.8,241.97 332.88,246.51 331.29,249.05 330.09,251.79 329.44,254.72 329.64,257.7 330.92,260.38 333.19,262.32 335.99,263.37 338.96,263.68 341.95,263.43 344.87,262.75 347.67,261.68 350.31,260.25 352.66,258.4 354.17,255.88" fill="none" stroke="#000000" stroke-width="1"/><polyline id="SvgjsPolyline1785" points="171.75,0.14 104.66,99.63 90.19,122.43 78.11,143.17 67.17,164.52 58.89,183.81 54.84,195.11 52.2,203.71 49.23,215.34 47.47,224.16 46.12,233.06 45.01,245.01 44.7,257 45.19,268.99 46.07,277.94 47.91,289.8 50.46,301.52 53.67,313.09 57.49,324.46 61.88,335.63 68.11,349.27 73.68,359.89 79.77,370.23 86.4,380.23 93.63,389.81 101.52,398.85 107.91,405.18 114.76,411.01 122.07,416.26 129.84,420.8 138.03,424.52 146.57,427.35 155.36,429.24 161.32,429.98 170.3,430.35 179.29,429.89 188.2,428.67 197.01,426.8 205.67,424.36 216.98,420.35 228.01,415.64 238.78,410.35 257.06,400.03 274.75,388.7 294.35,374.86 313.4,360.27 334.22,343.07 356.69,323.21 378.56,302.67 395.54,285.71 405.72,274.7 411.45,267.76 414.87,262.83 416.29,260.19 417.27,257.36 417.34,254.38 416,251.74 413.73,249.79 408.35,247.17 399.72,244.64" fill="none" stroke="#000000" stroke-width="1"/><polyline id="SvgjsPolyline1786" points="141.71,2.25 79.11,101.09 65.31,124.3 53.86,145.39 43.57,167.07 39,178.16 34.91,189.44 32.19,198.02 29.08,209.61 26.62,221.35 25.23,230.24 24.01,242.18 23.54,254.17 23.82,266.16 24.84,278.12 26.55,290 28.92,301.76 31.9,313.38 36.39,327.69 41.66,341.73 47.64,355.49 54.31,368.92 60.15,379.4 68.13,392.1 75.12,401.85 82.75,411.11 88.95,417.63 95.59,423.71 102.7,429.22 110.28,434.07 118.3,438.14 126.7,441.35 135.4,443.66 144.28,445.06 153.26,445.58 162.26,445.29 174.15,443.76 182.95,441.87 194.46,438.49 205.7,434.28 216.66,429.4 227.35,423.96 237.8,418.07 255.59,406.91 277.71,391.43 301.53,373.2 322.38,356.04 344.95,336.27 371.34,311.79 396.94,286.49 411.14,271.02 416.64,263.9 419.5,258.64 420.11,255.72 419.33,252.86 417.27,250.71 414.71,249.15 409.16,246.89 397.53,243.94 385.64,242.37" fill="none" stroke="#000000" stroke-width="1"/><polyline id="SvgjsPolyline1787" points="216.77,0.76 153.62,84.65 139.49,104.04 125.87,123.8 113.07,144.1 102.85,162.44 95.08,178.68 88.49,195.42 83.35,212.67 81.41,221.46 79.93,230.33 78.93,239.27 78.43,248.26 78.44,257.26 78.95,266.24 79.97,275.18 81.47,284.06 83.45,292.83 85.87,301.5 88.73,310.03 91.99,318.42 95.66,326.64 99.7,334.68 105.68,345.08 112.32,355.07 119.66,364.56 125.65,371.28 134.3,379.59 141.32,385.21 148.8,390.21 156.72,394.48 165.04,397.91 173.67,400.45 182.52,402.05 191.49,402.74 200.49,402.59 209.44,401.65 218.29,400.04 229.89,396.98 241.23,393.07 252.31,388.46 263.18,383.38 276.44,376.37 289.34,368.73 301.93,360.57 314.21,351.95 326.2,342.95 340.25,331.7 356.22,318.06 371.77,303.94 386.84,289.32 397.17,278.44 404.88,269.26 409.78,261.72 410.95,258.96 411.53,256.03 411.05,253.09 409.38,250.62 407.03,248.77 404.38,247.36 398.74,245.33 392.91,243.94 384,242.73 378,242.45 369.02,242.86 363.09,243.76 357.28,245.25 351.71,247.48 346.67,250.71 344.62,252.88 343.53,255.62 345.21,257.83 348.16,257.8 350.77,256.4" fill="none" stroke="#000000" stroke-width="1"/><polyline id="SvgjsPolyline1788" points="515.76,1.99 499.48,19.63 482.26,36.34 466.35,50.04 447.24,64.55 432.33,74.63 414.44,85.62 396.16,95.97 351.36,120.33 328.12,134.06 315.55,142.24 303.31,150.92 291.47,160.13 282.35,167.93 271.48,178.26 261.34,189.31 252.14,201.15 245.64,211.23 240.14,221.89 235.88,233.1 234.31,238.89 233.16,244.78 232.48,250.74 232.31,256.73 232.69,262.72 233.64,268.64 235.17,274.44 237.31,280.04 240.05,285.38 243.36,290.38 249.35,297.08 256.41,302.64 261.61,305.63 267.11,308.01 272.84,309.78 278.73,310.95 284.7,311.54 290.69,311.6 296.68,311.17 302.61,310.28 314.23,307.33 319.89,305.34 328.17,301.82 341.38,294.73 348.95,289.86 356.23,284.56 363.17,278.84 367.57,274.76 371.72,270.43 375.47,265.75 378.49,260.58 379.43,257.74 379.62,254.75 378.64,251.95 376.57,249.8 373.93,248.39 371.06,247.52 368.1,247.06 362.11,247.06 356.21,248.11 350.63,250.28 348.11,251.9 346.05,254.06" fill="none" stroke="#000000" stroke-width="1"/><polyline id="SvgjsPolyline1789" points="483.95,1.03 471.2,13.73 460.14,23.86 446.35,35.43 432.04,46.34 419.77,54.97 404.71,64.83 343.05,102.01 327.84,111.63 315.37,119.96 300.73,130.44 288.86,139.61 277.35,149.22 266.26,159.32 253.65,172.16 243.88,183.54 234.97,195.6 227.18,208.41 224.44,213.75 220.82,221.98 217.05,233.37 214.71,245.13 214.14,251.1 214.03,257.1 214.73,266.07 215.81,271.97 217.4,277.75 219.48,283.38 222.07,288.79 225.14,293.94 228.69,298.77 232.69,303.24 237.1,307.3 241.9,310.9 247.03,314.01 252.45,316.58 258.09,318.62 263.9,320.11 269.82,321.07 278.8,321.57 287.78,321.03 293.71,320.15 299.58,318.91 308.23,316.42 313.87,314.39 322.15,310.86 330.19,306.82 338,302.34 345.58,297.49 355.31,290.46 364.57,282.84 371.13,276.69 377.2,270.04 380.77,265.23 383.54,259.92 384.3,257.02 384.24,254.03 383.04,251.31 380.89,249.23 378.26,247.8 375.42,246.85 369.49,245.97 366.5,245.92 360.53,246.5 354.72,247.98 349.3,250.53 346.93,252.35 345.21,254.78" fill="none" stroke="#000000" stroke-width="1"/><polyline id="SvgjsPolyline1790" points="540.37,2.14 522.59,22.45 512.23,33.3 503.67,41.71 492.63,51.86 483.51,59.66 474.15,67.17 462.11,76.12 442.14,89.42 424.05,100.09 402.9,111.42 360.13,133.2 336.54,146.34 326.33,152.64 316.35,159.31 306.66,166.38 297.3,173.89 286.19,183.96 277.87,192.61 270.21,201.84 263.37,211.69 257.6,222.21 254.17,230.52 251.68,239.16 250.33,248.06 250.16,254.05 250.65,260.03 252.69,268.78 254.96,274.33 256.37,276.97 259.72,281.95 261.65,284.24 263.74,286.4 268.34,290.24 273.42,293.42 276.12,294.74 284.62,297.64 293.51,299.01 299.5,299.29 305.49,299.11 311.45,298.38 317.32,297.16 328.72,293.46 339.6,288.4 347.37,283.87 352.36,280.53 359.48,275.03 363.93,271.01 368.03,266.63 371.5,261.74 372.78,259.03 373.43,256.12 372.95,253.19 371.1,250.86 368.48,249.43 365.58,248.68 362.6,248.41 359.6,248.53 353.74,249.78 350.97,250.92 348.43,252.49 346.46,254.72" fill="none" stroke="#000000" stroke-width="1"/><polyline id="SvgjsPolyline1791" points="16.59,599.95 28.56,599 43.45,597.25 55.31,595.4 70.03,592.54 81.72,589.82 96.21,585.97 107.7,582.5 121.89,577.64 133.1,573.34 144.15,568.67 157.73,562.3 168.38,556.79 178.84,550.89 191.58,542.99 201.5,536.24 211.15,529.11 222.82,519.67 236.18,507.62 248.86,494.84 260.87,481.44 270.44,469.89 279.69,458.09 317.34,407.57 333.88,386.24 352.93,363.06 374.72,338.27 397.34,314.25 416.62,295.36 430.19,283.53 437.4,278.15 442.49,274.98 447.91,272.42 453.69,270.86 459.68,270.62 462.65,270.97 468.48,272.37 476.92,275.51 487.79,280.58 503.72,288.96 527.35,302.01" fill="none" stroke="#000000" stroke-width="1"/><polyline id="SvgjsPolyline1792" points="183.65,599.52 196.5,591.78 209.07,583.6 221.33,574.95 235.57,563.95 247,554.24 258,544.03 266.45,535.52 276.55,524.43 284.26,515.24 291.63,505.77 305.42,486.13 318.15,465.79 343.78,421.69 354.65,403.72 367.75,383.62 381.76,364.14 396.74,345.39 406.63,334.12 414.87,325.39 423.44,316.99 432.4,309.01 439.45,303.42 446.86,298.31 452.04,295.29 457.44,292.68 463.07,290.61 468.9,289.21 471.87,288.78 477.86,288.52 483.84,288.98 489.74,290.05 501.23,293.49 512.36,297.96 555.68,318.64 572.14,325.91 586.16,331.24 597.62,334.8" fill="none" stroke="#000000" stroke-width="1"/><polyline id="SvgjsPolyline1793" points="256.44,599.96 274.61,584.29 291.89,567.64 300.11,558.9 308.03,549.89 315.63,540.6 322.89,531.04 329.81,521.24 336.39,511.21 348.64,490.57 358.54,472.05 385.66,418.53 394.39,402.79 403.75,387.42 415.66,370.13 426.85,356.04 439.1,342.85 445.67,336.7 452.58,330.95 459.88,325.68 464.98,322.51 472.98,318.41 478.55,316.18 484.29,314.44 490.16,313.21 496.12,312.53 505.11,312.48 517.01,313.96 528.69,316.7 543.01,321.16 577.04,332.89 588.55,336.32 597.27,338.51" fill="none" stroke="#000000" stroke-width="1"/><polyline id="SvgjsPolyline1794" points="295.01,597.95 309.99,583.24 324.19,567.76 337.5,551.53 349.87,534.56 361.27,516.93 373.21,496.11 382.89,477.47 408.09,426.35 415.19,413.14 422.75,400.19 432.64,385.15 441.69,373.19 451.61,361.94 462.51,351.65 469.59,346.09 474.54,342.71 479.69,339.63 487.77,335.67 493.37,333.52 499.12,331.82 504.99,330.57 513.92,329.55 525.92,329.62 540.8,331.46 552.56,333.82 584.7,341.3 599.45,344.05" fill="none" stroke="#000000" stroke-width="1"/><polyline id="SvgjsPolyline1795" points="0.45,458.2 8.24,467.33 16.7,475.83 25.97,483.44 36.03,489.97 46.78,495.29 58.05,499.39 69.7,502.27 75.61,503.28 84.55,504.26 96.54,504.67 111.51,503.81 126.34,501.58 140.93,498.1 155.2,493.49 169.1,487.87 182.6,481.32 195.66,473.96 205.81,467.56 215.7,460.76 234.79,446.22 255.42,428.8 284.36,402.66 334.57,355.34 386.05,305 419.69,270.77 427.62,261.76 429.38,259.34 430.71,256.66 430.16,253.86 427.72,252.15 424.98,250.93 419.33,248.91 410.69,246.4 396.01,243.34 384.08,242.09 375.09,242.03 366.14,242.91 357.38,244.97" fill="none" stroke="#000000" stroke-width="1"/><polyline id="SvgjsPolyline1796" points="1.57,571.69 13.53,572.62 25.52,572.97 46.51,572.26 58.46,571.15 70.35,569.55 82.16,567.47 93.89,564.92 105.51,561.92 117,558.47 128.35,554.58 139.54,550.25 150.56,545.49 161.37,540.29 171.97,534.67 182.34,528.62 199.85,517.04 214.17,506.14 227.83,494.43 242.95,479.86 253.27,468.97 263.26,457.78 317.2,393.39 332.93,375.26 350.96,355.17 373.46,331.03 398.57,305.23 415.75,288.48 429.15,276.46 436.26,270.95 441.36,267.79 446.93,265.59 449.89,265.12 452.88,265.15 455.85,265.59 461.6,267.28 469.9,270.75 480.67,276.05" fill="none" stroke="#000000" stroke-width="1"/><polyline id="SvgjsPolyline1797" points="598.12,168.62 586.59,182.43 577.59,194.43 569.36,206.96 563.51,217.44 558.57,228.37 554.92,239.79 553.31,248.64 552.93,257.63 553.97,266.56 556.47,275.19 560.31,283.32 565.25,290.84 571.06,297.71 579.83,305.88 589.51,312.98 599.89,318.97" fill="none" stroke="#000000" stroke-width="1"/><polyline id="SvgjsPolyline1798" points="598.64,43.02 582.44,60.73 567.97,75.94 555.32,88.75 540.24,103.37 524.79,117.59 513.5,127.46 501.97,137.06 487.79,148.14 475.65,156.95 460.65,166.89 447.76,174.58 434.53,181.64 423.71,186.83 412.72,191.64 373.58,206.87 362.51,211.5 351.69,216.69 343.85,221.1 336.37,226.1 331.67,229.83 327.28,233.91 323.31,238.41 319.94,243.37 318.55,246.02 316.61,251.69 316.21,254.66 316.3,257.65 316.99,260.57 318.32,263.25 320.26,265.53 322.69,267.28 325.43,268.5 328.34,269.21 331.32,269.48 337.29,268.99 340.21,268.31 345.84,266.25 351.08,263.33 353.47,261.52 355.59,259.41 357.14,256.86 356.74,254.07 354.02,253.08 351.08,253.59 348.67,255.27" fill="none" stroke="#000000" stroke-width="1"/><polyline id="SvgjsPolyline1799" points="185.16,1.82 118.22,97.77 101.76,122.85 90.91,140.83 79.54,161.96 74.41,172.81 69.73,183.86 66.56,192.28 62.85,203.69 60.5,212.38 58.54,221.16 56.58,233 55.64,241.95 55.16,250.93 55.25,262.93 56.16,274.89 57.37,283.81 59.66,295.59 62.66,307.21 66.33,318.63 70.62,329.84 75.49,340.8 80.93,351.5 86.92,361.89 93.48,371.94 100.65,381.56 106.46,388.43 112.68,394.93 119.33,401 126.43,406.52 134,411.39 142,415.49 150.4,418.73 156.16,420.38 165,422.06 170.97,422.66 179.96,422.83 188.94,422.16 197.83,420.77 206.59,418.74 218.05,415.19 226.47,412 237.45,407.16 250.81,400.36 266.39,391.35 281.53,381.62 298.73,369.57 315.47,356.88 331.77,343.65 349.95,327.98 367.7,311.82 385,295.2 397.59,282.33 407.55,271.12 412.9,263.89 415.58,258.54 416.09,255.6 415.35,252.72 413.41,250.45 410.92,248.79 408.22,247.5" fill="none" stroke="#000000" stroke-width="1"/><polyline id="SvgjsPolyline1800" points="128.36,1 65.55,103.25 52.11,126.67 41.02,147.95 31.15,169.82 26.8,181.01 22.94,192.37 20.4,201 17.54,212.65 15.81,221.48 14.1,233.36 13.11,245.32 12.85,257.31 13.31,269.3 14.47,281.25 16.29,293.1 19.44,307.77 23.44,322.22 27.21,333.62 32.54,347.63 38.53,361.39 45.14,374.85 52.42,387.96 60.43,400.64 67.46,410.36 75.14,419.58 81.39,426.05 88.09,432.06 97.77,439.14 105.57,443.62 113.78,447.29 122.34,450.09 131.13,451.99 140.07,453.02 149.06,453.21 161.02,452.3 169.9,450.82 178.65,448.75 190.11,445.18 201.28,440.82 212.19,435.81 225.44,428.79 238.33,421.12 260.77,406.11 284.84,388.21 310.54,367.51 337.75,343.95 368.59,315.44 383.68,300.83 398.48,285.93 406.72,277.21 414.59,268.15 418.17,263.34 419.74,260.78 420.95,258.04 421.35,255.09 420.19,252.38 417.92,250.42 412.52,247.83 403.92,245.23 395.1,243.44 386.16,242.37 377.17,242.07" fill="none" stroke="#000000" stroke-width="1"/><polyline id="SvgjsPolyline1801" points="231.92,0.78 161.75,90.61 145.6,112.25 133.54,129.45 120.6,149.65 110.3,167.95 104.99,178.71 101.34,186.94 95.03,203.79 91.67,215.31 89.66,224.08 88.11,232.94 87.06,241.88 86.45,253.86 86.61,262.86 87.29,271.83 88.49,280.75 90.19,289.59 92.37,298.32 95.99,309.76 99.22,318.16 102.86,326.39 106.9,334.43 111.34,342.25 117.87,352.32 125.12,361.88 131.04,368.66 137.4,375.02 144.21,380.9 151.48,386.2 159.21,390.8 167.37,394.6 173.01,396.64 181.71,398.93 187.62,399.92 196.59,400.64 205.59,400.48 214.53,399.52 223.38,397.86 232.08,395.59 240.64,392.81 251.81,388.44 265.41,382.09 278.61,374.99 291.47,367.27 304.01,359.03 318.66,348.58 332.91,337.58 344.51,328.07 360.37,314.3 375.8,300.06 390.71,285.28 400.82,274.2 404.6,269.54 408.05,264.63 410.76,259.29 411.42,256.38 411.1,253.42 409.55,250.87" fill="none" stroke="#000000" stroke-width="1"/><polyline id="SvgjsPolyline1802" points="201.78,0.83 134.87,93.13 119.51,115.34 106.53,135.52 94.53,156.3 85.19,175.1 80.48,186.14 77.3,194.56 72,211.75 69.35,223.46 67.87,232.33 66.86,241.28 66.26,253.26 66.37,262.26 67.27,274.22 68.5,283.13 70.18,291.97 72.3,300.72 75.76,312.21 79.9,323.47 84.69,334.47 90.09,345.19 96.09,355.58 102.71,365.58 108.09,372.8 115.86,381.94 122.17,388.35 128.92,394.3 136.13,399.68 143.8,404.39 151.89,408.32 157.5,410.45 166.16,412.87 175.04,414.34 184.02,414.89 193.01,414.58 201.94,413.49 213.67,410.99 222.3,408.45 230.78,405.44 241.85,400.8 257.97,392.79 276.13,382.25 296.16,369.04 315.52,354.86 334.27,339.88 356.96,320.26 378.91,299.81 395.82,282.78 403.86,273.88 409.45,266.83 412.66,261.76 413.88,259.02 414.51,256.1 414.04,253.17 412.31,250.74 409.91,248.95 407.24,247.58 401.6,245.56 395.77,244.13 389.86,243.13" fill="none" stroke="#000000" stroke-width="1"/><polyline id="SvgjsPolyline1803" points="304.83,1.96 244.43,64.58 225.93,84.24 209.79,102.01 194.15,120.21 182.89,134.26 172.19,148.73 163.82,161.17 154.64,176.65 147.88,190.04 142.15,203.9 137.64,218.2 134.58,232.87 133.29,244.8 133.05,253.8 133.25,259.79 134.51,271.72 136.91,283.47 139.44,292.11 143.76,303.3 147.69,311.4 153.8,321.72 159.03,329.04 164.81,335.93 171.14,342.33 178.01,348.14 185.39,353.28 193.25,357.65 201.54,361.16 210.15,363.75 219,365.39 227.96,366.11 236.96,365.96 245.91,365.03 257.68,362.73 269.21,359.41 280.46,355.24 291.42,350.37 302.1,344.9 315.05,337.33 327.59,329.1 342.12,318.48 358.42,305.24 371.8,293.21 382.42,282.62 390.29,273.56 395.33,266.12 396.61,263.41 397.46,260.54 397.68,254.56 396.75,251.73 394.84,249.43 392.39,247.72 389.68,246.44 386.83,245.49 380.96,244.27 371.99,243.73 366,244.13 360.1,245.17 354.37,246.93 351.62,248.13 349.01,249.6 346.62,251.41 344.68,253.69 344.25,256.52" fill="none" stroke="#000000" stroke-width="1"/><polyline id="SvgjsPolyline1804" points="467.11,1 456.22,11.31 442.65,23.13 430.95,32.52 416.49,43.24 389.1,61.64 330.79,98.53 315.9,108.64 301.31,119.18 289.42,128.33 275.56,139.81 266.6,147.8 255.8,158.2 243.53,171.36 232.25,185.38 223.83,197.8 216.58,210.92 214.08,216.37 210.83,224.76 207.57,236.3 206.46,242.2 205.52,251.15 205.41,257.15 205.74,263.13 206.52,269.08 208.57,277.84 210.51,283.52 214.29,291.68 217.38,296.82 222.83,303.97 226.97,308.31 231.49,312.25 238.92,317.33 244.23,320.11 249.78,322.38 255.52,324.13 261.39,325.36 267.34,326.09 273.34,326.34 282.32,325.9 294.15,323.93 305.69,320.64 316.85,316.25 330.25,309.52 343.03,301.67 355.21,292.92 366.71,283.3 375.28,274.91 381.08,268.03 384.33,262.99 385.6,260.27 386.42,257.39 386.48,254.41 385.45,251.61 383.43,249.41 380.88,247.85 378.08,246.79 372.19,245.67 369.2,245.5 363.21,245.8 357.32,246.94 354.46,247.84" fill="none" stroke="#000000" stroke-width="1"/><polyline id="SvgjsPolyline1805" points="557.25,0.49 543.84,16.66 533.95,27.93 523.73,38.92 513.18,49.57 502.26,59.86 490.97,69.73 479.32,79.17 467.29,88.14 447.33,101.46 426.61,113.55 402.63,125.96 359.48,146.98 338.33,158.33 328.04,164.5 318,171.07 308.29,178.11 298.96,185.67 290.13,193.78 281.89,202.51 274.42,211.89 267.95,221.99 263.92,230.03 260.8,238.47 258.79,247.23 258.13,256.2 259.06,265.14 260.64,270.92 261.74,273.71 263.03,276.42 266.22,281.5 270.14,286.03 272.36,288.05 277.22,291.56 279.83,293.03 285.34,295.39 294.07,297.51 303.05,298.06 312,297.24 317.88,296.05 323.65,294.41 334.81,290.01 345.39,284.37 355.32,277.64 359.99,273.87 364.39,269.79 368.38,265.32 370.13,262.88 371.6,260.27 372.6,257.45 372.7,254.47 371.41,251.81 369.02,250.02 366.19,249.04 363.23,248.62 360.23,248.62 354.34,249.69 351.53,250.74 348.93,252.22 346.79,254.29" fill="none" stroke="#000000" stroke-width="1"/><polyline id="SvgjsPolyline1806" points="0.97,587.94 24.96,587.71 36.94,586.95 48.88,585.75 60.76,584.1 72.58,582.03 93.06,577.39 104.62,574.18 116.07,570.56 127.37,566.55 138.53,562.14 149.53,557.33 160.34,552.12 170.95,546.52 181.33,540.51 196.46,530.76 213.34,518.27 229.31,504.65 244.37,490.01 256.58,476.79 268.26,463.09 320.24,397.11 337.42,376.28 355.08,355.86 375.25,333.65 398.09,309.84 415.25,293.06 424.13,284.99 431.03,279.21 438.3,273.91 443.5,270.92 446.24,269.71 452.04,268.22 458.02,268.27 463.88,269.55 472.31,272.67 483.17,277.77 499.09,286.17" fill="none" stroke="#000000" stroke-width="1"/><polyline id="SvgjsPolyline1807" points="208.07,598.64 220.46,590.19 230.16,583.12 241.97,573.87 253.41,564.17 264.42,553.99 272.91,545.5 283.07,534.47 290.82,525.31 303.57,508.63 316.91,488.68 330.65,465.44 352.34,426.02 362.77,407.79 373.78,389.91 385.54,372.51 400.01,353.37 409.67,341.9 417.76,333.04 426.23,324.53 432.85,318.44 439.77,312.68 447.01,307.35 454.66,302.61 460.01,299.9 465.58,297.66 471.34,295.99 477.25,294.98 483.24,294.65 489.23,294.98 495.16,295.87 503.89,298.03 515.23,301.95 526.32,306.53 559.12,321.36 570.17,326.04 584.21,331.32 598.56,335.68" fill="none" stroke="#000000" stroke-width="1"/><polyline id="SvgjsPolyline1808" points="237.09,599.9 246.56,592.52 260.42,581.04 278.07,564.78 286.48,556.23 294.59,547.38 302.38,538.25 309.82,528.84 316.93,519.17 323.69,509.26 336.26,488.82 346.43,470.44 375.61,414.61 386.09,396.42 395.73,381.22 402.55,371.35 409.72,361.72 423.16,345.6 435.73,332.72 442.45,326.72 449.49,321.13 456.92,316.05 462.1,313.03 470.25,309.22 475.92,307.25 481.74,305.84 487.68,305 493.68,304.76 499.67,305.06 505.61,305.84 511.5,307.03 523.05,310.27 534.36,314.25 576.32,330.52 587.72,334.26 599.3,337.38" fill="none" stroke="#000000" stroke-width="1"/><polyline id="SvgjsPolyline1809" points="312.1,598.17 326.67,583.04 340.46,567.21 353.41,550.68 365.45,533.48 376.58,515.67 386.89,497.38 395.19,481.41 419.14,433.01 426.2,419.77 433.73,406.81 441.9,394.23 450.84,382.19 460.72,370.9 469.37,362.6 476.35,356.92 481.25,353.45 488.96,348.82 494.34,346.16 499.89,343.89 505.59,342.03 511.42,340.59 520.31,339.22 532.29,338.73 547.25,339.76 597.64,347.58" fill="none" stroke="#000000" stroke-width="1"/><polyline id="SvgjsPolyline1810" points="1.49,438.71 8.26,448.62 17.57,460.38 25.89,469.01 32.7,474.89 39.98,480.18 50.36,486.19 61.37,490.94 72.86,494.4 84.64,496.63 96.59,497.68 108.59,497.65 120.54,496.63 132.38,494.7 146.94,491.12 161.17,486.38 172.28,481.83 185.78,475.31 201.42,466.41 214,458.24 228.6,447.72 245.09,434.71 263.4,419.2 281.37,403.29 307.97,379.04 340.75,348.21 373.07,316.89 402.82,287.24 421.42,267.68 427.09,260.7 428.64,258.13 429.29,255.25 427.69,252.82 422.35,250.13" fill="none" stroke="#000000" stroke-width="1"/><polyline id="SvgjsPolyline1811" points="599.63,185.38 592.47,195 585.85,205.01 579.91,215.44 576.04,223.56 572.81,231.96 570.38,240.62 568.95,249.5 568.65,255.49 569.3,264.46 570.51,270.33 572.33,276.04 576.13,284.19 579.29,289.29 584.83,296.38 591.16,302.76 598.15,308.44" fill="none" stroke="#000000" stroke-width="1"/><polyline id="SvgjsPolyline1812" points="599.5,23.66 573.73,52.93 561.43,66.07 546.71,81.05 533.75,93.54 520.45,105.66 506.78,117.37 495.08,126.76 480.65,137.52 465.76,147.63 452.99,155.5 439.89,162.81 429.2,168.26 415.61,174.6 374.08,191.93 360.36,197.99 346.98,204.76 334.18,212.57 326.94,217.91 322.37,221.8 316.02,228.17 312.22,232.81 308.88,237.79 306.15,243.13 304.21,248.8 303.34,254.73 303.89,260.68 304.79,263.54 306.13,266.22 307.91,268.63 310.07,270.71 312.54,272.41 315.24,273.71 318.09,274.64 324.02,275.48 330.01,275.18 335.88,273.98 341.56,272.06 346.99,269.51 352.09,266.36 356.7,262.53 358.68,260.28 360.21,257.71 360.56,254.79 358.62,252.63 355.71,252.04 352.74,252.4 349.96,253.51 348.05,255.65" fill="none" stroke="#000000" stroke-width="1"/><polyline id="SvgjsPolyline1813" points="113.44,2.5 53.46,102.95 40.3,126.53 29.45,147.93 24.44,158.84 18.7,172.69 14.58,183.96 10.95,195.4 7.87,207 5.96,215.79 4.41,224.66 2.94,236.57 2.17,248.54 2.1,260.54 2.99,275.51 4.45,287.42 6.53,299.23 9.17,310.94 13.2,325.39 17.93,339.62 23.31,353.62 30.54,370.1 37.21,383.53 44.52,396.63 52.57,409.29 59.64,418.98 67.39,428.14 73.7,434.55 82.85,442.3 90.28,447.38 98.15,451.73 106.43,455.26 115.02,457.93 123.83,459.73 132.78,460.69 144.77,460.73 156.71,459.51 165.55,457.85 177.15,454.78 188.48,450.85 199.54,446.2 212.99,439.55 226.02,432.14 238.71,424.14 258.41,410.44 284.63,390.4 310.11,369.43 337.17,345.69 372.25,312.93 399.92,285.44 410.18,274.5 416.05,267.68 419.63,262.87 421.19,260.31 422.35,257.55 422.52,254.58 421.03,252.03 418.63,250.25 413.15,247.81 404.52,245.27 395.71,243.48 383.78,242.18 374.79,242.11 365.84,243.01" fill="none" stroke="#000000" stroke-width="1"/><polyline id="SvgjsPolyline1814" points="247.08,1.09 178.9,84.85 164.06,103.71 149.7,122.94 136.1,142.71 125.11,160.61 116.63,176.48 109.25,192.89 103.28,209.87 100.92,218.55 99.01,227.35 97.6,236.23 96.7,245.19 96.34,254.18 96.52,263.17 97.25,272.14 98.52,281.05 100.31,289.87 102.61,298.57 105.39,307.13 108.63,315.52 112.33,323.73 116.45,331.73 122.61,342.02 127.73,349.43 135.21,358.8 141.35,365.39 150.24,373.43 157.46,378.81 165.13,383.49 173.24,387.39 181.72,390.41 190.47,392.49 199.39,393.62 208.39,393.84 217.36,393.22 226.26,391.86 235.03,389.85 246.5,386.33 254.92,383.16 263.19,379.61 273.98,374.37 281.92,370.12 299.92,359.32 317.28,347.5 336.38,332.98 357.08,315.65 377,297.42 393.87,280.35 401.72,271.28 406.91,263.94 409.4,258.5 409.83,255.54 409.17,252.63 407.39,250.24 404.99,248.45 399.53,245.99 390.81,243.79 384.87,242.97 378.89,242.58" fill="none" stroke="#000000" stroke-width="1"/><polyline id="SvgjsPolyline1815" points="322.04,1.9 262.08,60.73 234.66,88.47 210.14,114.81 198.35,128.42 188.89,140.06 179.83,152.01 171.29,164.34 163.4,177.1 157.65,187.63 152.51,198.47 148.08,209.62 145.29,218.17 142.38,229.81 140.87,238.68 140.2,244.64 139.71,256.63 140.4,268.61 141.19,274.55 142.93,283.38 146.27,294.9 150.73,306.04 153.37,311.43 157.82,319.25 164.65,329.1 172.49,338.18 181.33,346.29 191.12,353.21 196.35,356.16 201.77,358.72 210.22,361.8 216.02,363.32 221.92,364.4 227.89,365.06 233.88,365.31 245.86,364.67" fill="none" stroke="#000000" stroke-width="1"/><polyline id="SvgjsPolyline1816" points="289.94,0.1 219.04,77.54 203.11,95.5 187.58,113.8 174.49,130.22 163.79,144.69 153.75,159.63 144.57,175.1 136.49,191.19 130.83,205.07 126.35,219.38 123.24,234.05 121.67,248.96 121.53,257.96 121.77,263.95 122.63,272.91 123.55,278.84 125.42,287.64 127,293.43 129.83,301.97 134.46,313.04 140.02,323.67 144.79,331.3 150.06,338.59 157.88,347.69 166.59,355.93 173.72,361.42 181.33,366.22 189.39,370.21 197.83,373.32 206.56,375.49 215.47,376.71 224.46,377 233.44,376.45 245.29,374.56 254.03,372.41 265.44,368.7 273.81,365.41 284.73,360.44 295.38,354.91 305.77,348.9 315.9,342.47 325.8,335.69 337.85,326.77 351.9,315.52 363.29,305.75 376.54,293.57 387.15,282.97 395.18,274.05 400.65,266.91 403.67,261.73 404.77,258.94 405.29,256 404.86,253.05 403.3,250.51 401.03,248.56 398.41,247.1 395.64,245.97 389.86,244.36 380.96,243.11 371.96,242.99 363.03,244.05" fill="none" stroke="#000000" stroke-width="1"/><polyline id="SvgjsPolyline1817" points="347.43,1.71 285.11,58.04 265.37,76.45 248.1,93.12 233.31,108.03 218.96,123.36 207.13,136.93 195.87,150.97 185.37,165.58 177.36,178.26 170.2,191.44 164.12,205.15 159.33,219.36 156.61,231.04 155,242.93 154.61,254.91 155.5,266.88 157.01,275.74 159.25,284.46 162.2,292.96 165.85,301.18 171.76,311.62 176.96,318.96 182.8,325.81 189.26,332.07 196.31,337.66 203.9,342.47 211.99,346.42 220.47,349.43 226.28,350.89 235.17,352.28 244.16,352.73 253.15,352.5 262.1,351.55 270.94,349.86 282.49,346.64 293.75,342.48 304.68,337.55 315.3,331.96 325.6,325.81 338.07,317.47 352.46,306.66 366.24,295.09 377.21,284.85 387.45,273.9 392.9,266.75 395.85,261.53 396.87,258.71 397.31,255.75 396.81,252.81 395.24,250.27 392.96,248.34 390.33,246.91 387.53,245.84 381.69,244.47 372.73,243.78 366.74,244.09 360.82,245.04 355.06,246.7 352.28,247.84 347.18,250.96 345.09,253.11 344.1,255.86 346.1,257.76 349.03,257.38 351.01,255.49" fill="none" stroke="#000000" stroke-width="1"/><polyline id="SvgjsPolyline1818" points="450.27,0.48 439.12,10.51 429.95,18.25 420.58,25.74 406.18,36.54 386.5,50.28 329.04,88.48 314.32,98.83 299.84,109.53 285.69,120.65 271.91,132.24 260.79,142.3 250.06,152.77 237.82,165.97 226.49,179.95 217.94,192.27 210.44,205.25 204.27,218.92 200.53,230.32 198.55,239.09 197.67,245.03 197.05,257 197.66,265.98 198.6,271.9 200.83,280.62 202.85,286.26 206.7,294.4 209.79,299.54 215.18,306.74 219.25,311.14 223.68,315.18 228.45,318.82 233.53,322.02 241.62,325.93 247.28,327.93 256.03,329.99 261.98,330.75 270.98,331.02 276.96,330.67 285.87,329.43 294.64,327.42 303.24,324.74 311.62,321.49 319.8,317.72 327.76,313.53 338.04,307.35 347.96,300.6 357.52,293.34 366.67,285.59 375.32,277.27 381.3,270.54 386.37,263.12 387.63,260.41 388.47,257.53 388.58,254.54 387.61,251.72 385.66,249.47 383.15,247.84 377.48,245.92 374.52,245.43 368.54,245.12 359.61,246.14 353.86,247.86 348.55,250.61 346.26,252.55 344.74,255.09" fill="none" stroke="#000000" stroke-width="1"/><polyline id="SvgjsPolyline1819" points="572.26,0.97 560.92,14.95 549.25,28.65 537.17,41.99 524.64,54.92 511.65,67.37 500.44,77.34 486.53,88.76 474.55,97.78 462.22,106.32 452.12,112.8 431.34,124.81 409.96,135.71 361.1,158.69 339.85,169.85 329.55,175.99 322.01,180.92 312.29,187.95 305.3,193.62 296.47,201.74 288.35,210.57 281.15,220.16 276.54,227.89 272.81,236.07 270.2,244.68 268.98,253.58 269.11,259.58 270.09,265.49 270.92,268.37 273.29,273.88 276.57,278.89 278.54,281.16 283.03,285.12 288.14,288.25 293.7,290.5 296.59,291.3 302.5,292.29 311.49,292.39 320.39,291.07 329.04,288.61 337.37,285.22 347.91,279.5 357.66,272.52 364.21,266.35 367.85,261.59 369.2,258.92 369.88,256.01 369.28,253.11 367.22,250.98 364.46,249.83 361.5,249.38 358.51,249.42 352.67,250.72 349.95,251.99 347.59,253.82" fill="none" stroke="#000000" stroke-width="1"/><polyline id="SvgjsPolyline1820" points="0.52,599.93 12.51,599.69 27.48,598.77 39.42,597.57 54.28,595.49 66.09,593.38 80.75,590.2 95.26,586.42 109.62,582.07 123.78,577.13 134.96,572.77 148.71,566.79 159.52,561.58 172.77,554.55 183.13,548.5 195.76,540.4 205.57,533.49 219.76,522.42 233.28,510.55 246.11,497.92 258.27,484.65 267.93,473.18 279.09,459.06 316.73,408.53 336.98,382.48 356.14,359.4 380.07,332.51 402.91,308.69 413.65,298.22 422.49,290.11 429.35,284.28 436.51,278.84 441.56,275.59 446.91,272.89 452.63,271.11 458.6,270.61 461.59,270.86 467.45,272.1 475.93,275.11 484.13,278.8 494.84,284.21 539.59,308.68 558.27,318.28 569.14,323.36 580.2,328 588.65,331.11 597.23,333.82" fill="none" stroke="#000000" stroke-width="1"/><polyline id="SvgjsPolyline1821" points="329.18,597.91 341.4,584.69 354.96,568.66 365.95,554.4 377.99,537.2 389.19,519.44 399.61,501.21 409.39,482.63 430.98,439.76 438.1,426.55 445.69,413.62 453.94,401.09 461.14,391.49 468.96,382.39 477.48,373.95 484.37,368.17 489.22,364.63 499.5,358.46 510.51,353.71 516.23,351.91 525.01,349.94 536.93,348.59 551.92,348.53 563.9,349.32 599.75,352.52" fill="none" stroke="#000000" stroke-width="1"/><polyline id="SvgjsPolyline1822" points="1.21,414.25 8.55,427.33 18.35,442.42 25.69,451.92 33.81,460.74 42.79,468.69 52.62,475.57 63.2,481.21 74.39,485.52 86.01,488.51 97.88,490.22 109.86,490.73 124.83,489.84 139.63,487.42 154.15,483.66 168.3,478.71 182.05,472.73 192.74,467.28 205.73,459.77 215.82,453.29 228.12,444.7 240.1,435.67 251.82,426.32 265.65,414.79 286.04,397.1 310.61,375.07 337.01,350.59 363.03,325.71 390.85,298.38 409.77,279.12 419.95,268.1 425.56,261.07 427.09,258.49 427.87,255.63 426.65,252.98 424.2,251.28 418.67,248.96 412.95,247.14 404.23,244.93 395.39,243.28 386.45,242.26 380.45,241.98 374.46,242.07 368.48,242.59 362.57,243.59 356.78,245.18 351.25,247.5 348.66,249 346.28,250.82 344.28,253.05" fill="none" stroke="#000000" stroke-width="1"/><polyline id="SvgjsPolyline1823" points="599.09,206.59 591.91,219.75 587.33,230.84 585.55,236.56 584.17,242.4 583.25,248.33 582.84,254.31 583.01,260.31 583.77,266.26 586.07,274.95 588.34,280.5 591.17,285.79 594.49,290.78 598.26,295.45" fill="none" stroke="#000000" stroke-width="1"/><polyline id="SvgjsPolyline1824" points="599.83,4.29 582.66,25.13 568.92,41.01 554.74,56.5 540.1,71.55 527.14,84.04 511.51,98.07 497.66,109.56 483.35,120.48 473.56,127.41 461.02,135.64 440.29,147.73 426.96,154.61 413.41,161.04 369.4,180.21 353.14,187.92 342.56,193.58 334.84,198.2 327.35,203.19 320.18,208.62 313.39,214.53 307.11,220.97 301.49,227.99 298.21,233.02 295.42,238.32 293.21,243.9 291.76,249.72 291.23,255.69 291.84,261.64 293.75,267.32 297,272.34 299.09,274.49 301.43,276.36 306.71,279.18 312.47,280.81 318.44,281.37 324.43,281.02 333.22,279.13 338.87,277.13 346.96,273.21 354.46,268.24 358.96,264.28 362.65,259.57 363.75,256.79 363.48,253.86 361.33,251.86 358.44,251.12 355.45,251.17 352.52,251.82 349.79,253.05 347.67,255.11" fill="none" stroke="#000000" stroke-width="1"/><polyline id="SvgjsPolyline1825" points="100.06,1.61 47.24,92.35 35.48,113.27 28.42,126.51 19.07,145.31 11.74,161.75 5.24,178.53 0.6,192.79" fill="none" stroke="#000000" stroke-width="1"/><polyline id="SvgjsPolyline1826" points="0.82,325.91 6.36,343.04 12.75,359.87 21.17,379.1 29.25,395.18 38.26,410.76 46.66,423.19 56.07,434.86 64.46,443.44 73.7,451.08 83.78,457.57 94.62,462.7 106.04,466.36 117.83,468.53 129.8,469.3 141.79,468.77 153.66,467.09 168.24,463.58 182.43,458.74 198.9,451.48 214.76,442.97 230.06,433.5 249.76,419.8 271.22,403.41 294.47,384.45 326.2,356.94 357.09,328.49 389.4,297.16 404.11,282.18 412.28,273.39 418.14,266.56 421.67,261.71 423.13,259.09 424,256.24 423.4,253.36 421.3,251.25 415.94,248.58" fill="none" stroke="#000000" stroke-width="1"/><polyline id="SvgjsPolyline1827" points="262.24,1.74 194.25,81.76 179,100.29 166.01,116.79 153.53,133.67 143.39,148.54 133.96,163.87 125.45,179.73 118.13,196.17 113.14,210.31 109.36,224.82 106.96,239.62 106.07,254.59 106.75,269.57 108.99,284.39 112.74,298.91 116.77,310.21 120.36,318.46 125.87,329.12 132.19,339.32 139.31,348.97 145.19,355.78 153.77,364.17 160.76,369.83 168.22,374.86 176.14,379.13 184.45,382.56 193.09,385.06 201.95,386.62 210.93,387.24 219.92,386.99 231.82,385.45 243.5,382.74 254.93,379.08 266.07,374.64 276.95,369.57 287.57,363.99 300.5,356.39 313.07,348.21 325.31,339.53 339.58,328.57 355.74,315.15 371.38,301.15 386.44,286.52 396.63,275.51 403.98,266.03 406.9,260.8 407.86,257.96 408.12,254.99 407.25,252.14 405.36,249.83 402.91,248.11 400.22,246.78 394.53,244.89 388.66,243.66 382.71,242.94 376.71,242.67 370.72,242.88 364.76,243.59 356.04,245.78 350.56,248.19 348.01,249.77 345.72,251.71 343.98,254.13" fill="none" stroke="#000000" stroke-width="1"/><polyline id="SvgjsPolyline1828" points="366.86,0.85 296.1,61.2 275.87,79.08 260.38,93.26 243.06,109.87 230.43,122.69 218.2,135.91 206.52,149.59 195.53,163.85 187.05,176.22 179.37,189.1 172.67,202.51 167.18,216.47 163.85,227.99 161.59,239.77 160.53,251.72 160.76,263.71 161.81,272.65 163.61,281.46 166.16,290.09 170.69,301.2 174.92,309.14 179.84,316.67 185.42,323.73 191.65,330.22 198.5,336.05 205.93,341.12 213.88,345.33 219.42,347.62 228.03,350.22 236.88,351.83 245.86,352.46 254.85,352.19 266.74,350.58 275.5,348.56 286.95,344.97 298.09,340.5 308.9,335.31 319.4,329.49 329.58,323.15 344.33,312.83 356.15,303.6 369.77,291.84 380.54,281.4 388.55,272.47 393.82,265.18 396.45,259.8 397.15,256.89 397.05,253.91 395.88,251.17 393.81,249.01 391.28,247.4 388.53,246.21 385.67,245.32 379.78,244.21 373.8,243.8 367.8,244 358.94,245.5 353.26,247.42 350.56,248.72 348.02,250.31 345.77,252.29 344.22,254.82 345.12,257.4" fill="none" stroke="#000000" stroke-width="1"/><polyline id="SvgjsPolyline1829" points="431.25,1.45 412.87,16.87 393.82,31.47 376.78,43.74 327.6,78.1 298.71,99.59 282.34,112.73 266.41,126.42 253.22,138.67 242.64,149.29 228.61,164.92 217.54,179.11 209.21,191.58 201.92,204.68 195.93,218.42 192.3,229.86 190.37,238.65 189.51,244.58 188.86,256.56 189.39,265.54 190.83,274.42 193.19,283.1 195.27,288.73 199.13,296.85 202.2,302 207.51,309.26 211.5,313.74 218.13,319.82 222.94,323.4 228.04,326.56 236.15,330.45 241.81,332.45 250.55,334.55 256.5,335.35 265.48,335.71 274.46,335.13 283.35,333.73 292.09,331.6 300.66,328.84 309.03,325.54 319.86,320.39 327.75,316.06 337.96,309.75 350.24,301.14 359.67,293.73 368.73,285.86 377.31,277.47 383.24,270.71 388.3,263.28 389.58,260.56 390.43,257.69 390.59,254.71 389.7,251.86 387.81,249.55 385.34,247.86 379.72,245.82 376.77,245.25 370.8,244.77 361.84,245.48 356.01,246.91 353.2,247.94 347.97,250.85 345.78,252.89 344.53,255.55" fill="none" stroke="#000000" stroke-width="1"/><polyline id="SvgjsPolyline1830" points="589.09,0.42 573.95,19.03 560.24,34.94 546.04,50.41 533.43,63.26 520.4,75.67 506.91,87.59 495.31,97.1 480.96,107.95 468.62,116.48 455.98,124.56 445.67,130.7 432.52,137.92 411.01,148.57 361.84,170.89 343.16,180.47 327.76,189.78 320.38,194.93 313.28,200.45 306.51,206.38 298.17,215 292.55,222.03 287.67,229.58 283.72,237.67 281.76,243.33 280.08,252.16 280.01,258.15 280.93,264.08 282.92,269.72 286.02,274.85 290.12,279.21 295.04,282.63 300.53,285.04 306.35,286.46 312.32,286.98 315.32,286.93 321.29,286.31 330.04,284.25 338.45,281.07 346.46,276.98 353.98,272.04 360.81,266.19 364.66,261.6 366.12,258.98 366.9,256.1 366.28,253.22 364.06,251.26 361.21,250.36 358.22,250.18 355.25,250.52 352.36,251.33 349.66,252.63 347.45,254.62" fill="none" stroke="#000000" stroke-width="1"/><polyline id="SvgjsPolyline1831" points="344.17,599.5 358.15,583.83 369.59,569.93 380.48,555.61 392.48,538.37 403.71,520.63 414.23,502.45 443.58,446.72 450.85,433.59 457,423.29 465.28,410.78 472.5,401.2 480.37,392.14 486.74,385.8 493.56,379.92 498.36,376.32 508.55,370 519.45,365.01 530.91,361.47 542.71,359.29 554.66,358.23 566.65,357.95 599.65,358.34" fill="none" stroke="#000000" stroke-width="1"/><polyline id="SvgjsPolyline1832" points="0.04,384.52 7.73,400.79 16.2,416.68 24,429.48 32.75,441.67 40.56,450.77 49.21,459.08 58.72,466.38 69.04,472.49 80.05,477.26 91.56,480.63 103.38,482.65 115.35,483.38 127.34,482.93 142.19,480.89 156.77,477.39 170.99,472.63 184.8,466.79 195.54,461.43 208.58,454.03 221.23,445.97 233.53,437.39 247.92,426.57 264.31,413.44 280.4,399.95 305.29,378.28 331.95,354.09 358.15,329.4 386.09,302.19 407.16,280.84 419.32,267.57 424.74,260.4 426.08,257.72 426.39,254.78 424.75,252.34 422.23,250.73 416.68,248.44 410.95,246.66 402.21,244.54 393.34,243.01 384.39,242.14 378.39,241.98 372.4,242.21 366.43,242.88 360.56,244.07 354.84,245.89 349.45,248.51 346.99,250.22 344.84,252.31 343.43,254.92" fill="none" stroke="#000000" stroke-width="1"/><polyline id="SvgjsPolyline1833" points="599.57,232.29 597.86,238.04 596.57,243.9 595.77,249.84 595.5,255.84 595.82,261.83 596.75,267.75 599.33,276.36" fill="none" stroke="#000000" stroke-width="1"/><polyline id="SvgjsPolyline1834" points="86.67,0.88 36.38,89.62 24.81,110.64 11.15,137.36 6.08,148.23 0.17,162.01" fill="none" stroke="#000000" stroke-width="1"/><polyline id="SvgjsPolyline1835" points="0.48,361.51 7.36,378.15 14.95,394.46 23.37,410.37 31.16,423.18 39.87,435.39 47.63,444.54 56.21,452.93 65.65,460.33 75.91,466.53 86.88,471.37 98.38,474.79 110.2,476.79 122.18,477.45 134.16,476.9 146.04,475.26 160.64,471.84 169.23,469.15 177.67,466.03 188.69,461.28 196.77,457.32 207.31,451.58 217.59,445.4 237.48,431.97 261.37,413.83 291.43,388.98 325.21,359.25 355.97,330.66 383.99,303.53 407.17,280.04 419.21,266.67 422.82,261.89 424.36,259.31 425.36,256.49 424.88,253.6 422.77,251.5 420.16,250.04 414.57,247.86 408.82,246.15 400.05,244.14" fill="none" stroke="#000000" stroke-width="1"/><polyline id="SvgjsPolyline1836" points="386.26,0.33 365.43,17.52 304.66,66.41 286.28,81.85 270.46,95.65 252.79,111.89 237.8,126.59 223.41,141.89 211.71,155.56 200.78,169.87 190.87,184.88 183.6,198 177.48,211.69 175.41,217.32 172.78,225.93 171.35,231.75 169.77,240.61 168.75,252.56 168.87,261.56 169.39,267.53 170.83,276.42 173.06,285.13 176.08,293.61 179.87,301.77 184.4,309.54 189.65,316.84 195.6,323.59 202.22,329.68 209.47,335.01 217.27,339.48 222.75,341.94 231.28,344.79 240.08,346.62 246.05,347.28 255.04,347.48 264.01,346.81 275.82,344.72 281.63,343.23 290.21,340.51 304.11,334.87 312.19,330.92 320.09,326.61 335.35,317.08 352.31,304.7 368.38,291.18 381.26,278.61 389.03,269.48 392.37,264.5 393.77,261.84 394.84,259.05 395.36,256.1 394.99,253.14 393.54,250.53 391.32,248.53 388.71,247.07 385.91,245.99 380.07,244.63 374.1,244.08 368.1,244.18 359.22,245.57" fill="none" stroke="#000000" stroke-width="1"/><polyline id="SvgjsPolyline1837" points="414.45,0.08 400.62,11.6 384.1,24.57 319.04,72.82 288.39,96.93 272.35,110.48 254.56,126.59 241.72,139.2 229.42,152.34 217.84,166.12 207.19,180.62 202.3,188.18 197.76,195.95 191.12,209.39 187.78,217.75 185.87,223.44 184.23,229.21 182.34,238 181.47,243.94 180.82,252.91 181.23,264.9 182,270.85 183.87,279.65 186.61,288.21 190.2,296.46 194.62,304.3 199.84,311.63 205.82,318.35 210.21,322.43 214.91,326.16 222.48,331.02 230.58,334.92 236.23,336.94 242.03,338.49 250.9,339.95 259.89,340.39 268.87,339.92 277.77,338.62 286.54,336.6 295.14,333.96 303.56,330.77 311.78,327.11 319.8,323.02 330.18,317.02 337.75,312.15 347.57,305.25 357.06,297.91 366.23,290.17 374.99,281.97 381.21,275.47 386.9,268.5 390.14,263.46 391.43,260.75 392.32,257.89 392.54,254.91 391.73,252.04 389.91,249.67 387.48,247.93 384.76,246.66 378.97,245.12 373.01,244.5 364.03,244.92 355.28,246.98 349.83,249.46" fill="none" stroke="#000000" stroke-width="1"/><polyline id="SvgjsPolyline1838" points="361.22,598.58 373.03,585 384.39,571.04 397.02,554.27 407.3,539.49 417.08,524.38 427.89,506.38 455.47,456.49 467.6,435.79 474.15,425.73 481.18,416.01 488.81,406.75 494.98,400.2 503.88,392.16 513.57,385.1 524.02,379.21 535.1,374.63 546.63,371.31 558.42,369.09 573.32,367.39 597.25,365.61" fill="none" stroke="#000000" stroke-width="1"/><polyline id="SvgjsPolyline1839" points="73.27,0.31 19.68,97.52 8.5,118.75 0.55,134.9" fill="none" stroke="#000000" stroke-width="1"/><polyline id="SvgjsPolyline1840" points="376.23,599.71 387.98,586.08 399.33,572.11 410.25,557.8 420.74,543.17 430.78,528.24 440.42,513.03 470.96,461.39 482.13,443.61 488.97,433.75 494.42,426.59 500.18,419.68 506.31,413.09 515.13,404.95 524.7,397.72 532.35,392.99 543.11,387.7 554.36,383.52 565.92,380.32 580.6,377.25 598.34,374.18" fill="none" stroke="#000000" stroke-width="1"/><polyline id="SvgjsPolyline1841" points="58.44,2.52 11.51,89.69 0.39,110.96" fill="none" stroke="#000000" stroke-width="1"/><polyline id="SvgjsPolyline1842" points="393.23,598.45 404.93,584.77 416.29,570.81 434.41,546.9 453.19,519.77 482.29,474.28 493.91,456.79 506.43,439.93 512.22,433.05 518.34,426.45 527.07,418.22 534.06,412.56 541.44,407.4 551.81,401.37 559.91,397.47 571.05,393.01 582.44,389.21 599.72,384.18" fill="none" stroke="#000000" stroke-width="1"/><polyline id="SvgjsPolyline1843" points="45.03,2.24 0.39,87.23" fill="none" stroke="#000000" stroke-width="1"/><polyline id="SvgjsPolyline1844" points="408.24,599.44 427.73,576.64 446.44,553.19 467.86,524.25 505.84,470.28 516.83,456.03 528.66,442.46 534.98,436.06 543.9,428.04 550.97,422.47 558.35,417.32 566.01,412.59 576.57,406.91 584.69,403.03 598.46,397.07" fill="none" stroke="#000000" stroke-width="1"/><polyline id="SvgjsPolyline1845" points="31.62,2.09 0.2,63.52" fill="none" stroke="#000000" stroke-width="1"/><polyline id="SvgjsPolyline1846" points="425.23,598.22 443.01,577.91 460.33,557.19 480.89,531.39 517.56,483.89 528.97,469.98 538.93,458.76 551.61,445.99 565.25,434.25 579.81,423.68 597.68,412.66" fill="none" stroke="#000000" stroke-width="1"/><polyline id="SvgjsPolyline1847" points="18.21,2.07 0.9,37.02" fill="none" stroke="#000000" stroke-width="1"/><polyline id="SvgjsPolyline1848" points="440.2,599.43 474.26,561.47 528.76,497.56 548.75,475.19 561.31,462.3 572.22,452 583.56,442.19 597.69,431.03" fill="none" stroke="#000000" stroke-width="1"/><polyline id="SvgjsPolyline1849" points="4.8,2.18 0.91,10.3" fill="none" stroke="#000000" stroke-width="1"/><polyline id="SvgjsPolyline1850" points="457.18,598.66 486.06,568.17 555.64,493.58 578.83,470.11 598.46,451.57" fill="none" stroke="#000000" stroke-width="1"/><polyline id="SvgjsPolyline1851" points="474.16,598.25 599.54,473.31" fill="none" stroke="#000000" stroke-width="1"/><polyline id="SvgjsPolyline1852" points="491.13,598.28 565.78,528.77 598.07,497.44" fill="none" stroke="#000000" stroke-width="1"/><polyline id="SvgjsPolyline1853" points="508.08,598.82 573.47,541.44 599.83,516.92" fill="none" stroke="#000000" stroke-width="1"/><polyline id="SvgjsPolyline1854" points="525,599.87 571.14,561.52 598.28,537.87" fill="none" stroke="#000000" stroke-width="1"/><polyline id="SvgjsPolyline1855" points="544.19,599.5 574.7,575.21 597.79,556.06" fill="none" stroke="#000000" stroke-width="1"/><polyline id="SvgjsPolyline1856" points="563.39,599.57 598.78,571.77" fill="none" stroke="#000000" stroke-width="1"/><polyline id="SvgjsPolyline1857" points="582.62,599.91 599.26,587.09" fill="none" stroke="#000000" stroke-width="1"/></g></svg>