<?xml version="1.0" standalone="no"?>
<svg id="SvgjsSvg1001" width="600" height="600" xmlns="http://www.w3.org/2000/svg" version="1.1" xmlns:xlink="http://www.w3.org/1999/xlink" xmlns:svgjs="http://svgjs.com/svgjs" class="svg-paper" viewBox="0 0 600 600"><title id="SvgjsTitle16590">x=y*sqrt(x*x + y*y)|y=y|dTest=0.0|sd=0.1|sm=0.1|ts=0.1 | generated with FlowLines</title><g id="SvgjsG16591"><polyline id="SvgjsPolyline16592" points="597.69,339.18 578.3,343.22 555.76,348.27 536.52,352.92 520.54,357.05 501.46,362.34 485.65,367.06 469.93,372.07 454.31,377.39 445,380.73 429.56,386.57 405.12,396.53 380.93,407.12 323.83,433.01 308.69,439.58 290.4,447.16 275.04,453.19 256.47,460.06 234.63,467.56 215.76,473.57 190.43,481.01 168.13,487.02 142.51,493.39 116.77,499.27 90.94,504.72 58.54,511.01 29.31,516.22 0,521.08" fill="none" stroke="#000000" stroke-width="1"/><polyline id="SvgjsPolyline16593" points="598.86,345.06 576.24,349.72 560.12,353.26 540.84,357.77 521.64,362.6 502.53,367.77 483.52,373.32 467.78,378.26 452.13,383.5 439.69,387.91 427.32,392.52 415.02,397.31 399.75,403.54 378.51,412.63 324.17,436.63 305.95,444.36 287.59,451.79 269.1,458.86 247.34,466.63 228.55,472.87 209.64,478.73 184.26,486 161.93,491.89 139.49,497.38 116.97,502.51 91.14,507.97 58.74,514.27 32.76,518.94 0.21,524.37" fill="none" stroke="#000000" stroke-width="1"/><polyline id="SvgjsPolyline16594" points="599.75,332.64 580.35,336.63 557.8,341.61 538.54,346.2 516.17,351.97 497.11,357.33 481.31,362.1 465.62,367.19 450.03,372.61 437.65,377.19 425.36,381.99 416.19,385.73 401.02,392.22 376.98,403.12 320.25,429.82 302.16,437.89 286.98,444.34 268.6,451.7 250.05,458.64 228.22,466.19 209.36,472.22 187.21,478.77 164.93,484.85 142.53,490.5 113.6,497.2 87.77,502.69 61.87,507.79 29.4,513.69 0.11,518.6" fill="none" stroke="#000000" stroke-width="1"/><polyline id="SvgjsPolyline16595" points="596.81,351.59 574.19,356.26 558.07,359.81 538.79,364.33 519.59,369.16 503.66,373.44 484.63,378.92 468.86,383.78 453.19,388.93 428.31,397.77 415.97,402.46 400.64,408.54 379.3,417.4 321.65,442.04 306.39,448.32 287.97,455.59 269.42,462.52 250.75,469.09 228.8,476.29 209.86,482.07 184.46,489.25 162.1,495.08 139.65,500.52 110.67,507 88.05,511.68 55.64,517.89 26.39,523.05 0.34,527.34" fill="none" stroke="#000000" stroke-width="1"/><polyline id="SvgjsPolyline16596" points="598.58,326.76 575.96,331.46 553.42,336.53 537.38,340.4 515.03,346.23 495.99,351.64 480.21,356.48 464.54,361.64 448.99,367.15 436.64,371.82 424.38,376.71 409.19,383.15 397.14,388.54 376.24,398.37 337.71,417.24 319.86,425.81 301.87,434.08 289.78,439.38 271.49,446.97 253.03,454.11 234.39,460.79 212.46,468.05 193.52,473.83 168.11,480.96 142.53,487.52 116.83,493.55 87.8,499.8 61.9,504.94 32.69,510.3 0.15,515.8" fill="none" stroke="#000000" stroke-width="1"/><polyline id="SvgjsPolyline16597" points="597.98,357.48 578.58,361.43 559.23,365.63 543.15,369.34 523.92,374.07 507.96,378.25 488.9,383.59 469.94,389.3 454.24,394.36 429.3,403.03 413.83,408.78 401.53,413.55 377.05,423.44 322.18,446.2 303.79,453.53 285.29,460.59 266.67,467.32 247.93,473.72 225.92,480.74 206.95,486.38 184.69,492.56 162.32,498.33 133.42,505.19 110.86,510.14 81.76,516.07 59.06,520.37 29.82,525.54 0.51,530.36" fill="none" stroke="#000000" stroke-width="1"/><polyline id="SvgjsPolyline16598" points="597.4,320.87 578.01,324.9 555.47,329.95 536.23,334.61 517.07,339.62 498.02,345.02 479.1,350.85 463.46,356.09 447.93,361.68 432.55,367.66 423.4,371.43 411.29,376.67 399.27,382.14 378.46,392.16 334.29,414.52 319.51,421.83 301.61,430.31 286.56,437.06 268.3,444.73 252.94,450.76 234.35,457.55 215.59,463.9 193.54,470.77 171.33,477.12 148.99,483 120.12,489.95 97.56,494.94 65.22,501.52 29.53,508.11 0.24,513.07" fill="none" stroke="#000000" stroke-width="1"/><polyline id="SvgjsPolyline16599" points="599.14,363.36 576.51,367.96 560.38,371.45 537.87,376.65 521.85,380.61 502.71,385.65 486.82,390.11 471.01,394.82 455.28,399.79 433.39,407.19 405.5,417.39 377.84,428.21 319.67,451.6 304.28,457.55 285.72,464.46 267.06,471.06 248.28,477.35 229.4,483.3 210.41,488.92 188.15,495.08 165.78,500.84 140.1,506.97 114.32,512.66 88.46,517.96 62.53,522.91 30.03,528.65 0.72,533.45" fill="none" stroke="#000000" stroke-width="1"/><polyline id="SvgjsPolyline16600" points="599.45,314.33 576.83,319.04 554.3,324.12 535.06,328.81 515.92,333.86 496.88,339.31 481.12,344.2 462.36,350.52 446.87,356.21 434.59,361.04 422.41,366.14 410.35,371.49 398.39,377.09 377.71,387.38 336.81,408.85 319.19,417.89 301.4,426.58 286.41,433.49 271.28,440.05 252.91,447.46 234.36,454.37 212.5,461.83 190.45,468.71 168.24,475.06 145.9,480.93 117.02,487.87 88.01,494.21 62.12,499.41 32.92,504.83 0.39,510.38" fill="none" stroke="#000000" stroke-width="1"/><polyline id="SvgjsPolyline16601" points="597.07,369.89 577.67,373.82 558.31,377.99 539.01,382.42 522.98,386.33 510.2,389.61 491.09,394.81 472.08,400.34 456.32,405.22 434.39,412.47 406.41,422.45 378.65,433 320.24,455.8 301.71,462.76 283.08,469.48 264.36,475.91 242.38,483.02 223.43,488.77 204.39,494.21 182.08,500.18 156.46,506.54 130.73,512.45 108.14,517.28 82.25,522.45 56.3,527.28 27.03,532.36 0.97,536.59" fill="none" stroke="#000000" stroke-width="1"/><polyline id="SvgjsPolyline16602" points="598.27,308.45 572.44,313.88 553.13,318.28 537.1,322.19 514.77,328.09 495.75,333.59 480.01,338.53 464.38,343.83 445.81,350.71 433.56,355.63 421.43,360.82 409.42,366.29 397.53,372.02 385.75,377.99 374.07,384.14 336.41,404.68 321.85,412.44 304.21,421.43 289.33,428.56 271.26,436.65 252.95,444.2 234.44,451.22 212.62,458.8 190.59,465.76 168.4,472.18 142.88,478.92 117.22,485.11 91.44,490.81 59.09,497.35 29.89,502.75 0.61,507.76" fill="none" stroke="#000000" stroke-width="1"/><polyline id="SvgjsPolyline16603" points="598.23,375.77 578.82,379.67 559.45,383.8 540.15,388.19 524.1,392.06 508.11,396.13 489,401.3 460.51,409.68 435.38,417.76 407.33,427.51 382.56,436.64 317.75,461.19 286.69,472.35 267.94,478.7 249.09,484.77 230.15,490.53 207.94,496.88 185.62,502.83 166.41,507.64 140.71,513.65 114.91,519.25 92.27,523.84 63.08,529.36 33.83,534.49 1.26,539.79" fill="none" stroke="#000000" stroke-width="1"/><polyline id="SvgjsPolyline16604" points="597.09,302.57 571.26,308.02 551.96,312.45 529.54,318.03 510.44,323.22 491.45,328.84 472.62,334.96 457.07,340.48 441.68,346.42 429.49,351.49 417.44,356.86 405.51,362.52 393.72,368.46 373.37,379.39 336.04,400.53 321.6,408.51 307.02,416.23 289.29,425.04 271.29,433.3 253.05,440.99 234.58,448.13 215.92,454.76 193.96,461.9 168.63,469.36 143.13,476.16 120.69,481.65 94.93,487.45 65.85,493.46 36.67,498.99 0.9,505.19" fill="none" stroke="#000000" stroke-width="1"/><polyline id="SvgjsPolyline16605" points="599.38,381.66 563.81,388.92 547.7,392.48 528.42,397 509.21,401.8 493.26,406.02 474.2,411.38 461.55,415.13 436.36,423.05 408.24,432.59 383.39,441.5 318.36,465.45 284.09,477.42 262.14,484.62 243.23,490.48 224.23,496.06 205.15,501.35 182.8,507.18 157.14,513.41 131.39,519.21 112.01,523.3 86.12,528.44 63.41,532.67 34.15,537.77 1.58,543.04" fill="none" stroke="#000000" stroke-width="1"/><polyline id="SvgjsPolyline16606" points="579.74,300.02 599.13,296.03" fill="none" stroke="#000000" stroke-width="1"/><polyline id="SvgjsPolyline16607" points="582.87,299.34 560.32,304.35 537.87,309.76 518.71,314.79 499.68,320.23 480.78,326.15 465.17,331.5 452.79,336.07 437.47,342.19 425.35,347.43 416.36,351.56 404.49,357.34 392.78,363.42 375.45,373.01 335.62,396.42 321.31,404.63 306.84,412.55 292.17,420.11 274.31,428.65 256.17,436.58 237.78,443.94 219.19,450.75 197.29,458.07 172.01,465.7 146.54,472.65 124.13,478.24 95.18,484.85 66.1,490.89 33.68,497.04 1.16,502.68" fill="none" stroke="#000000" stroke-width="1"/><polyline id="SvgjsPolyline16608" points="597.29,388.18 574.64,392.71 555.27,396.84 523.12,404.28 491.16,412.49 475.26,416.9 459.42,421.53 434.21,429.36 409.16,437.68 384.23,446.38 322.11,468.66 303.41,475.16 284.64,481.47 262.64,488.53 243.7,494.3 224.68,499.79 205.58,505.01 183.21,510.77 157.54,516.93 131.77,522.67 109.16,527.39 83.25,532.45 57.28,537.19 28,542.19 1.93,546.35" fill="none" stroke="#000000" stroke-width="1"/><polyline id="SvgjsPolyline16609" points="549.51,300.66 572.03,295.54 597.87,290.12" fill="none" stroke="#000000" stroke-width="1"/><polyline id="SvgjsPolyline16610" points="552.45,299.98 533.24,304.76 517.3,309.01 501.43,313.55 485.67,318.42 466.91,324.76 454.53,329.32 439.2,335.44 427.09,340.69 418.11,344.84 406.26,350.67 397.49,355.26 385.93,361.63 368.86,371.66 337.93,390.66 323.78,399.15 306.58,408.95 292.01,416.7 277.22,424.01 259.19,432.2 240.9,439.77 222.38,446.77 200.53,454.28 175.32,462.09 149.89,469.18 124.29,475.66 95.35,482.31 66.28,488.39 37.11,493.98 1.35,500.23" fill="none" stroke="#000000" stroke-width="1"/><polyline id="SvgjsPolyline16611" points="598.43,394.07 562.85,401.26 546.73,404.78 527.43,409.23 511.4,413.14 492.23,418.09 476.31,422.43 460.45,426.97 435.19,434.65 406.95,443.83 381.96,452.36 319.65,474.1 282.07,486.58 260.01,493.46 237.86,500 218.79,505.32 202.84,509.56 177.23,515.97 154.74,521.24 128.95,526.88 109.56,530.87 80.4,536.5 57.66,540.61 31.64,545.04 2.31,549.72" fill="none" stroke="#000000" stroke-width="1"/><polyline id="SvgjsPolyline16612" points="525.69,300.43 541.69,296.38 560.95,291.8 577.05,288.21 599.67,283.51" fill="none" stroke="#000000" stroke-width="1"/><polyline id="SvgjsPolyline16613" points="528.46,299.75 512.55,304.11 496.71,308.76 484.12,312.72 468.5,318.02 456.1,322.57 443.83,327.41 431.68,332.59 419.69,338.1 410.81,342.47 402.02,347.03 393.34,351.79 384.76,356.73 367.86,367.04 326.11,393.64 311.97,402.14 297.6,410.24 282.98,417.9 265.13,426.47 246.98,434.38 228.58,441.67 206.84,449.48 197.45,452.61 181.71,457.57 156.35,464.9 130.81,471.57 101.9,478.41 72.87,484.65 40.48,490.97 1.48,497.86" fill="none" stroke="#000000" stroke-width="1"/><polyline id="SvgjsPolyline16614" points="599.56,399.96 563.96,407.08 547.83,410.56 528.53,414.96 496.49,422.86 464.64,431.51 433.01,440.92 404.72,449.95 317.18,479.53 279.5,491.69 260.56,497.46 241.55,502.99 222.46,508.28 203.32,513.31 184.11,518.11 155.18,524.86 135.84,529.09 109.98,534.41 80.81,540 58.08,544.08 28.79,549.02 2.71,553.14" fill="none" stroke="#000000" stroke-width="1"/><polyline id="SvgjsPolyline16615" points="501.89,300.82 527.34,293.79 549.74,288.15 572.26,282.98 598.09,277.56" fill="none" stroke="#000000" stroke-width="1"/><polyline id="SvgjsPolyline16616" points="507.6,299.19 482.38,307.02 469.89,311.27 457.49,315.8 445.21,320.64 436.09,324.48 424.06,329.91 415.15,334.23 406.35,338.76 397.66,343.5 389.08,348.45 380.61,353.58 366.71,362.47 336.54,382.66 325.5,389.88 311.5,398.62 300.12,405.3 285.65,413.23 267.94,422.08 249.9,430.24 231.57,437.74 222.32,441.27 209.91,445.75 197.41,450 184.84,454.03 162.7,460.62 149.98,464.14 134.02,468.32 118,472.27 101.93,476.01 72.9,482.28 40.52,488.63 1.52,495.54" fill="none" stroke="#000000" stroke-width="1"/><polyline id="SvgjsPolyline16617" points="597.45,406.47 565.08,412.91 529.62,420.69 497.56,428.48 481.59,432.64 462.5,437.88 440.31,444.31 411.92,453.04 389.93,460.12 314.73,484.95 280.1,495.85 261.13,501.51 238.91,507.84 222.99,512.16 203.82,517.13 181.39,522.63 155.66,528.54 133.08,533.41 107.2,538.64 81.26,543.55 55.27,548.17 29.23,552.52 3.15,556.62" fill="none" stroke="#000000" stroke-width="1"/><polyline id="SvgjsPolyline16618" points="481.27,300.92 493.86,296.96 509.69,292.28 535.17,285.41 547.99,282.23 567.27,277.75 599.56,270.94" fill="none" stroke="#000000" stroke-width="1"/><polyline id="SvgjsPolyline16619" points="486.7,299.2 464.86,306.73 455.59,310.2 443.33,315.11 434.24,319.01 425.23,323.12 416.33,327.45 407.54,332.01 393.16,340.1 384.7,345.25 376.37,350.58 365.41,357.94 338.39,376.89 324.78,386.21 310.93,395.19 299.65,402.04 291.06,406.96 282.37,411.7 267.66,419.17 252.7,426.13 234.46,433.85 225.25,437.47 212.88,442.07 200.41,446.42 187.88,450.54 162.61,458.19 146.71,462.6 133.94,465.94 121.13,469.14 101.86,473.68 72.84,479.98 40.46,486.36 1.47,493.29" fill="none" stroke="#000000" stroke-width="1"/><polyline id="SvgjsPolyline16620" points="598.57,412.37 562.95,419.41 530.71,426.43 498.62,434.1 466.69,442.46 438.12,450.57 412.85,458.19 384.52,467.12 318.56,488.38 280.72,500.05 261.72,505.62 242.66,510.97 220.34,516.93 201.14,521.79 181.9,526.43 156.15,532.28 130.33,537.76 104.44,542.91 78.48,547.75 52.48,552.3 29.69,556.07 0.34,560.65" fill="none" stroke="#000000" stroke-width="1"/><polyline id="SvgjsPolyline16621" points="463.78,300.59 476.25,296.26 495.1,290.19 510.92,285.52 526.84,281.17 546.03,276.31 562.1,272.54 581.44,268.29 597.6,264.97" fill="none" stroke="#000000" stroke-width="1"/><polyline id="SvgjsPolyline16622" points="465.81,299.9 453.47,304.6 444.29,308.3 429.18,314.92 414.35,322.15 399.86,330.04 388.54,336.83 374.74,345.88 361.27,355.4 337.36,373.03 326.65,380.74 313.03,390.05 301.9,397.15 287.7,405.54 279.02,410.31 270.24,414.87 252.38,423.43 237.25,430 225,434.92 215.74,438.43 203.32,442.89 190.81,447.11 175.08,452.08 162.42,455.83 149.72,459.41 133.77,463.64 114.55,468.41 101.7,471.42 82.37,475.7 66.22,479.08 37.07,484.76 1.33,491.11" fill="none" stroke="#000000" stroke-width="1"/><polyline id="SvgjsPolyline16623" points="599.67,418.27 564.05,425.23 528.57,432.89 496.46,440.52 464.52,448.81 435.92,456.81 407.45,465.27 319.27,492.87 278.19,505.23 255.97,511.55 240.05,515.89 217.7,521.72 198.48,526.48 175.99,531.76 153.44,536.76 130.83,541.5 101.69,547.22 72.47,552.56 49.7,556.47 23.65,560.71 0.82,564.23" fill="none" stroke="#000000" stroke-width="1"/><polyline id="SvgjsPolyline16624" points="446.31,300.84 458.62,296.09 477.27,289.45 492.97,284.37 511.96,278.76 534.27,272.79 553.51,268.09 572.82,263.72 598.67,258.34" fill="none" stroke="#000000" stroke-width="1"/><polyline id="SvgjsPolyline16625" points="451.06,298.91 435.88,305.37 423.9,310.9 409.21,318.41 397.73,324.93 386.52,331.91 372.91,341.22 359.66,351.06 336.19,369.26 325.65,377.2 312.21,386.77 301.2,394.05 287.1,402.63 278.48,407.49 269.74,412.14 254.94,419.43 245.94,423.55 236.85,427.48 227.69,431.25 215.39,436.01 202.98,440.51 190.48,444.77 181.06,447.82 165.28,452.63 149.41,457.16 136.67,460.58 123.88,463.85 104.63,468.48 88.53,472.13 72.4,475.58 49.76,480.15 33.55,483.23 1.05,488.99" fill="none" stroke="#000000" stroke-width="1"/><polyline id="SvgjsPolyline16626" points="597.54,424.77 561.91,431.72 526.42,439.35 494.3,446.93 462.34,455.13 440.06,461.24 411.53,469.48 383.09,478.04 319.99,497.4 282.01,508.61 243.84,519.15 224.68,524.12 205.46,528.89 182.97,534.19 157.2,539.91 131.36,545.29 105.45,550.35 85.98,553.95 56.72,559.06 27.41,563.85 1.32,567.86" fill="none" stroke="#000000" stroke-width="1"/><polyline id="SvgjsPolyline16627" points="431.88,300.46 450.14,292.8 468.67,285.83 487.44,279.53 506.39,273.79 525.48,268.53 547.89,262.91 570.4,257.75 599.48,251.7" fill="none" stroke="#000000" stroke-width="1"/><polyline id="SvgjsPolyline16628" points="433.25,299.79 418.4,306.98 406.74,313.17 395.36,319.85 384.27,327.01 373.5,334.65 363.02,342.66 332.3,367.65 319.27,377.77 305.86,387.39 294.84,394.65 283.56,401.5 269.13,409.51 254.39,416.91 239.37,423.76 230.26,427.62 218,432.51 205.63,437.11 193.17,441.47 180.63,445.59 168.02,449.49 152.17,454.1 136.25,458.43 120.26,462.51 104.22,466.37 72,473.49 36.39,480.55 0.66,486.93" fill="none" stroke="#000000" stroke-width="1"/><polyline id="SvgjsPolyline16629" points="598.64,430.67 562.99,437.54 530.71,444.36 495.34,452.54 466.53,459.77 441.03,466.59 412.45,474.66 383.95,483.03 317.56,502.9 276.32,514.73 257.22,519.94 234.87,525.79 196.41,535.19 170.66,541.01 148.07,545.84 125.42,550.41 102.74,554.75 83.26,558.3 57.24,562.79 31.19,567.04 1.83,571.54" fill="none" stroke="#000000" stroke-width="1"/><polyline id="SvgjsPolyline16630" points="417.48,300.66 426.4,296.37 435.41,292.28 444.51,288.38 453.7,284.7 472.3,277.89 484.82,273.72 494.27,270.76 516.46,264.35 542.02,257.75 567.73,251.79 596.8,245.7" fill="none" stroke="#000000" stroke-width="1"/><polyline id="SvgjsPolyline16631" points="421.37,298.51 406.84,306.31 398.29,311.3 387.17,318.41 376.39,326.04 368.55,332.07 360.87,338.32 333.38,362.03 323.23,370.47 310.18,380.57 296.68,390.05 282.73,398.85 268.38,406.99 253.68,414.5 238.71,421.43 226.56,426.59 214.29,431.45 201.91,436.03 189.44,440.35 176.89,444.44 164.27,448.32 151.59,452 135.68,456.35 116.49,461.24 103.66,464.32 74.67,470.78 39.08,477.92 0.1,484.93" fill="none" stroke="#000000" stroke-width="1"/><polyline id="SvgjsPolyline16632" points="599.72,436.57 564.06,443.37 534.98,449.4 502.79,456.64 467.53,465.26 445.18,471.1 416.54,478.96 384.81,488.05 318.29,507.49 280.18,518.22 245.09,527.53 219.48,533.92 200.21,538.49 180.9,542.87 158.32,547.75 135.69,552.38 109.77,557.39 87.05,561.54 57.78,566.58 31.72,570.8 2.36,575.28" fill="none" stroke="#000000" stroke-width="1"/><polyline id="SvgjsPolyline16633" points="403.24,301.55 411.94,296.82 417.83,293.83 429.72,288.11 438.77,284.09 447.91,280.29 460.22,275.54 469.54,272.19 482.05,267.98 494.65,264.03 507.31,260.31 532.81,253.48 552.05,248.81 564.92,245.88 597.22,239.12" fill="none" stroke="#000000" stroke-width="1"/><polyline id="SvgjsPolyline16634" points="406.43,299.28 397.96,304.4 386.9,311.6 378.84,317.35 371.01,323.41 365.91,327.59 358.42,334.07 334.11,356.39 324.24,365.15 311.51,375.65 300.96,383.57 292.82,389.22 287.3,392.83 273.19,401.38 258.68,409.24 249.82,413.65 240.86,417.85 231.8,421.86 219.61,426.91 207.29,431.66 194.88,436.13 182.37,440.36 166.64,445.33 141.27,452.63 125.31,456.84 109.3,460.81 77.12,468.12 41.55,475.35 2.58,482.42" fill="none" stroke="#000000" stroke-width="1"/><polyline id="SvgjsPolyline16635" points="597.56,443.06 561.9,449.84 529.59,456.54 497.39,463.78 465.32,471.57 436.57,479.03 404.74,487.72 322.22,511.22 280.87,522.64 261.73,527.7 236.14,534.19 197.61,543.33 171.83,549.02 152.45,553.08 129.79,557.6 103.85,562.49 81.11,566.55 55.08,570.95 32.27,574.61 2.91,579.06" fill="none" stroke="#000000" stroke-width="1"/><polyline id="SvgjsPolyline16636" points="391.92,301.48 400.38,296.35 411.92,289.93 420.73,285.41 429.67,281.16 438.72,277.16 450.94,272.17 460.2,268.66 472.64,264.26 488.33,259.16 500.97,255.35 513.68,251.76 529.63,247.55 545.65,243.61 564.95,239.18 597.26,232.45" fill="none" stroke="#000000" stroke-width="1"/><polyline id="SvgjsPolyline16637" points="394.48,299.17 383.61,306.66 378.3,310.58 373.1,314.64 365.52,321 355.76,329.9 332.21,353.01 322.59,362.05 312.64,370.72 302.32,378.95 297.02,382.88 288.9,388.54 280.59,393.93 272.12,399.05 263.49,403.91 254.74,408.53 239.89,415.72 230.85,419.76 218.67,424.85 206.37,429.63 193.96,434.13 181.46,438.38 168.89,442.39 156.25,446.2 140.37,450.69 127.62,454.09 108.41,458.89 95.56,461.92 76.23,466.22 40.66,473.45 21.2,477.09 1.7,480.53" fill="none" stroke="#000000" stroke-width="1"/><polyline id="SvgjsPolyline16638" points="598.63,448.97 562.96,455.67 530.63,462.28 498.41,469.41 469.51,476.28 440.72,483.55 412.01,491.17 319.8,516.78 278.38,527.94 239.99,537.68 201.45,546.75 178.89,551.72 153.04,557.11 133.62,560.96 107.68,565.84 84.94,569.9 58.91,574.3 29.58,578.97 0.2,583.37" fill="none" stroke="#000000" stroke-width="1"/><polyline id="SvgjsPolyline16639" points="383.35,300.14 391.6,294.66 402.86,287.79 411.52,282.98 420.34,278.48 432.3,272.9 444.45,267.74 456.75,262.96 469.18,258.51 484.85,253.35 497.48,249.51 510.17,245.89 526.12,241.64 545.34,236.9 561.42,233.21 577.55,229.73 596.96,225.8" fill="none" stroke="#000000" stroke-width="1"/><polyline id="SvgjsPolyline16640" points="382.6,299.73 372.23,307.89 367.2,312.17 362.31,316.6 357.54,321.16 350.57,328.19 332.45,347.39 323.18,356.79 315.99,363.59 311.07,367.99 300.9,376.4 293,382.37 287.61,386.18 279.36,391.65 270.93,396.84 256.53,404.9 247.72,409.4 238.79,413.69 226.74,419.07 217.6,422.88 205.31,427.69 192.91,432.21 180.42,436.47 167.85,440.51 152.04,445.25 139.34,448.82 126.58,452.23 107.38,457.04 94.53,460.07 75.2,464.37 42.87,470.99 23.42,474.66 0.67,478.7" fill="none" stroke="#000000" stroke-width="1"/><polyline id="SvgjsPolyline16641" points="599.69,454.87 570.49,460.25 534.89,467.35 502.63,474.32 470.49,481.8 448.06,487.32 416.11,495.56 317.37,522.34 282.28,531.61 243.86,541.23 202.08,550.95 179.51,555.86 156.89,560.54 130.98,565.62 105.02,570.43 79.02,574.98 52.97,579.29 23.63,583.87 0.77,587.25" fill="none" stroke="#000000" stroke-width="1"/><polyline id="SvgjsPolyline16642" points="372.08,301.27 379.96,295.27 390.8,287.74 402.04,280.83 410.71,276.04 422.5,270.12 434.53,264.67 446.73,259.64 459.08,254.97 474.67,249.58 490.4,244.61 506.25,240 525.37,234.89 541.39,230.93 557.47,227.21 573.59,223.7 599.47,218.48" fill="none" stroke="#000000" stroke-width="1"/><polyline id="SvgjsPolyline16643" points="373.19,298.85 363.38,307.69 354.05,317.02 345.19,326.81 330.04,344.24 323.35,351.54 318.77,356.29 311.67,363.19 301.78,371.92 296.65,376.08 288.75,382.05 280.62,387.7 272.3,393.05 266.64,396.46 258.03,401.34 249.28,405.96 240.4,410.35 231.42,414.52 219.31,419.75 207.05,424.66 194.68,429.26 182.22,433.6 169.67,437.7 157.05,441.58 141.19,446.14 125.26,450.43 109.26,454.46 96.42,457.53 77.11,461.88 60.97,465.3 41.55,469.19 22.09,472.86 2.6,476.33" fill="none" stroke="#000000" stroke-width="1"/><polyline id="SvgjsPolyline16644" points="597.5,461.36 561.81,467.96 526.22,475.12 493.98,482.14 465.05,488.86 442.61,494.34 413.82,501.66 311.76,528.74 276.6,537.77 238.12,547.14 202.73,555.2 176.91,560.72 154.27,565.32 108.88,573.89 86.12,577.88 56.82,582.74 27.48,587.32 1.36,591.17" fill="none" stroke="#000000" stroke-width="1"/><polyline id="SvgjsPolyline16645" points="363.53,300.99 371.04,294.54 381.47,286.46 389.62,280.84 400.87,273.94 412.47,267.64 424.34,261.87 439.48,255.29 451.77,250.47 464.18,245.99 479.84,240.8 495.63,236 514.7,230.69 533.89,225.8 553.16,221.27 575.74,216.37 598.39,211.83" fill="none" stroke="#000000" stroke-width="1"/><polyline id="SvgjsPolyline16646" points="363.71,298.55 354.56,308.07 348.04,315.51 329.48,338.7 320.97,348.79 311.94,358.42 307.22,363.03 302.36,367.49 294.81,373.89 289.62,377.97 281.62,383.81 273.4,389.32 264.98,394.53 256.4,399.46 247.66,404.11 238.8,408.53 229.83,412.71 217.72,417.97 205.47,422.89 193.1,427.51 180.64,431.85 168.09,435.95 155.48,439.83 139.62,444.4 126.88,447.85 110.89,451.93 94.85,455.78 75.53,460.13 56.16,464.21 39.97,467.43 1.02,474.57" fill="none" stroke="#000000" stroke-width="1"/><polyline id="SvgjsPolyline16647" points="598.55,467.27 562.84,473.79 533.7,479.53 501.41,486.35 472.44,492.88 440.34,500.54 411.53,507.74 318.91,531.82 280.52,541.54 238.8,551.55 200.16,560.19 174.32,565.61 154.91,569.49 128.97,574.44 106.24,578.56 76.97,583.58 50.91,587.8 1.96,595.15" fill="none" stroke="#000000" stroke-width="1"/><polyline id="SvgjsPolyline16648" points="355.04,301.28 362.1,294.34 366.99,289.91 372.02,285.64 379.86,279.59 385.26,275.8 390.79,272.19 402.14,265.46 413.83,259.32 428.78,252.36 440.97,247.28 456.4,241.44 472.01,236.1 490.92,230.23 509.97,224.86 529.15,219.91 551.63,214.6 570.97,210.39 596.85,205.19" fill="none" stroke="#000000" stroke-width="1"/><polyline id="SvgjsPolyline16649" points="354.15,298.88 349.92,303.94 343.81,311.74 326.45,335.83 320.4,343.67 314.03,351.24 309.57,356.11 304.94,360.81 300.16,365.36 295.22,369.74 287.56,376.01 282.29,379.98 274.18,385.66 265.86,391.02 257.34,396.07 248.67,400.84 239.86,405.35 230.93,409.63 218.87,414.98 206.65,419.99 194.32,424.69 181.88,429.1 169.35,433.26 156.75,437.19 140.91,441.81 128.18,445.3 109,450.22 92.95,454.06 76.86,457.7 41.31,465.06 2.37,472.25" fill="none" stroke="#000000" stroke-width="1"/><polyline id="SvgjsPolyline16650" points="599.59,473.18 567.11,479.02 534.71,485.29 505.63,491.31 470.19,499.16 438.06,506.72 409.22,513.81 319.68,536.61 278.04,546.93 239.49,556 200.82,564.52 174.97,569.87 152.3,574.34 129.6,578.61 103.62,583.26 77.59,587.67 51.52,591.86 2.56,599.16" fill="none" stroke="#000000" stroke-width="1"/><polyline id="SvgjsPolyline16651" points="346.67,302.22 353.17,294.75 357.72,289.98 362.44,285.36 369.88,278.84 375.07,274.75 380.4,270.86 385.87,267.17 391.45,263.65 402.9,257.09 408.75,254.03 417.65,249.69 432.75,243.03 448.1,236.99 466.78,230.43 485.66,224.48 504.7,219.04 527.06,213.24 549.54,207.94 575.35,202.39 598.01,197.91" fill="none" stroke="#000000" stroke-width="1"/><polyline id="SvgjsPolyline16652" points="346.79,297.34 339.23,308.16 325.05,330.43 319.45,338.59 315.5,343.88 311.36,349.01 307.02,353.99 300.16,361.12 295.36,365.66 287.87,372.13 280.07,378.22 271.99,383.95 263.69,389.34 255.19,394.42 246.53,399.21 237.72,403.73 225.8,409.39 216.74,413.37 204.52,418.38 192.19,423.07 179.74,427.48 167.21,431.63 151.45,436.5 138.77,440.17 126.04,443.65 110.06,447.76 90.81,452.39 74.71,456.01 42.4,462.72 19.71,467.04 0.21,470.52" fill="none" stroke="#000000" stroke-width="1"/><polyline id="SvgjsPolyline16653" points="597.37,479.65 561.64,486.07 532.48,491.7 503.39,497.67 471.15,504.71 445.42,510.62 413.32,518.31 317.26,542.23 278.77,551.57 233.75,561.93 198.26,569.57 156.2,577.98 117.25,585.16 71.7,592.87 26.04,599.92" fill="none" stroke="#000000" stroke-width="1"/><polyline id="SvgjsPolyline16654" points="340.54,301.14 346.55,293.28 350.82,288.24 355.27,283.37 359.96,278.73 364.87,274.32 369.96,270.12 375.23,266.14 380.63,262.35 386.16,258.76 397.54,252.06 406.29,247.44 412.21,244.52 427.26,237.75 442.57,231.62 461.22,224.95 483.23,217.96 502.28,212.53 524.64,206.74 547.12,201.44 572.93,195.89 598.83,190.79" fill="none" stroke="#000000" stroke-width="1"/><polyline id="SvgjsPolyline16655" points="337.54,299.11 332.62,307.7 323.11,325.07 319.77,330.76 316.23,336.33 310.5,344.4 306.39,349.56 302.05,354.54 297.51,359.33 292.78,363.92 285.35,370.47 280.21,374.61 272.25,380.49 264.04,386.02 255.61,391.22 247,396.11 238.25,400.72 229.36,405.08 217.34,410.54 205.16,415.62 192.84,420.38 177.3,425.92 164.77,430.06 152.16,433.97 139.49,437.67 126.77,441.18 110.8,445.33 94.77,449.24 78.68,452.93 62.56,456.43 39.92,461.03 0.99,468.24" fill="none" stroke="#000000" stroke-width="1"/><polyline id="SvgjsPolyline16656" points="598.39,485.57 565.89,491.31 533.47,497.46 501.13,504.02 468.87,510.98 439.91,517.56 417.43,522.85 318.03,547.07 285.94,554.74 240.9,565.03 208.64,571.97 173.06,579.17 134.14,586.5 95.13,593.3 56.04,599.61" fill="none" stroke="#000000" stroke-width="1"/><polyline id="SvgjsPolyline16657" points="334.25,300.55 337.79,294.98 341.55,289.56 345.54,284.3 349.81,279.27 356.72,272.18 361.61,267.75 366.7,263.55 371.97,259.57 377.37,255.79 382.91,252.19 388.55,248.77 394.29,245.51 403.05,240.89 411.95,236.57 417.96,233.84 427.06,229.94 436.25,226.26 454.85,219.48 464.24,216.34 476.83,212.38 495.85,206.87 518.19,200.99 547.09,194.16 572.91,188.66 598.83,183.61" fill="none" stroke="#000000" stroke-width="1"/><polyline id="SvgjsPolyline16658" points="330.16,298.79 320.53,319.79 317.6,325.7 314.44,331.49 311,337.12 307.28,342.58 303.29,347.83 296.83,355.34 289.88,362.38 285,366.82 277.38,373.14 269.44,379.05 261.23,384.59 252.81,389.79 244.2,394.68 235.44,399.29 223.56,405.03 214.52,409.07 202.33,414.14 190.01,418.88 177.58,423.32 165.06,427.5 152.47,431.45 139.81,435.18 123.9,439.58 111.13,442.9 95.1,446.83 75.81,451.27 59.68,454.75 37.04,459.33 1.34,465.93" fill="none" stroke="#000000" stroke-width="1"/><polyline id="SvgjsPolyline16659" points="599.4,491.48 566.89,497.16 537.7,502.6 502.09,509.69 466.59,517.24 415.1,528.94 325.23,550.42 286.68,559.48 254.5,566.77 222.24,573.75 186.68,581.02 151.03,587.85 115.3,594.24 82.75,599.68" fill="none" stroke="#000000" stroke-width="1"/><polyline id="SvgjsPolyline16660" points="328,300.46 331.07,294.61 334.39,288.91 336.13,286.11 339.88,280.68 343.97,275.5 348.36,270.57 353.01,265.89 357.91,261.46 363,257.27 368.26,253.29 376.43,247.69 382.03,244.19 387.72,240.86 396.42,236.14 411.27,228.94 426.43,222.44 435.65,218.83 448.05,214.31 457.42,211.11 469.99,207.08 492.16,200.59 517.7,193.9 543.39,187.85 569.21,182.33 598.36,176.66" fill="none" stroke="#000000" stroke-width="1"/><polyline id="SvgjsPolyline16661" points="321.84,302.22 323.06,299.15 317.43,314.66 314.97,320.79 312.23,326.79 309.15,332.62 305.74,338.27 302,343.71 297.97,348.94 291.42,356.36 286.77,361.04 279.42,367.66 271.69,373.86 266.37,377.76 258.16,383.29 249.73,388.48 241.12,393.36 232.35,397.95 223.44,402.28 211.4,407.69 202.27,411.5 189.97,416.29 177.55,420.78 165.05,425 152.46,428.97 136.63,433.64 120.72,438.01 104.74,442.11 91.91,445.22 72.61,449.63 53.24,453.76 37.07,457.01 1.38,463.64" fill="none" stroke="#000000" stroke-width="1"/><polyline id="SvgjsPolyline16662" points="597.15,497.95 561.39,504.18 532.19,509.62 499.82,516.03 467.52,522.8 432.08,530.62 406.34,536.51 293.87,562.79 258.45,570.72 226.18,577.63 200.32,582.92 171.16,588.6 141.96,594 109.45,599.66" fill="none" stroke="#000000" stroke-width="1"/><polyline id="SvgjsPolyline16663" points="321.82,300.9 324.35,294.81 327.16,288.84 330.26,283.01 333.76,277.42 335.66,274.72 339.72,269.52 344.1,264.58 348.76,259.91 353.66,255.49 358.76,251.3 364.03,247.32 372.2,241.74 380.63,236.55 386.38,233.3 392.2,230.19 401.06,225.78 410.05,221.63 419.15,217.73 428.34,214.05 437.6,210.56 450.05,206.17 459.45,203.07 481.55,196.36 507.04,189.46 535.91,182.5 564.94,176.23 597.33,169.92" fill="none" stroke="#000000" stroke-width="1"/><polyline id="SvgjsPolyline16664" points="316.83,296.95 313.48,309.71 311.57,316.03 309.31,322.23 306.65,328.27 303.57,334.11 300.11,339.72 296.29,345.11 292.17,350.26 287.77,355.18 280.73,362.14 273.25,368.62 268.05,372.69 260.01,378.46 251.71,383.85 243.2,388.9 234.51,393.65 225.67,398.12 213.71,403.69 201.56,408.86 189.28,413.69 176.88,418.21 164.38,422.46 148.64,427.42 135.98,431.15 123.26,434.68 107.3,438.85 88.06,443.53 71.97,447.19 55.84,450.66 36.43,454.59 0.75,461.23" fill="none" stroke="#000000" stroke-width="1"/><polyline id="SvgjsPolyline16665" points="598.15,503.86 568.87,508.87 542.89,513.57 516.96,518.5 484.6,524.99 455.54,531.12 426.53,537.48 301.07,566.18 252.73,576.81 226.89,582.23 194.53,588.72 168.6,593.67 136.13,599.55" fill="none" stroke="#000000" stroke-width="1"/><polyline id="SvgjsPolyline16666" points="315.99,301.83 317.93,295.52 321.52,286.3 322.87,283.29 325.92,277.44 329.42,271.84 331.32,269.14 335.4,263.96 339.8,259.04 344.49,254.39 349.4,249.99 357.14,243.81 362.49,239.96 370.77,234.53 376.42,231.13 385.07,226.31 393.89,221.8 402.84,217.57 411.9,213.59 421.06,209.83 433.39,205.12 442.72,201.8 455.23,197.61 467.83,193.68 480.5,189.97 496.42,185.62 509.2,182.33 534.89,176.23 567.16,169.34 599.57,163.13" fill="none" stroke="#000000" stroke-width="1"/><polyline id="SvgjsPolyline16667" points="309.75,301.77 311.76,292.08 312.58,288.88 314.64,282.61 317.25,276.55 320.38,270.75 323.97,265.21 327.96,259.95 332.29,254.97 336.9,250.25 341.75,245.78 346.81,241.54 354.72,235.59 360.17,231.86 368.55,226.6 377.15,221.69 385.92,217.1 394.83,212.79 403.86,208.73 412.99,204.9 425.29,200.11 434.59,196.72 447.08,192.46 459.66,188.45 472.31,184.68 488.2,180.24 500.97,176.9 529.85,169.96 562.11,163.04 597.76,156.2" fill="none" stroke="#000000" stroke-width="1"/><polyline id="SvgjsPolyline16668" points="309.42,298.37 308.35,304.88 306.26,314.55 304.31,320.86 301.85,326.98 298.9,332.88 295.52,338.55 291.75,343.96 287.64,349.13 283.25,354.05 276.19,360.99 271.23,365.35 263.47,371.49 255.39,377.21 247.06,382.56 238.52,387.56 229.8,392.25 220.94,396.67 211.96,400.84 199.83,406.04 187.55,410.89 175.16,415.43 162.67,419.69 150.09,423.7 134.27,428.4 118.37,432.79 105.59,436.11 92.78,439.27 73.49,443.74 41.2,450.57 21.77,454.35 2.29,457.91" fill="none" stroke="#000000" stroke-width="1"/><polyline id="SvgjsPolyline16669" points="599.13,509.78 569.84,514.73 537.36,520.57 511.43,525.48 475.83,532.6 420.97,544.31 308.28,569.64 263.14,579.48 237.3,584.89 208.18,590.75 159.54,599.94" fill="none" stroke="#000000" stroke-width="1"/><polyline id="SvgjsPolyline16670" points="304.32,300.66 305.17,294.12 306.34,287.63 308.15,281.29 310.57,275.15 313.55,269.26 317,263.64 320.86,258.29 325.08,253.21 329.59,248.4 336.82,241.64 341.9,237.42 349.82,231.48 355.27,227.75 363.65,222.49 372.24,217.58 381.01,212.97 389.91,208.65 398.93,204.57 408.05,200.72 420.34,195.89 432.75,191.39 445.25,187.17 457.84,183.19 470.49,179.44 483.21,175.89 499.17,171.71 528.05,164.8 560.32,157.9 579.75,154.09 599.22,150.49" fill="none" stroke="#000000" stroke-width="1"/><polyline id="SvgjsPolyline16671" points="302.78,297.17 302.27,303.75 301.32,310.28 299.87,316.71 297.79,322.98 295.15,329.02 292,334.82 288.41,340.36 284.45,345.64 280.16,350.65 273.23,357.71 268.32,362.13 260.62,368.35 252.59,374.13 244.28,379.52 235.76,384.55 227.06,389.27 215.23,395.12 206.21,399.22 197.1,403.1 184.83,407.95 172.43,412.49 159.94,416.75 147.36,420.75 134.72,424.53 122.01,428.11 106.06,432.33 93.25,435.52 73.97,440.03 54.63,444.24 35.23,448.21 2.79,454.31" fill="none" stroke="#000000" stroke-width="1"/><polyline id="SvgjsPolyline16672" points="596.85,516.24 564.31,521.72 535.07,526.95 505.89,532.45 476.75,538.21 421.85,549.72 318.72,572.47 270.34,582.91 231.55,590.9 186.2,599.7" fill="none" stroke="#000000" stroke-width="1"/><polyline id="SvgjsPolyline16673" points="298.22,302.89 298.66,296.31 299.13,293.04 300.41,286.57 301.21,283.37 303.29,277.1 305.94,271.06 309.1,265.27 312.69,259.74 316.67,254.47 320.97,249.47 327.93,242.43 332.85,238.03 340.56,231.83 348.62,226.07 356.93,220.7 365.47,215.69 374.18,210.99 383.04,206.57 395.04,201.08 407.22,195.97 416.44,192.38 425.73,188.96 438.21,184.65 450.77,180.6 466.58,175.86 482.47,171.43 495.24,168.09 511.26,164.14 527.33,160.42 559.61,153.55 579.05,149.76 598.52,146.18" fill="none" stroke="#000000" stroke-width="1"/><polyline id="SvgjsPolyline16674" points="296.84,299.47 296.05,306.02 294.76,312.49 292.98,318.85 290.58,324.99 287.64,330.9 284.21,336.53 280.36,341.89 276.16,346.99 271.67,351.82 264.46,358.6 256.81,364.88 251.5,368.8 243.3,374.35 237.69,377.83 229.11,382.77 220.36,387.39 211.47,391.74 202.45,395.83 193.34,399.7 181.06,404.54 168.66,409.07 156.16,413.31 143.58,417.3 130.93,421.06 118.22,424.62 102.26,428.82 73.38,435.76 41.12,442.68 18.45,447.12 2.22,450.11" fill="none" stroke="#000000" stroke-width="1"/><polyline id="SvgjsPolyline16675" points="597.82,522.16 568.52,527.02 539.27,532.15 510.06,537.54 477.66,543.83 445.33,550.4 413.03,557.2 325.96,576.09 280.77,585.73 251.69,591.73 212.84,599.41" fill="none" stroke="#000000" stroke-width="1"/><polyline id="SvgjsPolyline16676" points="291.6,302.12 292.56,295.59 294.53,285.89 296.41,279.56 298.83,273.43 301.75,267.51 305.11,261.83 308.86,256.4 312.96,251.22 317.34,246.29 324.39,239.35 329.35,234.99 337.11,228.84 345.19,223.12 353.52,217.78 362.06,212.78 370.78,208.09 379.64,203.67 391.64,198.17 403.81,193.06 413.03,189.46 425.43,184.93 437.92,180.67 453.66,175.7 466.32,171.97 482.23,167.58 495,164.27 514.24,159.59 530.33,155.93 562.63,149.18 598.31,142.49" fill="none" stroke="#000000" stroke-width="1"/><polyline id="SvgjsPolyline16677" points="291.47,298.54 290.28,305.03 288.71,311.44 286.71,317.73 284.14,323.81 281.05,329.64 277.49,335.19 273.53,340.47 269.22,345.47 264.63,350.21 259.79,354.7 254.75,358.96 246.87,364.94 241.43,368.69 233.06,373.97 224.48,378.91 215.72,383.52 206.82,387.85 197.8,391.93 185.62,397.02 176.39,400.6 163.98,405.1 154.61,408.28 142.03,412.3 129.39,416.1 113.5,420.55 97.54,424.72 68.65,431.6 49.3,435.82 33.14,439.13 0.72,445.27" fill="none" stroke="#000000" stroke-width="1"/><polyline id="SvgjsPolyline16678" points="598.78,528.08 562.96,533.99 533.7,539.11 501.25,545.09 468.85,551.37 413.89,562.6 297.68,587.28 236.23,599.74" fill="none" stroke="#000000" stroke-width="1"/><polyline id="SvgjsPolyline16679" points="285.07,301.14 287.41,291.52 289.17,285.17 291.3,278.92 293.87,272.84 296.85,266.96 300.24,261.3 304,255.87 310.22,248.17 314.71,243.33 321.86,236.5 329.44,230.13 334.69,226.13 342.81,220.46 351.17,215.16 359.73,210.19 368.46,205.52 377.33,201.13 389.34,195.64 398.45,191.79 410.73,186.95 423.13,182.42 435.63,178.16 448.2,174.15 464.02,169.45 479.92,165.06 492.7,161.74 508.73,157.81 528.03,153.39 547.39,149.24 563.56,145.98 599.25,139.33" fill="none" stroke="#000000" stroke-width="1"/><polyline id="SvgjsPolyline16680" points="286.63,297.23 284.97,303.62 281.82,313 279.26,319.09 277.8,322.04 276.21,324.94 272.71,330.53 268.79,335.84 264.53,340.88 259.97,345.65 255.15,350.16 250.13,354.44 242.26,360.44 234.07,366 228.46,369.48 219.88,374.41 211.12,379.02 202.21,383.34 193.18,387.41 184.06,391.25 174.85,394.88 162.46,399.43 149.96,403.69 137.38,407.69 124.73,411.46 112.03,415.02 96.07,419.22 70.4,425.41 51.07,429.69 34.92,433.05 2.51,439.27" fill="none" stroke="#000000" stroke-width="1"/><polyline id="SvgjsPolyline16681" points="599.72,534.01 547.63,542.62 515.14,548.4 479.46,555.09 417.97,567.35 311.37,589.6 262.86,599.46" fill="none" stroke="#000000" stroke-width="1"/><polyline id="SvgjsPolyline16682" points="279.36,299.73 278.19,302.82 283.45,287.18 285.74,280.99 288.33,274.92 291.28,269.01 294.57,263.3 298.21,257.79 302.16,252.51 308.61,245 313.21,240.27 320.5,233.57 328.18,227.32 333.48,223.39 341.65,217.8 350.05,212.57 358.65,207.66 367.4,203.04 376.29,198.68 388.32,193.24 400.51,188.18 412.83,183.44 425.26,179.01 437.79,174.83 450.38,170.9 463.05,167.18 475.77,163.65 494.94,158.68 523.84,151.86 543.19,147.68 559.36,144.39 575.56,141.25 598.29,137.11" fill="none" stroke="#000000" stroke-width="1"/><polyline id="SvgjsPolyline16683" points="281.08,298.66 278.84,304.86 274.82,313.91 273.34,316.86 270.06,322.58 268.26,325.35 264.37,330.68 260.13,335.74 255.59,340.53 250.8,345.07 245.79,349.36 240.6,353.43 232.52,359.15 226.97,362.73 218.46,367.78 212.67,370.96 203.86,375.47 194.91,379.69 185.84,383.67 173.61,388.64 164.35,392.13 151.9,396.52 139.36,400.63 117.23,407.25 104.5,410.75 88.52,414.87 62.83,420.95 33.79,427.17 1.39,433.42" fill="none" stroke="#000000" stroke-width="1"/><polyline id="SvgjsPolyline16684" points="597.4,540.45 564.82,545.71 532.3,551.26 506.31,555.91 473.87,561.97 415.59,573.45 286.26,599.88" fill="none" stroke="#000000" stroke-width="1"/><polyline id="SvgjsPolyline16685" points="272.66,300.8 273.96,297.77 271.15,303.74 268.11,309.6 264.73,315.26 261,320.7 256.92,325.89 252.53,330.82 247.87,335.5 242.98,339.92 237.89,344.12 232.62,348.1 227.21,351.87 221.67,355.46 213.16,360.52 207.37,363.7 201.52,366.74 192.61,371.06 183.58,375.11 174.44,378.93 155.94,385.97 143.46,390.27 134.04,393.31 111.9,399.9 86.39,406.69 60.71,412.82 34.91,418.4 2.52,424.74" fill="none" stroke="#000000" stroke-width="1"/><polyline id="SvgjsPolyline16686" points="271.7,300.63 280.96,279.47 283.86,273.55 287.03,267.76 290.48,262.13 294.23,256.7 298.25,251.46 304.75,244 309.37,239.29 316.66,232.6 321.74,228.38 329.62,222.38 337.77,216.77 346.15,211.51 354.73,206.56 363.46,201.9 372.33,197.51 384.34,192.02 396.51,186.9 408.81,182.12 421.23,177.64 433.74,173.43 446.32,169.46 462.15,164.79 478.06,160.42 494.04,156.32 506.87,153.21 526.17,148.8 558.48,142.05 574.68,138.92 597.4,134.78" fill="none" stroke="#000000" stroke-width="1"/><polyline id="SvgjsPolyline16687" points="598.33,546.38 572.26,550.51 542.96,555.38 516.95,559.9 481.24,566.39 422.91,577.61 312.91,599.74" fill="none" stroke="#000000" stroke-width="1"/><polyline id="SvgjsPolyline16688" points="267.73,298.27 260.81,309.51 256.98,314.88 252.84,320.02 246.1,327.27 241.31,331.8 236.3,336.1 231.1,340.17 225.76,344.04 220.27,347.71 214.67,351.2 208.97,354.53 200.26,359.24 191.4,363.64 185.41,366.42 176.34,370.38 167.17,374.12 148.61,381.01 129.81,387.23 107.67,393.79 85.35,399.74 59.68,405.91 30.65,412.2 1.51,417.91" fill="none" stroke="#000000" stroke-width="1"/><polyline id="SvgjsPolyline16689" points="264.11,300.88 276.53,277.58 279.75,271.82 283.16,266.17 286.79,260.66 292.69,252.72 296.92,247.65 301.37,242.78 306.03,238.1 313.35,231.44 321.03,225.19 329.01,219.33 337.24,213.83 345.68,208.66 354.3,203.79 363.07,199.2 371.97,194.86 384,189.44 396.19,184.38 408.51,179.64 420.94,175.2 433.46,171.02 446.06,167.07 461.89,162.43 477.81,158.09 490.6,154.8 506.63,150.91 522.71,147.23 542.07,143.07 561.48,139.16 597.17,132.54" fill="none" stroke="#000000" stroke-width="1"/><polyline id="SvgjsPolyline16690" points="599.25,552.31 573.17,556.39 543.86,561.2 511.34,566.8 485.36,571.46 430.22,581.84 339.57,599.73" fill="none" stroke="#000000" stroke-width="1"/><polyline id="SvgjsPolyline16691" points="261.37,298.15 253.59,308.82 247.18,316.35 242.58,321.09 237.76,325.6 232.74,329.88 227.54,333.94 222.18,337.8 216.7,341.47 211.1,344.96 202.51,349.89 190.79,355.95 175.79,362.83 166.65,366.63 157.43,370.23 141.9,375.81 119.91,382.88 100.89,388.37 78.54,394.22 52.85,400.3 27.04,405.84 1.13,410.93" fill="none" stroke="#000000" stroke-width="1"/><polyline id="SvgjsPolyline16692" points="256.34,300.41 261.8,292.15 275.73,269.72 281.29,261.53 287.25,253.63 291.48,248.56 295.91,243.67 300.52,238.95 305.32,234.42 312.81,227.94 320.61,221.86 328.69,216.13 337,210.75 345.5,205.68 354.17,200.9 362.98,196.38 371.91,192.11 383.97,186.76 393.12,182.98 405.44,178.22 417.86,173.75 433.51,168.53 446.12,164.62 458.78,160.91 471.51,157.39 487.47,153.24 506.71,148.56 522.8,144.9 542.17,140.76 558.34,137.5 574.54,134.39 597.27,130.28" fill="none" stroke="#000000" stroke-width="1"/><polyline id="SvgjsPolyline16693" points="596.9,558.74 548.02,566.49 495.97,575.4 434.31,586.74 366.27,599.89" fill="none" stroke="#000000" stroke-width="1"/><polyline id="SvgjsPolyline16694" points="255.23,297.51 251.06,302.62 246.71,307.59 239.84,314.72 235,319.2 229.96,323.47 224.76,327.53 219.41,331.39 213.92,335.06 208.32,338.55 196.84,345.06 185.05,351 169.99,357.74 154.67,363.86 136.02,370.5 117.16,376.52 98.13,382.01 75.79,387.86 56.53,392.47 30.75,398.13 1.62,403.93" fill="none" stroke="#000000" stroke-width="1"/><polyline id="SvgjsPolyline16695" points="246.62,301.88 250.81,296.78 254.82,291.54 260.65,283.54 273.95,264.66 279.95,256.78 284.13,251.67 288.49,246.71 293.01,241.91 297.7,237.26 305.03,230.61 310.1,226.38 317.94,220.34 326.04,214.65 334.36,209.29 342.87,204.23 351.54,199.45 360.35,194.94 369.28,190.66 378.31,186.6 390.48,181.51 402.79,176.73 418.32,171.17 430.85,167.01 443.45,163.08 459.29,158.46 472.02,154.97 491.2,150.05 507.25,146.21 523.34,142.57 558.89,135.21 597.83,128.02" fill="none" stroke="#000000" stroke-width="1"/><polyline id="SvgjsPolyline16696" points="597.81,564.67 555.42,571.27 506.6,579.42 454.61,588.68 396.23,599.63" fill="none" stroke="#000000" stroke-width="1"/><polyline id="SvgjsPolyline16697" points="247.04,298.84 242.46,303.6 237.74,308.21 230.37,314.82 222.62,320.98 217.27,324.84 211.78,328.51 200.5,335.35 188.86,341.58 176.96,347.29 161.8,353.79 146.39,359.7 127.67,366.14 108.75,371.98 92.87,376.46 73.71,381.45 54.46,386.07 28.67,391.73 2.79,396.92" fill="none" stroke="#000000" stroke-width="1"/><polyline id="SvgjsPolyline16698" points="239.25,300.22 245.97,292.95 252.41,285.43 270.78,262.09 279.22,251.94 288.18,242.25 292.88,237.62 297.72,233.14 305.25,226.7 310.42,222.6 315.71,218.66 323.84,213.01 332.19,207.68 340.71,202.65 349.39,197.89 358.2,193.38 367.14,189.11 379.2,183.76 391.41,178.74 403.74,174.04 416.18,169.62 431.85,164.45 444.47,160.57 457.14,156.89 473.06,152.54 485.84,149.25 505.09,144.6 524.4,140.25 543.78,136.16 559.96,132.94 579.42,129.27 598.91,125.8" fill="none" stroke="#000000" stroke-width="1"/><polyline id="SvgjsPolyline16699" points="598.7,570.6 559.56,576.61 520.47,582.97 474.94,590.81 426.24,599.62" fill="none" stroke="#000000" stroke-width="1"/><polyline id="SvgjsPolyline16700" points="238.5,299.45 228.61,308.2 220.84,314.33 212.76,320.04 201.58,327.06 190.03,333.45 178.2,339.3 166.14,344.68 153.91,349.65 138.44,355.37 122.79,360.61 103.85,366.38 87.96,370.81 65.58,376.53 46.3,381.04 23.72,385.92 1.07,390.44" fill="none" stroke="#000000" stroke-width="1"/><polyline id="SvgjsPolyline16701" points="229.82,300.38 237.06,293.63 246.31,284.21 255.1,274.36 270.1,256.8 278.98,247.03 288.32,237.7 298.16,228.9 303.26,224.72 311.13,218.72 316.51,214.89 324.75,209.41 333.19,204.22 341.79,199.32 350.53,194.67 359.39,190.27 368.37,186.08 380.47,180.83 392.72,175.91 405.09,171.28 417.55,166.93 430.09,162.82 445.87,158 458.56,154.36 484.08,147.61 500.11,143.71 519.42,139.3 535.55,135.84 554.95,131.91 574.4,128.2 597.14,124.12" fill="none" stroke="#000000" stroke-width="1"/><polyline id="SvgjsPolyline16702" points="599.58,576.54 566.95,581.46 527.85,587.68 492.04,593.67 456.28,599.91" fill="none" stroke="#000000" stroke-width="1"/><polyline id="SvgjsPolyline16703" points="229.93,299.48 219.53,307.62 211.44,313.32 203.1,318.65 191.64,325.2 179.89,331.2 167.89,336.72 155.72,341.81 143.39,346.53 130.94,350.92 115.25,356.02 96.26,361.64 80.34,365.96 61.14,370.78 41.85,375.25 22.49,379.42 3.08,383.32" fill="none" stroke="#000000" stroke-width="1"/><polyline id="SvgjsPolyline16704" points="218.03,301.97 228.3,293.68 238.17,284.91 247.54,275.62 267.75,253.86 276.93,244.37 284.06,237.5 288.95,233.07 299.06,224.58 304.27,220.54 312.29,214.73 320.51,209.22 328.92,204 334.62,200.67 343.29,195.9 352.1,191.36 361.01,187.06 373.05,181.66 382.18,177.83 394.47,173 406.86,168.46 419.35,164.18 431.91,160.14 444.55,156.31 460.42,151.8 476.36,147.56 492.37,143.56 524.54,136.21 560.11,128.96 599.07,121.87" fill="none" stroke="#000000" stroke-width="1"/><polyline id="SvgjsPolyline16705" points="597.2,582.95 541.74,591.4 489.63,599.94" fill="none" stroke="#000000" stroke-width="1"/><polyline id="SvgjsPolyline16706" points="221.6,299.01 213.51,304.71 202.41,311.87 193.86,316.86 185.14,321.53 173.27,327.31 161.19,332.64 148.95,337.57 136.57,342.15 120.95,347.45 108.35,351.39 92.5,355.99 76.57,360.28 57.36,365.06 44.5,368.05 21.93,372.96 2.52,376.88" fill="none" stroke="#000000" stroke-width="1"/><polyline id="SvgjsPolyline16707" points="208.83,300.89 214.24,297.11 222.17,291.19 227.35,287.1 234.9,280.69 242.2,274.01 246.95,269.43 267.91,248.39 277.44,239.25 287.31,230.49 297.57,222.18 305.52,216.28 310.93,212.51 319.21,207.08 327.66,201.92 342.08,193.9 350.9,189.41 359.83,185.14 368.86,181.08 381.03,175.97 393.32,171.16 405.72,166.64 421.35,161.35 433.94,157.37 459.29,150.02 475.24,145.79 491.25,141.8 523.42,134.45 558.99,127.2 597.95,120.11" fill="none" stroke="#000000" stroke-width="1"/><polyline id="SvgjsPolyline16708" points="598.07,588.89 565.42,593.72 526.29,599.82" fill="none" stroke="#000000" stroke-width="1"/><polyline id="SvgjsPolyline16709" points="210.43,299.83 199.2,306.75 190.59,311.65 181.82,316.24 172.91,320.55 163.88,324.61 151.69,329.67 139.35,334.36 126.9,338.74 114.35,342.83 101.72,346.68 85.85,351.17 69.89,355.37 53.86,359.3 37.78,362.99 21.66,366.47 2.25,370.4" fill="none" stroke="#000000" stroke-width="1"/><polyline id="SvgjsPolyline16710" points="197.14,301.13 202.76,297.67 213.78,290.41 221.81,284.62 229.6,278.51 234.67,274.28 242.1,267.74 266.16,245.15 275.93,236.28 288.56,225.67 299.06,217.66 307.15,211.97 312.65,208.32 321.04,203.06 326.72,199.7 335.36,194.87 344.13,190.28 358.99,183.12 368.04,179.09 380.22,174.01 392.53,169.24 404.94,164.74 417.44,160.5 430.01,156.48 442.65,152.68 458.53,148.19 474.48,143.97 490.49,139.99 506.56,136.22 522.67,132.66 555,126.04 574.45,122.37 597.2,118.33" fill="none" stroke="#000000" stroke-width="1"/><polyline id="SvgjsPolyline16711" points="598.92,594.83 566.27,599.61" fill="none" stroke="#000000" stroke-width="1"/><polyline id="SvgjsPolyline16712" points="202.05,298.34 193.45,303.25 181.78,309.43 172.89,313.76 163.87,317.85 151.69,322.94 142.46,326.51 130.04,331 120.66,334.16 108.08,338.16 95.43,341.91 82.71,345.46 66.74,349.62 50.71,353.52 34.63,357.19 2.32,363.92" fill="none" stroke="#000000" stroke-width="1"/><polyline id="SvgjsPolyline16713" points="185.48,300.78 196.98,294.31 205.45,289.18 213.72,283.75 224.43,276.04 232.23,269.93 239.84,263.6 267.04,239.57 277.1,231.02 290.05,220.8 300.76,213.08 308.99,207.58 314.57,204.06 328.81,195.72 337.53,191.04 346.37,186.57 361.32,179.6 370.41,175.68 382.64,170.72 394.99,166.05 407.43,161.65 419.96,157.49 432.56,153.55 445.22,149.81 461.12,145.4 489.9,138.08 509.19,133.6 525.31,130.08 547.94,125.44 564.14,122.31 599.87,115.91" fill="none" stroke="#000000" stroke-width="1"/><polyline id="SvgjsPolyline16714" points="187.92,299.63 170.14,308.35 161.1,312.37 151.96,316.18 142.74,319.78 133.45,323.19 124.09,326.44 111.54,330.52 98.91,334.36 86.22,337.98 63.88,343.85 34.97,350.66 2.67,357.43" fill="none" stroke="#000000" stroke-width="1"/><polyline id="SvgjsPolyline16715" points="170.88,301.36 185.62,293.95 197.18,287.58 208.45,280.71 219.4,273.33 227.39,267.49 237.79,259.36 265.65,236.1 278.52,225.76 291.75,215.92 302.66,208.48 316.66,199.76 331.06,191.69 345.77,184.24 360.77,177.35 369.87,173.46 382.12,168.55 394.49,163.92 406.94,159.55 419.48,155.42 432.08,151.5 447.92,146.88 463.84,142.54 492.65,135.34 524.85,128.13 560.45,120.99 599.42,113.99" fill="none" stroke="#000000" stroke-width="1"/><polyline id="SvgjsPolyline16716" points="176.7,298.79 158.62,306.87 149.46,310.63 140.23,314.19 121.56,320.78 102.69,326.77 90.01,330.47 77.29,333.96 54.89,339.64 29.16,345.55 0.08,351.58" fill="none" stroke="#000000" stroke-width="1"/><polyline id="SvgjsPolyline16717" points="156.3,301.29 171.35,294.54 186.14,287.23 194.84,282.51 200.56,279.21 211.78,272.26 220,266.75 230.72,259.04 243.79,248.97 267.03,230.48 280.19,220.52 293.68,211.03 307.57,202.12 318.95,195.44 333.48,187.62 348.31,180.39 363.39,173.69 375.6,168.68 387.93,163.96 409.73,156.32 422.29,152.27 438.09,147.5 450.78,143.9 466.72,139.63 495.56,132.54 527.79,125.43 560.15,119 599.13,112.01" fill="none" stroke="#000000" stroke-width="1"/><polyline id="SvgjsPolyline16718" points="162.49,298.84 144.13,306.25 128.63,311.92 109.84,318.15 90.87,323.82 68.57,329.86 46.14,335.36 23.6,340.41 0.97,345.08" fill="none" stroke="#000000" stroke-width="1"/><polyline id="SvgjsPolyline16719" points="141.74,300.68 157.03,294.49 172.12,287.81 186.91,280.5 201.35,272.51 212.6,265.62 226.31,256.43 239.66,246.75 260.71,230.81 273.98,221 287.51,211.56 298.58,204.37 307.03,199.21 315.6,194.26 330.15,186.47 344.98,179.24 363.09,171.25 375.33,166.3 387.67,161.63 400.11,157.21 412.63,153.03 437.87,145.3 453.76,140.85 466.52,137.48 495.37,130.42 527.6,123.34 563.22,116.32 598.96,109.96" fill="none" stroke="#000000" stroke-width="1"/><polyline id="SvgjsPolyline16720" points="145.16,299.52 129.66,305.18 114.02,310.44 98.26,315.31 82.39,319.84 63.24,324.88 44,329.54 24.68,333.87 2.06,338.57" fill="none" stroke="#000000" stroke-width="1"/><polyline id="SvgjsPolyline16721" points="124.11,300.71 133.43,297.39 145.78,292.72 154.97,289.04 164.08,285.17 173.1,281.08 182.01,276.78 196.61,269.09 210.84,260.75 221.97,253.64 235.58,244.32 265.06,223.13 275.88,215.58 286.87,208.26 300.88,199.54 315.2,191.35 323.94,186.7 332.78,182.24 347.71,175.23 365.92,167.46 378.21,162.64 387.49,159.2 399.95,154.83 412.48,150.69 428.24,145.8 440.92,142.11 453.64,138.6 469.6,134.43 498.48,127.49 527.5,121.18 559.88,114.79 598.86,107.85" fill="none" stroke="#000000" stroke-width="1"/><polyline id="SvgjsPolyline16722" points="127.78,299.56 112.12,304.73 99.5,308.63 83.65,313.19 67.71,317.45 51.69,321.43 35.63,325.18 16.28,329.4 0.11,332.7" fill="none" stroke="#000000" stroke-width="1"/><polyline id="SvgjsPolyline16723" points="106.5,300.19 115.92,297.15 131.53,291.8 150.06,284.82 159.22,281.07 168.29,277.12 177.28,272.96 189.09,267.08 203.58,259.17 212.11,254.15 220.52,248.93 234.32,239.88 261.51,221.19 275.21,211.99 289.13,203.13 300.46,196.36 314.88,188.35 323.67,183.79 332.55,179.41 347.54,172.51 365.79,164.85 378.11,160.09 387.4,156.69 399.87,152.37 412.42,148.26 437.7,140.66 453.61,136.27 466.38,132.94 482.4,128.98 498.47,125.23 527.49,118.95 559.87,112.59 598.86,105.67" fill="none" stroke="#000000" stroke-width="1"/><polyline id="SvgjsPolyline16724" points="110.42,299.07 85.1,306.53 59.57,313.26 30.66,320.06 1.6,326.18" fill="none" stroke="#000000" stroke-width="1"/><polyline id="SvgjsPolyline16725" points="85.74,300.11 98.41,296.4 114.16,291.49 126.68,287.31 139.11,282.86 148.36,279.34 160.59,274.36 172.67,269.04 184.58,263.36 193.4,258.86 202.11,254.16 210.71,249.26 219.21,244.18 233.17,235.39 263.51,215.45 274.62,208.32 288.69,199.7 303,191.49 311.71,186.78 320.51,182.25 335.37,175.09 353.5,167.12 371.88,159.77 393.61,151.93 406.13,147.76 418.73,143.8 444.08,136.45 460.02,132.19 472.82,128.96 498.52,122.9 530.78,115.99 566.43,109.12 598.93,103.43" fill="none" stroke="#000000" stroke-width="1"/><polyline id="SvgjsPolyline16726" points="86.72,299.9 64.4,305.83 45.16,310.54 22.63,315.62 0.01,320.31" fill="none" stroke="#000000" stroke-width="1"/><polyline id="SvgjsPolyline16727" points="61.82,300.32 77.77,296.1 96.82,290.7 109.44,286.86 125.12,281.72 137.57,277.33 152.98,271.43 165.17,266.36 177.21,260.96 186.14,256.68 194.97,252.21 203.71,247.55 215.2,241.06 232.17,230.85 262.88,211.5 276.94,202.87 291.18,194.54 305.65,186.62 323.33,177.69 341.32,169.42 356.52,163.02 374.99,155.88 387.42,151.42 399.92,147.19 421.96,140.29 447.36,133.09 472.93,126.52 501.85,119.78 530.91,113.63 563.31,107.38 599.07,101.12" fill="none" stroke="#000000" stroke-width="1"/><polyline id="SvgjsPolyline16728" points="66.18,299.24 50.16,303.18 34.09,306.92 1.81,313.78" fill="none" stroke="#000000" stroke-width="1"/><polyline id="SvgjsPolyline16729" points="34.68,300.68 53.95,296.1 73.13,291.21 89.05,286.85 108.03,281.21 123.72,276.13 139.29,270.65 154.69,264.74 166.88,259.67 175.93,255.66 187.87,250.02 199.65,244.07 211.27,237.81 231.28,226.28 262.34,207.49 276.55,199.1 293.81,189.41 308.43,181.75 326.25,173.12 341.32,166.4 359.64,158.89 378.18,151.94 400.04,144.49 425.27,136.73 447.52,130.52 476.31,123.23 502.04,117.31 534.34,110.55 563.51,104.98 599.27,98.75" fill="none" stroke="#000000" stroke-width="1"/><polyline id="SvgjsPolyline16730" points="39.24,299.63 16.68,304.58 0.52,307.9" fill="none" stroke="#000000" stroke-width="1"/><polyline id="SvgjsPolyline16731" points="7.56,300.43 30.14,295.56 52.64,290.33 71.84,285.49 90.94,280.26 109.91,274.59 125.6,269.48 144.25,262.83 159.61,256.82 171.77,251.68 180.8,247.62 192.72,241.94 204.49,235.98 224.78,224.93 264.75,201.77 279.12,193.65 296.56,184.29 311.31,176.89 329.26,168.54 347.47,160.77 365.92,153.57 384.56,146.9 406.51,139.72 428.65,133.12 457.33,125.39 479.76,119.89 505.51,114.07 537.83,107.42 570.27,101.34 599.54,96.31" fill="none" stroke="#000000" stroke-width="1"/><polyline id="SvgjsPolyline16732" points="3.12,295.22 25.73,290.46 48.25,285.33 70.67,279.75 86.6,275.45 102.44,270.86 121.33,264.92 136.94,259.56 155.47,252.6 167.7,247.62 179.8,242.35 191.77,236.79 206.55,229.46 218.24,223.33 229.84,217.02 261.51,199.29 278.88,189.79 293.51,182.16 308.31,174.85 326.3,166.58 344.53,158.87 366.08,150.55 384.76,143.97 406.74,136.88 432.08,129.47 457.59,122.7 483.25,116.5 509.03,110.78 534.89,105.49 564.08,99.98 599.85,93.8" fill="none" stroke="#000000" stroke-width="1"/><polyline id="SvgjsPolyline16733" points="1.94,289.34 27.77,283.91 50.29,278.74 69.5,273.96 88.62,268.81 107.62,263.24 123.34,258.23 138.94,252.87 154.41,247.11 166.66,242.21 178.81,237.04 190.83,231.6 202.74,225.9 214.54,219.98 226.24,213.88 261.11,195.1 278.62,185.87 296.31,176.97 311.22,169.91 329.33,161.9 347.66,154.42 366.19,147.45 384.9,140.97 406.92,133.97 429.1,127.52 454.61,120.74 480.27,114.52 509.26,108.1 535.14,102.84 567.57,96.78 596.84,91.75" fill="none" stroke="#000000" stroke-width="1"/><polyline id="SvgjsPolyline16734" points="0.75,283.46 26.59,278.05 49.11,272.92 68.34,268.17 84.29,263.94 100.16,259.43 119.08,253.61 134.73,248.39 150.26,242.8 162.57,238.04 177.82,231.74 189.9,226.41 201.87,220.85 222.59,210.64 263.61,189.38 278.32,181.91 296.12,173.24 311.11,166.34 329.29,158.5 347.67,151.16 366.25,144.3 384.99,137.91 407.03,131 429.23,124.62 454.76,117.91 480.43,111.74 512.67,104.69 538.56,99.51 567.76,94.11 597.04,89.11" fill="none" stroke="#000000" stroke-width="1"/><polyline id="SvgjsPolyline16735" points="2.8,276.92 25.41,272.2 44.73,267.85 63.97,263.19 83.13,258.19 102.18,252.79 121.1,246.97 139.87,240.66 152.28,236.16 164.6,231.43 176.83,226.46 188.96,221.25 200.99,215.82 224.8,204.42 277.96,177.93 292.87,170.86 310.93,162.73 326.12,156.3 347.62,147.85 366.23,141.1 385.01,134.8 407.07,127.98 429.29,121.67 454.84,115.02 480.52,108.9 509.54,102.57 535.43,97.38 564.63,91.96 597.15,86.4" fill="none" stroke="#000000" stroke-width="1"/><polyline id="SvgjsPolyline16736" points="1.61,271.04 24.23,266.34 43.55,262.02 62.81,257.4 81.97,252.44 97.87,248.02 116.84,242.34 135.66,236.2 151.22,230.71 163.58,226.06 175.84,221.19 191.05,214.79 203.12,209.44 224.06,199.68 265.65,179.57 280.57,172.52 295.58,165.67 310.71,159.08 329.02,151.56 344.42,145.63 366.17,137.85 384.97,131.64 407.06,124.9 429.3,118.66 458.07,111.29 483.78,105.28 512.82,99.06 541.96,93.33 567.94,88.6 597.22,83.65" fill="none" stroke="#000000" stroke-width="1"/><polyline id="SvgjsPolyline16737" points="0.44,265.16 19.83,261.18 42.39,256.2 64.85,250.82 80.83,246.7 96.74,242.33 112.57,237.68 128.31,232.73 147.06,226.37 162.56,220.7 174.86,215.93 187.09,210.94 199.23,205.77 223.31,194.95 280.16,168.51 298.28,160.52 313.49,154.13 331.9,146.83 350.46,139.96 369.18,133.5 388.03,127.44 410.17,120.86 432.45,114.75 458.05,108.3 483.77,102.34 509.58,96.82 535.48,91.69 564.69,86.33 597.23,80.83" fill="none" stroke="#000000" stroke-width="1"/><polyline id="SvgjsPolyline16738" points="2.49,258.63 25.11,253.94 44.44,249.64 60.49,245.83 76.49,241.8 95.61,236.64 111.45,232.05 130.36,226.16 146,220.91 158.44,216.49 170.8,211.86 186.14,205.8 198.34,200.75 219.53,191.55 279.72,164.47 294.87,157.95 313.19,150.42 334.74,142.11 350.26,136.51 372.15,129.13 387.89,124.19 410.06,117.69 432.35,111.64 454.76,106.02 480.47,100.05 506.29,94.52 535.42,88.76 564.64,83.43 597.18,77.95" fill="none" stroke="#000000" stroke-width="1"/><polyline id="SvgjsPolyline16739" points="1.31,252.75 23.94,248.09 40.06,244.55 56.13,240.82 78.54,235.23 97.66,230.07 113.51,225.48 129.27,220.62 144.95,215.46 157.41,211.12 172.9,205.42 197.45,195.72 218.74,186.76 279.24,160.39 294.46,154.02 312.84,146.66 331.36,139.65 350.02,133.01 365.66,127.77 387.71,120.87 409.9,114.45 432.21,108.48 457.84,102.14 483.58,96.28 509.41,90.84 541.81,84.56 564.54,80.47 597.09,75.02" fill="none" stroke="#000000" stroke-width="1"/><polyline id="SvgjsPolyline16740" points="0.15,246.86 19.55,242.92 38.9,238.73 54.98,235.03 77.41,229.5 93.36,225.27 109.24,220.8 128.2,215.08 143.9,210.01 156.39,205.75 171.92,200.17 196.56,190.69 220.99,180.68 281.79,155.01 297.09,148.83 315.55,141.68 337.25,133.76 352.86,128.41 371.7,122.31 390.65,116.57 412.88,110.29 435.22,104.44 457.67,98.98 483.42,93.16 512.49,87.11 538.42,82.12 561.15,78.02 596.95,72.03" fill="none" stroke="#000000" stroke-width="1"/><polyline id="SvgjsPolyline16741" points="2.21,240.34 24.84,235.7 44.18,231.46 60.25,227.72 79.47,222.95 95.42,218.73 111.31,214.26 127.12,209.55 142.85,204.56 167.83,196.03 195.66,185.66 217.13,177.14 281.26,150.88 312.04,138.99 330.66,132.25 352.53,124.82 374.56,117.85 393.55,112.24 415.81,106.1 441.4,99.58 467.09,93.54 489.66,88.61 515.53,83.34 538.22,79.02 567.46,73.82 596.77,68.98" fill="none" stroke="#000000" stroke-width="1"/><polyline id="SvgjsPolyline16742" points="1.05,234.45 20.46,230.53 39.82,226.37 62.32,221.18 78.34,217.23 94.31,213.06 110.21,208.66 129.2,203.06 141.8,199.12 157.48,193.96 169.95,189.66 197.84,179.45 222.45,169.88 280.71,146.71 299.21,139.65 314.7,133.96 336.5,126.35 355.31,120.17 377.39,113.37 393.24,108.78 415.53,102.72 437.92,97.05 466.84,90.28 489.42,85.39 515.29,80.16 544.48,74.68 573.75,69.59 599.8,65.36" fill="none" stroke="#000000" stroke-width="1"/><polyline id="SvgjsPolyline16743" points="3.12,227.93 22.53,224 41.89,219.83 61.18,215.41 80.42,210.7 96.38,206.54 112.29,202.16 128.13,197.54 143.9,192.68 156.46,188.62 172.09,183.33 196.94,174.42 221.64,165.09 283.21,141.33 314.21,130.03 332.94,123.6 351.77,117.48 373.86,110.72 392.89,105.27 418.4,98.45 440.82,92.89 466.54,86.96 489.13,82.11 518.25,76.29 540.96,72.06 573.47,66.41 599.54,62.2" fill="none" stroke="#000000" stroke-width="1"/><polyline id="SvgjsPolyline16744" points="1.97,222.04 18.15,218.81 40.74,214.02 72.89,206.57 88.9,202.55 108.03,197.45 123.9,192.95 139.71,188.22 161.72,181.22 189.82,171.6 217.73,161.43 285.71,135.97 301.24,130.39 319.95,123.91 338.75,117.7 357.65,111.78 376.63,106.16 395.7,100.83 418.04,94.96 440.48,89.46 462.99,84.3 488.81,78.77 511.46,74.24 540.65,68.79 566.66,64.26 599.24,58.98" fill="none" stroke="#000000" stroke-width="1"/><polyline id="SvgjsPolyline16745" points="0.82,216.15 36.39,208.9 55.72,204.61 74.99,200.06 94.19,195.23 106.95,191.84 126.01,186.51 141.83,181.82 167.01,173.87 192.02,165.42 216.89,156.58 278.89,133.95 297.56,127.35 316.3,120.96 331.98,115.83 354.04,108.96 373.03,103.37 395.3,97.21 420.86,90.62 443.32,85.22 469.08,79.45 491.69,74.72 517.6,69.64 540.32,65.46 566.33,60.96 598.91,55.7" fill="none" stroke="#000000" stroke-width="1"/><polyline id="SvgjsPolyline16746" points="2.91,209.63 22.33,205.77 41.7,201.69 73.87,194.34 93.09,189.57 109.05,185.38 137.64,177.32 162.88,169.59 191.1,160.33 219.16,150.6 281.36,128.52 300.09,122.1 318.88,115.88 337.76,109.9 356.71,104.18 375.75,98.72 394.85,93.53 417.23,87.81 442.91,81.68 465.46,76.66 491.3,71.27 517.22,66.23 539.94,62.08 569.22,57.06 598.54,52.37" fill="none" stroke="#000000" stroke-width="1"/><polyline id="SvgjsPolyline16747" points="1.77,203.74 37.35,196.56 69.56,189.37 101.6,181.46 120.72,176.34 136.6,171.86 158.74,165.26 190.18,155.22 218.32,145.72 283.82,123.11 318.31,111.79 340.38,104.96 356.21,100.29 375.26,94.92 397.58,88.97 419.99,83.37 442.48,78.09 465.04,73.11 490.89,67.77 520.06,62.16 542.79,58.07 568.82,53.65 598.15,48.99" fill="none" stroke="#000000" stroke-width="1"/><polyline id="SvgjsPolyline16748" points="0.64,197.85 20.08,194.06 39.47,190.06 74.89,182.13 90.93,178.25 110.11,173.35 138.75,165.49 164.07,158.01 192.4,149.09 214.34,141.87 280.03,119.77 317.72,107.65 339.83,100.95 358.85,95.45 377.94,90.2 397.1,85.2 419.53,79.66 442.03,74.44 464.6,69.51 490.46,64.21 513.14,59.85 542.37,54.58 568.4,50.19 597.74,45.55" fill="none" stroke="#000000" stroke-width="1"/><polyline id="SvgjsPolyline16749" points="2.76,191.34 38.36,184.24 70.59,177.15 86.64,173.36 105.86,168.58 137.73,160.04 163.09,152.7 194.63,142.98 279.33,115.33 313.95,104.42 336.08,97.8 355.12,92.36 374.22,87.15 396.59,81.37 422.24,75.14 441.54,70.73 464.12,65.85 489.99,60.6 512.68,56.27 538.67,51.6 564.7,47.2 597.29,42.05" fill="none" stroke="#000000" stroke-width="1"/><polyline id="SvgjsPolyline16750" points="1.64,185.44 37.25,178.42 69.5,171.42 85.57,167.68 104.8,162.97 120.78,158.86 139.9,153.7 165.29,146.45 193.72,137.87 278.62,110.85 316.48,99.22 351.36,89.19 376.86,82.35 392.85,78.28 418.51,72.08 441.04,66.97 466.86,61.47 489.51,56.93 515.45,52.04 544.7,46.88 570.75,42.57 596.83,38.5" fill="none" stroke="#000000" stroke-width="1"/><polyline id="SvgjsPolyline16751" points="0.53,179.54 32.93,173.25 68.43,165.68 100.56,158.14 135.71,149.11 161.15,142.05 192.81,132.74 281.06,105.36 312.66,95.86 334.87,89.48 353.95,84.22 376.29,78.35 398.71,72.77 417.98,68.21 443.74,62.46 469.58,57.05 495.49,51.97 521.45,47.19 547.47,42.68 573.52,38.43 599.61,34.41" fill="none" stroke="#000000" stroke-width="1"/><polyline id="SvgjsPolyline16752" points="2.67,173.04 38.3,166.11 67.35,159.94 99.51,152.51 134.7,143.63 160.18,136.71 188.73,128.53 217.19,120.03 280.33,100.82 318.34,89.7 340.59,83.51 359.72,78.4 378.9,73.49 398.14,68.79 420.64,63.56 446.43,57.91 465.81,53.9 491.72,48.82 520.93,43.46 543.7,39.53 566.49,35.79 599.11,30.76" fill="none" stroke="#000000" stroke-width="1"/><polyline id="SvgjsPolyline16753" points="1.58,167.14 30.75,161.58 66.29,154.19 101.68,146.11 133.7,138.14 159.21,131.36 184.64,124.25 216.33,115.03 285.93,94.39 317.67,85.34 336.76,80.11 359.1,74.23 397.55,64.76 420.07,59.59 449.1,53.33 474.98,48.11 494.42,44.39 520.4,39.68 543.17,35.78 569.23,31.55 598.58,27.06" fill="none" stroke="#000000" stroke-width="1"/><polyline id="SvgjsPolyline16754" points="0.49,161.24 32.92,155.1 65.24,148.44 100.65,140.48 132.71,132.65 161.44,125.14 190.08,117.25 282.03,90.72 320.17,80.07 342.49,74.12 361.67,69.21 396.95,60.68 422.7,54.87 445.3,50.05 471.18,44.84 490.63,41.13 516.6,36.42 545.88,31.44 571.95,27.26 598.05,23.31" fill="none" stroke="#000000" stroke-width="1"/><polyline id="SvgjsPolyline16755" points="2.66,154.75 31.85,149.26 67.41,142 99.63,134.84 128.51,127.94 157.29,120.61 189.16,112.05 281.27,86.08 322.66,74.79 341.82,69.79 364.22,64.17 399.55,55.81 422.1,50.81 441.47,46.71 464.12,42.15 493.29,36.61 519.28,31.97 542.06,28.12 571.39,23.44 597.49,19.5" fill="none" stroke="#000000" stroke-width="1"/><polyline id="SvgjsPolyline16756" points="1.59,148.84 37.27,142.16 69.6,135.57 98.61,129.2 130.73,121.63 159.53,114.4 188.25,106.83 286.88,79.67 318.77,71.16 360.36,60.66 398.92,51.64 421.49,46.7 444.1,41.99 470,36.88 492.71,32.64 518.71,28.04 544.74,23.69 567.56,20.07 596.93,15.65" fill="none" stroke="#000000" stroke-width="1"/><polyline id="SvgjsPolyline16757" points="0.53,142.94 36.22,136.33 65.34,130.5 94.38,124.27 129.75,116.11 152.19,110.62 184.16,102.43 282.94,75.85 324.45,65.01 346.87,59.42 369.33,54.03 404.73,46.01 430.55,40.53 453.2,35.96 475.89,31.61 501.86,26.89 547.42,19.22 573.5,15.15 599.62,11.29" fill="none" stroke="#000000" stroke-width="1"/><polyline id="SvgjsPolyline16758" points="2.72,136.45 35.18,130.49 67.55,124.07 99.82,117.18 131.99,109.81 154.44,104.4 189.64,95.51 282.17,71.11 317.33,62.08 355.8,52.68 378.3,47.47 400.86,42.46 423.45,37.67 449.33,32.46 475.27,27.52 498,23.41 520.76,19.49 550.08,14.71 599.02,7.34" fill="none" stroke="#000000" stroke-width="1"/><polyline id="SvgjsPolyline16759" points="1.68,130.54 37.39,124.04 66.53,118.32 98.82,111.53 131.02,104.29 156.71,98.19 185.54,91.06 287.8,64.71 323.01,55.91 364.76,46.01 403.43,37.47 426.04,32.77 451.94,27.65 474.64,23.39 500.63,18.75 549.47,10.68 598.42,3.36" fill="none" stroke="#000000" stroke-width="1"/><polyline id="SvgjsPolyline16760" points="0.64,124.63 33.12,118.81 65.53,112.56 101.07,105.18 130.06,98.75 158.99,92 184.64,85.77 277.43,62.35 319.08,52.07 354.41,43.75 399.53,33.82 418.92,29.8 444.82,24.67 470.76,19.8 493.5,15.74 542.34,7.63 591.28,0.26" fill="none" stroke="#000000" stroke-width="1"/><polyline id="SvgjsPolyline16761" points="2.86,118.16 35.35,112.36 67.76,106.15 100.09,99.52 129.11,93.2 158.06,86.57 186.95,79.68 279.85,56.71 311.92,48.93 350.49,39.95 392.4,30.78 427.96,23.53 473.37,14.98 515.64,7.69 561.28,0.49" fill="none" stroke="#000000" stroke-width="1"/><polyline id="SvgjsPolyline16762" points="1.85,112.24 37.59,105.92 66.77,100.39 102.35,93.18 128.16,87.64 153.92,81.86 186.06,74.37 279.07,51.84 320.81,41.96 356.22,33.94 388.48,27.01 420.82,20.44 456.48,13.65 495.47,6.75 534.55,0.35" fill="none" stroke="#000000" stroke-width="1"/><polyline id="SvgjsPolyline16763" points="0.84,106.33 33.35,100.67 65.79,94.62 98.16,88.18 127.22,82.07 156.22,75.67 185.17,69.04 310.42,39.44 345.83,31.46 381.33,23.85 416.91,16.66 446.08,11.1 475.31,5.83 507.85,0.31" fill="none" stroke="#000000" stroke-width="1"/><polyline id="SvgjsPolyline16764" points="3.09,99.86 29.11,95.39 61.57,89.46 90.73,83.8 119.82,77.85 148.86,71.62 174.63,65.88 296.79,37.57 351.56,25.4 380.62,19.29 412.98,12.82 445.41,6.7 481.15,0.36" fill="none" stroke="#000000" stroke-width="1"/><polyline id="SvgjsPolyline16765" points="2.1,93.95 34.62,88.38 60.6,83.67 86.53,78.73 115.66,72.9 138.27,68.18 170.52,61.19 292.81,33.41 347.6,21.4 376.68,15.36 402.57,10.19 428.5,5.24 454.48,0.51" fill="none" stroke="#000000" stroke-width="1"/><polyline id="SvgjsPolyline16766" points="1.12,88.03 36.91,81.96 69.38,76.08 98.55,70.49 127.66,64.63 159.96,57.84 188.98,51.53 288.81,29.2 330.73,20.08 382.44,9.42 431.06,0.13" fill="none" stroke="#000000" stroke-width="1"/><polyline id="SvgjsPolyline16767" points="0.15,82.11 35.95,76.11 65.19,70.9 91.14,66.05 123.52,59.69 152.61,53.72 188.12,46.16 281.59,25.64 317.08,17.99 362.32,8.62 404.42,0.4" fill="none" stroke="#000000" stroke-width="1"/><polyline id="SvgjsPolyline16768" points="2.44,75.66 31.74,70.81 67.49,64.53 99.94,58.48 129.08,52.78 187.26,40.77 309.86,14.45 345.41,7.11 381.02,0.07" fill="none" stroke="#000000" stroke-width="1"/><polyline id="SvgjsPolyline16769" points="1.49,69.73 30.8,64.94 60.07,59.9 92.53,54 131.42,46.54 183.17,36.04 305.87,10.18 354.39,0.36" fill="none" stroke="#000000" stroke-width="1"/><polyline id="SvgjsPolyline16770" points="0.54,63.81 36.37,57.99 68.89,52.38 101.36,46.48 127.3,41.56 179.09,31.27 282.49,9.83 327.76,0.63" fill="none" stroke="#000000" stroke-width="1"/><polyline id="SvgjsPolyline16771" points="2.87,57.37 32.19,52.66 64.73,47.16 97.22,41.37 126.41,35.93 184.71,24.51 304.36,0.18" fill="none" stroke="#000000" stroke-width="1"/><polyline id="SvgjsPolyline16772" points="1.94,51.44 28.01,47.32 60.57,41.91 86.58,37.39 122.29,30.9 177.39,20.34 277.7,0.28" fill="none" stroke="#000000" stroke-width="1"/><polyline id="SvgjsPolyline16773" points="1.02,45.51 33.62,40.39 59.67,36.1 114.93,26.43 173.31,15.48 251.03,0.23" fill="none" stroke="#000000" stroke-width="1"/><polyline id="SvgjsPolyline16774" points="0.11,39.58 52.27,31.36 104.32,22.48 162.75,11.81 224.33,0.01" fill="none" stroke="#000000" stroke-width="1"/><polyline id="SvgjsPolyline16775" points="2.48,33.15 44.87,26.57 90.45,19.01 132.7,11.59 194.35,0.19" fill="none" stroke="#000000" stroke-width="1"/><polyline id="SvgjsPolyline16776" points="1.59,27.22 40.73,21.23 83.07,14.35 122.11,7.66 164.33,0.1" fill="none" stroke="#000000" stroke-width="1"/><polyline id="SvgjsPolyline16777" points="0.71,21.28 30.08,16.88 62.68,11.76 95.24,6.41 131.02,0.29" fill="none" stroke="#000000" stroke-width="1"/><polyline id="SvgjsPolyline16778" points="3.09,14.87 45.52,8.49 97.65,0.12" fill="none" stroke="#000000" stroke-width="1"/><polyline id="SvgjsPolyline16779" points="2.23,8.93 60.97,0.1" fill="none" stroke="#000000" stroke-width="1"/><polyline id="SvgjsPolyline16780" points="1.37,2.99 20.97,0.16" fill="none" stroke="#000000" stroke-width="1"/></g></svg>