<?xml version="1.0" standalone="no"?>
<svg id="SvgjsSvg1001" width="600" height="600" xmlns="http://www.w3.org/2000/svg" version="1.1" xmlns:xlink="http://www.w3.org/1999/xlink" xmlns:svgjs="http://svgjs.com/svgjs" class="svg-paper" viewBox="0 0 600 600"><title id="SvgjsTitle1008">x=cos((cos(y) - x * y))|y=x|dTest=0.0|sd=0.2|sm=0.2|ts=0.05 | generated with FlowLines</title><g id="SvgjsG1009"><polyline id="SvgjsPolyline1010" points="0,521.08 1.34,529.98 1.81,538.96 1.51,544.95 0.22,553.85" fill="none" stroke="#000000" stroke-width="1"/><polyline id="SvgjsPolyline1011" points="16.03,2.46 15.14,11.41 11.75,29.09 11.03,38.05 11.87,47 14.62,61.74 15.05,67.72 14.85,73.72 13.59,82.63 10.22,100.31 9.56,109.27 10.22,118.24 14.01,138.89 14.56,144.87 14.6,150.86 13.34,162.79 8.84,186.36 8.1,192.31 7.76,198.3 7.9,204.3 8.49,210.27 12.87,233.86 13.59,239.82 13.85,245.81 13.62,251.8 12.94,257.76 9.05,278.4 8.11,287.34 8.15,293.34 8.75,299.31 12.09,316.99 13.03,325.94 12.58,334.92 9.34,352.62 8.73,358.58 9.05,367.57 12.29,385.27 13.15,394.22 12.47,403.18 9.69,417.92 9.05,426.89 9.85,435.85 13.22,453.53 14.02,462.48 13.42,471.45 9.76,492.12 9.43,501.11 9.87,507.09 10.71,513.03 16.29,542.5 16.91,548.47 17.11,554.47 16.82,560.46 16.07,566.41 12.21,587.05 11.65,593.02 11.57,599.02" fill="none" stroke="#000000" stroke-width="1"/><polyline id="SvgjsPolyline1012" points="28.02,2.08 23.96,22.68 23.28,31.64 24.12,40.59 27.01,55.31 27.51,61.29 27.33,67.28 26.03,76.18 22.48,93.82 21.62,102.78 21.77,108.77 22.49,114.73 26.42,135.35 26.9,141.33 26.84,147.33 25.39,159.23 20.21,185.72 19.57,191.69 19.35,197.68 19.6,203.68 20.29,209.64 24.9,233.19 25.67,239.14 26.01,245.12 25.86,251.12 25.25,257.09 20.69,280.65 19.91,286.59 19.62,292.58 20.26,301.55 24.22,322.17 25.03,331.13 24.42,340.1 21.01,357.77 20.37,363.73 20.68,372.72 24.54,393.35 25.13,402.32 24.2,411.26 21.31,425.98 20.73,434.95 21.61,443.9 25.61,464.51 26.23,473.48 25.5,482.44 21.61,503.07 21.12,512.05 21.47,518.04 22.25,523.99 27.04,547.5 28.54,556.38 29.18,562.34 29.42,568.34 29.2,574.33 28.51,580.29 24.96,597.93" fill="none" stroke="#000000" stroke-width="1"/><polyline id="SvgjsPolyline1013" points="4.04,2.85 5.04,11.78 4.86,17.77 4.1,23.72 1.31,38.46 0.42,47.41 0.63,53.4 3.66,71.14 4.25,80.11 3.45,89.07 0.16,106.76" fill="none" stroke="#000000" stroke-width="1"/><polyline id="SvgjsPolyline1014" points="0.08,129.43 3.31,147.13 4.05,156.1 3.92,162.09 3.32,168.06 0.1,185.77" fill="none" stroke="#000000" stroke-width="1"/><polyline id="SvgjsPolyline1015" points="0.08,230.37 2.09,242.2 2.66,251.17 2.12,260.15 0.12,271.98" fill="none" stroke="#000000" stroke-width="1"/><polyline id="SvgjsPolyline1016" points="0.31,319.26 1.03,325.21 1.17,331.21 0.23,340.15" fill="none" stroke="#000000" stroke-width="1"/><polyline id="SvgjsPolyline1017" points="0.01,384.75 0.86,393.7 0.23,402.67" fill="none" stroke="#000000" stroke-width="1"/><polyline id="SvgjsPolyline1018" points="0.01,447.1 0.79,453.05 1.17,459.03 0.91,465.02 0.08,470.96" fill="none" stroke="#000000" stroke-width="1"/><polyline id="SvgjsPolyline1019" points="0.08,294.04 1.2,302.96 3.97,317.7 4.6,323.67 4.39,332.66 1.29,350.38 0.61,356.34 0.81,365.33 3.92,383.05 4.76,392 4.07,400.97 1.38,415.72 0.88,424.7 1.8,433.65 5.02,451.35 5.49,457.33 4.99,466.31 1.47,487 1.22,495.99 2.61,507.9 6.51,528.53 7.22,534.49 7.51,540.48 7.28,546.48 6.57,552.43 3.21,570.11 2.02,579.03 1.85,588.02 3.1,599.95" fill="none" stroke="#000000" stroke-width="1"/><polyline id="SvgjsPolyline1020" points="40.47,1.02 38.35,12.83 38.06,21.81 38.76,27.77 41.28,39.5 42.24,45.42 42.43,54.41 41.23,63.32 36.91,83.87 36.21,89.82 36.07,95.82 37.03,104.76 41.16,125.34 41.66,131.32 41.61,137.32 40.13,149.22 34.57,175.63 33.45,184.56 33.21,190.56 33.44,196.55 34.11,202.51 39.49,228.96 40.29,234.91 40.66,240.9 40.56,246.89 39.99,252.87 38.46,261.73 34.67,279.33 33.82,285.27 33.46,291.25 33.97,300.23 34.93,306.15 38.62,323.77 39.43,332.72 38.81,341.69 35.21,359.33 34.27,368.27 34.86,377.24 38.99,397.82 39.61,406.79 38.68,415.73 35.16,433.38 34.81,442.36 35.88,451.29 40.17,471.84 41.08,480.79 40.97,486.79 40.28,492.74 36.59,510.36 35.7,516.29 35.31,525.28 35.69,531.26 36.98,540.17 42.74,566.54 44.82,578.36 45.75,590.32 45.31,599.3" fill="none" stroke="#000000" stroke-width="1"/><polyline id="SvgjsPolyline1021" points="52.23,0.69 52.12,6.69 52.56,12.67 56.29,30.27 57.04,39.22 56.64,45.21 55.69,51.13 51.66,68.67 50.58,74.57 49.96,80.54 49.94,86.54 51.11,95.45 54.98,113.03 55.68,118.98 55.82,124.98 55.42,130.97 54.57,136.9 47.59,169.15 46.55,178.09 46.38,184.08 46.67,190.07 47.91,198.99 53.63,225.37 54.61,234.31 54.7,240.31 54.32,246.29 53.53,252.24 47.31,281.58 46.66,287.54 46.54,293.54 47,299.52 47.95,305.44 52.4,325.96 53.14,334.92 52.42,343.89 48.61,361.47 47.52,370.4 47.98,379.38 49.02,385.28 52.33,399.91 53.39,408.84 52.91,417.82 48.66,438.37 48.08,447.34 48.53,453.32 49.49,459.24 54.61,482.69 55.31,488.64 55.48,494.64 55.07,500.62 54.14,506.55 49.69,527.07 49.02,533.03 48.86,539.02 49.49,548 50.9,556.88 60.16,597.84" fill="none" stroke="#000000" stroke-width="1"/><polyline id="SvgjsPolyline1022" points="64.16,1.95 68.1,19.51 68.8,25.46 68.76,31.46 67.51,40.37 62.07,63.74 61.26,69.68 61.04,75.67 61.96,84.62 66.54,105.1 67.18,111.07 67.22,117.06 66.71,123.04 65.77,128.97 58.41,161.13 57.23,170.05 56.94,176.04 57.12,182.04 57.75,188 59.39,196.85 64.78,220.23 65.88,229.16 66.07,235.15 65.8,241.15 64.62,250.06 58.02,279.32 57.23,285.27 56.93,291.26 57.21,297.25 58.01,303.2 62.7,323.66 63.69,329.58 64.12,335.56 63.52,344.53 59,365.03 58.06,373.97 58.7,382.94 63.29,403.42 64.22,409.35 64.53,415.33 63.66,424.28 60.26,438.89 59.2,444.79 58.76,453.77 59.28,459.75 60.3,465.66 64.52,483.15 66.3,491.98 67.04,497.93 67.29,503.92 66.99,509.91 66.16,515.85 62.05,533.37 60.44,542.22 59.92,548.2 59.89,554.2 60.64,563.16 62.09,572.04 64.68,583.76 68.37,598.3" fill="none" stroke="#000000" stroke-width="1"/><polyline id="SvgjsPolyline1023" points="76.03,0.14 78.66,11.84 79.09,17.82 78.78,23.81 77.24,32.67 71.56,55.99 70.76,61.93 70.56,67.92 71.55,76.86 76.31,97.3 76.94,103.27 76.96,109.26 76.41,115.24 74.81,124.09 68.98,147.37 67.18,156.19 66.09,165.12 65.89,171.11 66.15,177.11 66.87,183.06 68.63,191.89 74.25,215.21 75.46,224.13 75.74,230.12 75.58,236.12 74.54,245.05 72.76,253.87 67.09,277.19 65.86,286.1 65.68,292.1 66.06,298.08 66.97,304.01 71.87,324.43 72.91,330.34 73.4,336.31 72.89,345.29 71.8,351.19 67.67,368.7 66.95,377.66 67.82,386.61 73.2,409.99 73.95,418.95 73.11,427.9 68.41,448.36 67.77,454.32 67.81,460.32 68.46,466.28 69.56,472.17 75.94,498.41 76.91,504.33 77.47,510.3 77.37,519.29 76.64,525.25 70.54,551.54 69.71,557.48 69.34,563.46 69.44,569.46 70.31,578.42 71.82,587.29 74.45,599" fill="none" stroke="#000000" stroke-width="1"/><polyline id="SvgjsPolyline1024" points="89.03,0.18 89.37,9.17 88.82,15.14 87.05,23.96 81.7,44.26 80.6,50.16 80.02,56.13 80.12,62.13 80.93,68.07 85.32,85.52 86.32,91.43 86.71,97.42 86.46,103.41 84.51,115.24 78.45,138.46 76.48,147.24 75.14,156.14 74.74,162.13 74.8,168.12 75.78,177.07 77.6,185.88 83.5,209.14 84.87,218.03 85.34,227.01 85.1,233.01 83.98,241.93 82.16,250.74 76.18,273.99 74.65,282.85 74.2,288.83 74.31,294.83 74.97,300.79 76.79,309.6 81.21,327.05 82.16,332.97 82.52,338.96 81.79,347.91 80.58,353.79 76.87,368.32 75.68,377.23 75.77,383.23 76.55,389.18 81.59,409.56 82.68,415.45 83.2,421.43 83,427.42 82.1,433.35 77.2,453.76 76.56,459.72 76.59,465.72 77.22,471.69 78.31,477.59 84.36,500.81 86.33,509.59 87.67,518.48 88.07,524.47 87.75,533.46 86.91,539.4 85.66,545.27 81.09,562.67 79.52,571.53 79.03,577.51 79,583.51 79.38,589.5 80.55,598.42" fill="none" stroke="#000000" stroke-width="1"/><polyline id="SvgjsPolyline1025" points="101.16,2.06 99.25,10.85 92.86,33.98 91.74,39.87 91.15,45.84 91.27,51.84 92.13,57.77 96.74,75.17 97.78,81.07 98.17,87.06 97.89,93.05 97.07,98.99 95.85,104.86 87.34,136.74 85.77,145.6 85.07,154.57 85.18,160.56 86.25,169.5 88.18,178.28 94.39,201.46 95.94,210.33 96.6,219.3 96.32,228.29 95.15,237.21 92.56,248.92 86.27,272.08 84.59,280.92 84.02,286.89 83.98,292.89 84.97,301.83 86.94,310.61 91.58,328 92.61,333.91 93.06,339.89 92.82,345.88 91.92,351.81 86.7,372.14 85.64,381.07 85.84,387.06 86.73,392.99 92.71,416.23 93.68,422.15 94.02,428.14 93.62,434.12 92.56,440.02 88.65,454.5 87.41,460.37 86.73,466.33 86.71,472.33 87.29,478.3 88.99,487.13 96.19,513.15 99,524.82 100.88,536.66 101.36,545.65 101.14,551.64 99.92,560.55 98.59,566.4 93.04,586.65 91.95,592.55 91.32,598.52" fill="none" stroke="#000000" stroke-width="1"/><polyline id="SvgjsPolyline1026" points="113.9,1.13 110.39,12.6 108.32,21.36 107.51,27.3 107.36,33.3 108.6,42.2 112.84,56.58 114.19,62.43 114.88,68.38 114.55,77.37 113.61,83.29 112.26,89.14 104.56,115.01 102.3,123.72 100.66,132.57 99.93,141.53 100.3,150.52 101.76,159.4 104.02,168.11 109.17,185.35 111.21,194.12 112.48,203.02 112.85,212.01 112.31,220.99 110.39,232.83 107.46,244.47 99.91,270.39 98.13,279.2 97.33,288.16 97.48,294.16 98.72,303.07 106.52,332.02 107.45,337.95 107.74,343.94 107.32,349.92 106.25,355.82 101.34,373.13 100.08,379 99.45,387.96 99.96,393.94 101.1,399.83 106.88,420.01 108.21,425.86 109.04,431.8 109.19,437.8 108.07,446.72 103.18,464.03 101.81,469.87 100.97,475.81 100.76,481.8 101.54,490.76 104.01,502.5 117.02,545.57 122.31,565.9 125.6,583.59 126.55,592.53 126.8,598.53" fill="none" stroke="#000000" stroke-width="1"/><polyline id="SvgjsPolyline1027" points="105.61,2.87 99.05,25.95 97.96,31.85 97.48,37.82 97.52,40.82 98.22,46.78 102.93,64.14 104.14,70.02 104.72,75.99 104.36,84.97 102.19,96.76 93.43,128.58 91.78,137.42 91.03,146.38 91.39,155.37 92.83,164.25 99.96,190.28 101.85,199.08 103.12,211.01 103,220 102.01,228.94 100.31,237.78 93.15,263.81 91.06,272.56 89.77,281.46 89.53,287.46 89.86,293.45 90.72,299.38 92.01,305.24 97.57,325.49 98.68,331.38 99.2,337.36 99.02,343.35 98.17,349.29 92.83,369.59 91.54,378.49 91.57,384.48 92.3,390.44 93.57,396.3 99.1,416.55 100.1,422.47 100.45,428.45 100.05,434.43 98.95,440.33 94.95,454.78 93.63,460.64 92.85,466.58 92.84,475.57 93.53,481.53 95.3,490.35 105.21,524.96 108.06,536.62 110.08,548.44 110.79,557.41 110.54,566.4 108.91,578.28 107.52,584.12 103.25,598.5" fill="none" stroke="#000000" stroke-width="1"/><polyline id="SvgjsPolyline1028" points="125.63,1.83 124.88,10.79 125.21,16.78 126.36,22.66 131,36.92 132.47,42.74 133.2,48.69 133.12,54.68 132.37,60.63 130.35,69.4 121.07,97.92 117.85,109.48 116.65,115.36 115.85,121.3 115.57,130.29 116.06,136.27 117.75,145.11 125.82,170.87 127.97,179.6 128.97,185.52 129.57,191.49 129.77,197.48 129.57,203.48 128.15,215.39 125.63,227.12 122.34,238.66 114.97,261.5 112.58,270.17 110.84,279 110.12,287.96 110.32,293.96 111.63,302.85 113.88,311.56 120.05,331.63 121.29,337.5 121.97,343.46 121.95,349.46 120.59,358.34 115.36,375.56 113.32,384.32 112.77,390.29 113.01,396.28 113.94,402.21 115.38,408.03 122.43,430.97 124.05,439.81 124.38,445.8 123.98,451.78 122.89,457.68 116.77,477.76 115.45,483.61 114.68,489.56 114.53,495.56 114.93,501.54 116.35,510.43 118.42,519.18 120.9,527.84 124.54,539.27 132.4,561.95 146.04,598.48" fill="none" stroke="#000000" stroke-width="1"/><polyline id="SvgjsPolyline1029" points="136.77,1.06 138.95,9.79 143.02,21.07 144.69,26.83 145.6,32.76 145.74,35.75 145.41,41.74 144.43,47.66 142.16,56.37 131.29,87.52 127.95,99.04 126.7,104.91 125.86,110.85 125.58,119.84 126.11,125.81 127.92,134.62 135.53,157.38 138.64,168.96 139.64,174.88 140.24,180.85 140.22,192.84 138.83,204.75 135.63,219.4 131.35,233.78 122.71,259.35 119.48,270.91 117.86,279.76 117.3,288.73 117.62,294.72 119.09,303.6 121.47,312.27 127.92,332.26 129.76,341.06 130.25,347.04 130,353.03 129.03,358.95 127.5,364.74 122.82,378.99 121.33,384.8 120.47,390.74 120.63,399.72 121.63,405.64 123.14,411.44 128.82,428.52 131.34,437.16 132.98,446 133.32,451.99 132.95,457.97 131.88,463.88 130.28,469.66 125.51,483.88 123.37,492.61 122.47,501.56 122.82,510.55 123.62,516.49 125.4,525.31 130.2,542.66 137.79,565.42 150.11,599.25" fill="none" stroke="#000000" stroke-width="1"/><polyline id="SvgjsPolyline1030" points="149.22,1.71 152.46,10.1 154.08,15.88 154.89,21.82 154.49,30.79 153.4,36.69 151,45.36 139.61,76.33 135.89,87.74 133.23,99.43 132.39,108.39 132.86,117.37 134.65,126.18 136.4,131.92 143.44,151.7 146.32,163.34 147.15,169.28 147.56,175.27 147.19,187.25 144.97,202.08 141.36,216.64 137.81,228.1 127.93,256.43 124.49,267.92 122.19,279.69 121.66,288.67 122,294.65 123.5,303.52 125.91,312.19 130.76,326.38 133.35,335 134.59,340.87 135.24,346.83 135.16,352.83 133.69,361.69 127.22,381.67 125.8,387.49 124.94,396.44 125.36,402.42 126.45,408.32 128.02,414.11 136.52,439.73 138.38,448.53 138.92,454.5 138.78,460.5 137.27,469.36 135.59,475.11 130.67,489.29 128.44,498 127.41,506.93 127.62,515.93 129.34,527.79 133.67,545.26 140.89,568.15 151.72,599.32" fill="none" stroke="#000000" stroke-width="1"/><polyline id="SvgjsPolyline1031" points="161.47,0.04 162.9,5.86 163.43,11.83 163.1,17.82 162.09,23.73 160.62,29.55 157.85,38.11 145.9,68.86 142.01,80.22 139.15,91.86 138.14,100.8 138.45,109.78 140.16,118.61 141.92,124.35 149.19,144.05 150.89,149.8 152.19,155.66 153.06,161.59 153.48,167.58 153.48,173.58 152.81,182.55 150.28,197.33 146.52,211.84 141.93,226.12 131.81,254.37 128.23,265.82 125.7,277.54 124.92,286.5 125.37,295.48 126.99,304.33 129.5,312.97 136.28,332.84 138.35,341.59 139.03,347.55 138.97,353.55 137.52,362.42 135.83,368.18 130.93,382.35 129.42,388.16 128.41,397.09 128.73,403.07 129.74,408.98 131.27,414.78 138.18,434.61 140.84,443.21 142.7,452.01 143.26,457.98 143.14,463.98 141.67,472.84 139.99,478.6 134.05,495.59 131.97,504.34 131.11,513.29 131.42,522.28 133.18,534.15 137.44,551.63 143.55,571.72 152.06,597.34" fill="none" stroke="#000000" stroke-width="1"/><polyline id="SvgjsPolyline1032" points="173.94,0.04 172.39,8.9 169.9,17.54 164.68,31.6 151.02,64.91 147.26,76.3 145.2,85.06 144.39,91 144.15,96.99 145.04,105.94 147.31,114.64 154.8,134.25 156.66,139.96 158.13,145.78 159.13,151.69 159.67,157.66 159.45,169.65 158.81,175.62 157.35,184.5 153.9,199.09 147.64,219.13 136.29,250.12 132.47,261.49 129.48,273.11 128.51,279.03 128.01,285.01 128.28,294 129.75,302.87 132.18,311.53 140,334.22 142.03,342.98 142.65,348.95 142.53,354.94 140.98,363.79 134.25,383.68 132.71,389.48 131.68,398.4 131.99,404.39 133,410.3 134.53,416.1 142.55,438.72 145.18,447.33 146.98,456.14 147.49,462.11 147.33,468.11 145.82,476.97 144.11,482.72 138.02,499.66 135.79,508.37 134.73,517.3 134.86,526.29 136.38,538.19 139.6,552.84 145.31,573.04 153.43,598.79" fill="none" stroke="#000000" stroke-width="1"/><polyline id="SvgjsPolyline1033" points="185.88,1.22 174.02,25.47 165.33,44.59 159.95,58.58 156.74,70.14 155.76,76.06 155.38,82.04 156.13,91 158.44,99.69 166.43,119.1 168.37,124.78 169.84,130.6 170.77,136.52 171.18,142.5 171.1,148.5 170.62,154.48 168.15,169.27 163.65,186.69 156.15,209.49 141.24,248.75 137.33,260.1 134.24,271.69 133.19,277.59 132.61,283.56 132.72,292.55 134.06,301.45 137.34,312.98 145.38,335.59 147.44,344.35 148.07,350.31 147.96,356.3 147.08,362.24 145.56,368.04 139.47,384.97 137.83,390.74 136.82,396.65 136.6,402.64 137.17,408.61 139.18,417.38 150.32,448.44 152.64,457.13 153.96,466.02 153.92,475.01 153.04,480.94 150.63,489.61 145.31,503.63 142.52,512.19 140.74,521 140.14,529.98 140.89,541.94 143.43,556.72 147.69,574.21 154.26,597.29" fill="none" stroke="#000000" stroke-width="1"/><polyline id="SvgjsPolyline1034" points="198.82,1.01 194.51,12.21 191.89,20.82 190.3,29.67 190.14,35.66 190.94,41.6 192.73,47.31 195.31,52.73 202.63,65.82 204.89,71.37 205.71,74.26 206.64,80.18 206.69,86.17 206.07,92.14 204.97,98.04 202.73,106.75 200.05,115.34 190.86,140.73 174.42,182.62 151.67,238.14 146.28,252.13 143.42,260.67 141.06,269.35 139.91,275.24 139.18,281.19 139.04,290.18 139.64,296.15 140.76,302.04 144.2,313.53 150.65,330.34 153.52,338.87 155.47,347.64 155.98,353.62 155.71,359.61 153.9,368.41 146.63,388.11 144.31,396.8 143.65,402.75 144.18,411.72 145.4,417.6 148.06,426.19 156.87,448.52 160.82,459.84 163.65,471.5 164.58,480.44 164.47,486.44 163.09,495.32 160.47,503.93 153.74,520.62 151.78,526.29 149.64,535.03 148.62,543.96 148.61,552.96 149.76,564.9 152.34,579.67 156.32,597.22" fill="none" stroke="#000000" stroke-width="1"/><polyline id="SvgjsPolyline1035" points="194.23,1.97 186.5,18.22 183.15,26.57 181.23,32.26 179.11,41 178.28,46.94 177.99,52.93 178.56,58.89 180.03,64.71 182.25,70.28 190.23,86.41 193.03,94.95 193.98,100.87 194.19,106.86 193.8,112.85 192.4,121.73 190.35,130.5 187.02,142.02 178.28,167.57 167.67,195.63 148.59,242.92 143.43,257.01 140.83,265.62 139.43,271.45 138.41,277.37 137.84,283.34 137.99,292.33 139.35,301.22 142.68,312.74 149.07,329.57 151.95,338.09 153.94,346.86 154.49,352.83 154.27,358.82 152.54,367.64 150.67,373.35 145.34,387.36 143.02,396.05 142.34,402.01 142.31,405.01 142.85,410.98 144.05,416.86 145.73,422.61 155.42,447.81 159.27,459.18 161.37,467.92 162.45,476.85 162.44,482.85 161.21,491.75 158.68,500.38 152.04,517.11 150.09,522.79 147.96,531.53 146.97,540.46 147.2,552.45 148.67,564.36 151.52,579.09 156.47,599.49" fill="none" stroke="#000000" stroke-width="1"/><polyline id="SvgjsPolyline1036" points="190.45,2.62 180.96,21.36 173.83,37.88 170.16,49.3 168.94,55.17 168.36,61.14 168.6,67.13 169.52,73.05 171.03,78.86 173.19,84.45 180.7,100.81 182.65,106.48 183.99,112.32 184.67,118.28 184.74,124.28 184.31,130.26 182.96,139.16 181.04,147.95 178.72,156.65 171.44,179.51 164.29,199.26 146.66,243.9 141.56,258.01 139.01,266.64 137.67,272.48 136.71,278.4 136.22,284.38 136.49,293.37 137.97,302.24 141.39,313.74 149.63,336.27 151.78,345.01 152.49,350.96 152.45,356.96 151.63,362.89 149.2,371.55 143.91,385.59 142.14,391.32 140.97,397.2 140.56,403.18 140.97,409.17 142.83,417.97 145.63,426.52 153.22,446.09 156.13,454.61 158.41,463.31 159.71,472.21 159.68,481.2 158.18,490.07 155.47,498.64 148,518.26 145.86,527 144.87,535.94 144.8,541.94 145.13,547.93 146.67,559.82 150.3,577.45 155.51,597.79" fill="none" stroke="#000000" stroke-width="1"/><polyline id="SvgjsPolyline1037" points="209.11,2.86 210.56,8.68 212.88,14.2 216.05,19.29 222.93,29.12 225.59,34.49 226.5,37.35 227.09,40.29 227.34,46.27 226.66,52.23 225.37,58.09 221.82,69.55 214.28,89.14 186.45,155.55 148.76,247.09 144.75,258.4 142.24,267.04 140.43,275.86 139.76,281.82 139.71,290.81 140.37,296.77 141.55,302.65 144.08,311.29 151.55,330.91 154.4,339.45 156.3,348.23 156.77,354.21 156.45,360.2 154.57,368.99 147.26,388.67 145.58,394.43 144.55,400.33 144.34,403.33 144.53,409.32 145.46,415.24 147.86,423.91 158.76,451.86 162.56,463.24 164.62,471.99 165.67,480.93 165.42,489.91 163.76,498.75 160.92,507.29 155.22,521.16 152.28,529.66 150.84,535.49 149.61,544.4 149.43,553.39 150.39,565.35 152.82,580.15 156.69,597.72" fill="none" stroke="#000000" stroke-width="1"/><polyline id="SvgjsPolyline1038" points="202.91,0.25 201.64,6.11 201.11,12.08 201.69,18.04 202.46,20.94 205.9,29.25 215.4,44.53 217.79,50.02 218.61,52.91 219.13,55.86 219.36,61.85 218.74,67.82 217.55,73.69 213.21,88.05 205.78,107.68 147.82,249.28 144.83,257.77 142.28,266.4 140.41,275.2 139.69,281.15 139.55,290.15 140.15,296.11 141.27,302.01 144.72,313.49 151.18,330.29 154.08,338.81 156.06,347.58 156.6,353.55 156.37,359.55 154.6,368.36 152.71,374.05 147.31,388.05 144.94,396.72 144.23,402.67 144.69,411.65 145.87,417.53 148.51,426.13 157.34,448.44 161.37,459.74 164.33,471.36 165.44,480.29 165.24,489.28 163.62,498.12 160.82,506.67 153.07,526.18 150.71,534.86 149.75,540.79 149.22,549.76 149.58,558.75 151.04,570.66 153.21,582.46" fill="none" stroke="#000000" stroke-width="1"/><polyline id="SvgjsPolyline1039" points="219.83,1.09 228.94,13 232.08,18.11 234.06,23.75 234.51,26.72 234.47,32.71 232.86,41.55 228.32,55.84 221.75,72.6 207.66,105.73" fill="none" stroke="#000000" stroke-width="1"/><polyline id="SvgjsPolyline1040" points="283.39,1.1 278.21,18.34 271.22,38.14 266.49,49.17 262.23,57.09 258.98,62.13 253.59,69.33 229.98,96.51 218.97,110.74 212.14,120.61 205.74,130.76 194.13,151.76 187.46,165.19 178.6,184.23 156.96,233.7 151.35,247.62 148.3,256.08 145.66,264.68 144.24,270.51 142.82,279.4 142.47,285.38 142.65,291.38 143.95,300.28 147.24,311.81 154.86,331.38 157.79,339.88 159.8,348.65 160.35,354.62 160.11,360.61 158.33,369.42 156.42,375.11 150.9,389.05 148.4,397.69 147.59,403.63 147.61,409.63 147.92,412.61 149.04,418.5 151.62,427.12 162.85,454.94 167.74,469.11 170.41,480.8 171.3,489.75 170.93,498.74 169.2,507.56 166.32,516.08 160.45,529.89 157.3,538.31 155.68,544.09 154.15,552.95 153.66,561.93 154.01,570.93 155.38,582.84 158,597.61" fill="none" stroke="#000000" stroke-width="1"/><polyline id="SvgjsPolyline1041" points="234.63,0.76 237.88,5.79 239.07,8.55 240.27,14.41 240.33,17.41 239.67,23.36 238.36,29.22 235.74,37.83 231.64,49.1 224.9,65.79 192.97,140.23 151.6,239.99 144.38,259.71 141.96,268.38 140.29,277.22 139.73,283.19 139.69,289.19 140.2,295.16 141.24,301.07 144.58,312.59 154,337.89 156.12,346.62 156.78,352.58 156.68,358.58 155.09,367.42 153.28,373.14 147.87,387.13 145.35,395.76 144.49,401.7 144.37,404.69 144.74,410.68 145.82,416.58 148.35,425.21 158.24,450.33 162.16,461.67 164.93,473.34 165.82,482.29 165.69,488.28 164.29,497.16 161.65,505.76 154.88,522.44 152.89,528.1 150.7,536.82 149.61,545.75 149.71,557.74 151.03,569.66 153.72,584.42 157.03,599.05" fill="none" stroke="#000000" stroke-width="1"/><polyline id="SvgjsPolyline1042" points="283.77,0.91 286.16,2.69 289.02,3.56 291.99,4.01 300.97,4.44 306.95,4.04 312.82,2.84 315.61,1.72 318.09,0.05" fill="none" stroke="#000000" stroke-width="1"/><polyline id="SvgjsPolyline1043" points="271.02,0.78 260.66,6.83 255.87,10.44 251.56,14.6 246.1,21.74 243.03,26.9 238.95,34.92 198.04,128.35 154.21,233.59 145.61,255.99 142.95,264.59 140.92,273.35 139.79,282.28 139.67,288.27 140.1,294.26 141.06,300.18 144.29,311.72 151.78,331.34 154.6,339.89 156.44,348.69 156.85,354.67 156.48,360.65 154.53,369.43 147.2,389.1 145.56,394.87 144.58,400.79 144.4,403.78 144.65,409.77 145.63,415.69 148.07,424.35 158.99,452.28 162.76,463.67 164.79,472.44 165.81,481.37 165.51,490.36 163.8,499.18 160.94,507.71 153.2,527.23 150.89,535.92 149.69,544.84 149.53,553.83 150.51,565.79 152.95,580.58 156.82,598.16" fill="none" stroke="#000000" stroke-width="1"/><polyline id="SvgjsPolyline1044" points="282.92,2.78 281.26,8.54 280.92,11.52 282.89,13.74 285.62,14.97 288.53,15.69 297.47,16.73 303.46,16.69 309.41,15.94 312.31,15.15 315.03,13.91 317.36,12.03 319.04,9.56 320.14,6.78 321.43,0.92" fill="none" stroke="#000000" stroke-width="1"/><polyline id="SvgjsPolyline1045" points="283.23,1.69 278.21,18.97 277.93,21.96 279.44,24.53 281.95,26.15 284.77,27.17 290.62,28.5 296.57,29.18 302.57,29.22 308.52,28.52 311.41,27.7 314.08,26.34 316.25,24.29 317.73,21.7 318.69,18.86 319.9,12.98 321.19,4.08" fill="none" stroke="#000000" stroke-width="1"/><polyline id="SvgjsPolyline1046" points="281.08,7.04 279.29,9.44 274.85,13.47 257.46,25.24 250.38,30.79 244.03,37.16 238.53,44.28 232.28,54.51 224.11,70.55 210.35,100.54 195.95,133.54" fill="none" stroke="#000000" stroke-width="1"/><polyline id="SvgjsPolyline1047" points="283.53,0.57 275.71,26.41 275.01,29.33 274.78,32.32 275.85,35.11 278.05,37.14 280.71,38.51 289.32,41.09 298.26,42.04 304.25,41.88 310.11,40.66 312.75,39.25 314.79,37.09 316.12,34.4 317.6,28.6 321.49,1.88" fill="none" stroke="#000000" stroke-width="1"/><polyline id="SvgjsPolyline1048" points="283.03,2.39 278.72,16.76 273.1,33.86 271.64,39.67 271.38,42.66 272,45.59 273.72,48.04 276.1,49.85 281.48,52.49 284.31,53.49 290.16,54.8 299.11,55.62 305.1,55.31 308.03,54.67 310.74,53.4 312.84,51.3 314.15,48.61 314.96,45.72 319.16,19.05" fill="none" stroke="#000000" stroke-width="1"/><polyline id="SvgjsPolyline1049" points="283.62,0.27 278.37,17.48 275.89,22.94 274.28,25.47 272.45,27.85 268.29,32.16 247.46,49.34 240.92,55.51 236.85,59.93 233.05,64.56 227.81,71.88 223.04,79.51 217.2,89.99 209.13,106.08 201.54,122.4 182.48,166.45 150.24,244.02 145.12,258.12 141.9,269.67 140.36,278.54 139.91,284.52 139.99,290.51 141.14,299.43 142.52,305.27 144.29,311.01 151.76,330.63 154.65,339.15 156.61,347.93 157.13,353.9 156.86,359.89 155.06,368.7 147.74,388.37 146.02,394.12 144.93,400.01 144.69,403 144.81,409 145.69,414.93 148.04,423.61 151.12,432.07 158.95,451.55 162.81,462.91 164.97,471.65 166.15,480.56 166.07,489.55 164.58,498.42 161.86,506.99 156.16,520.87 153.11,529.33 150.96,538.07 150.15,544.01 149.81,553 150.63,564.97 152.94,579.78 156.73,597.38" fill="none" stroke="#000000" stroke-width="1"/><polyline id="SvgjsPolyline1050" points="270.45,41.11 268.74,46.86 267.67,52.76 267.76,55.76 268.65,58.62 270.39,61.05 275,64.88 280.34,67.59 286.08,69.3 294.96,70.74 300.95,70.98 303.95,70.76 306.87,70.14 309.53,68.77 311.4,66.46 312.43,63.66 315.23,45.88" fill="none" stroke="#000000" stroke-width="1"/><polyline id="SvgjsPolyline1051" points="271.87,36.68 265.97,53.69 263.77,62.41 263.39,68.38 263.91,71.33 266.32,76.82 268.04,79.27 270.17,81.38 272.6,83.14 277.96,85.81 283.65,87.69 292.46,89.5 298.44,90.07 304.41,89.73 307.23,88.75 309.38,86.71 310.49,83.94 311.03,81 314.09,54.17 321.63,0.7" fill="none" stroke="#000000" stroke-width="1"/><polyline id="SvgjsPolyline1052" points="268.2,46.58 258.08,74.82 255.55,83.45 252.84,95.14 251.56,104.05 251.35,113.03 252.05,118.99 253.64,124.77 256.23,130.17 257.91,132.65 261.94,137.09 266.65,140.79 274.56,145.07 283.03,148.09 288.86,149.49 294.79,150.39 300.78,150.67 303.77,150.48 306.73,149.98 309.57,149.03 312.1,147.43 313.95,145.1 314.9,142.27 315.15,139.28 314.57,133.31 312.47,121.5 311.31,112.58 310.66,100.6 310.82,88.6 311.58,76.63 313.5,58.73 321.44,2.29" fill="none" stroke="#000000" stroke-width="1"/><polyline id="SvgjsPolyline1053" points="280.4,11.4 273.78,31.33 265.33,53.8 258.35,70.38 251.71,83.83 247.25,91.65 240.82,101.78 214.96,138.61 203.45,156.17 192.81,174.27 180.27,198.18 168.65,222.55 159.15,244.58 154.06,258.69 151.65,267.36 150.43,273.24 149.42,282.17 149.37,288.17 149.87,294.15 150.91,300.06 154.28,311.56 163.36,333.78 166.4,342.24 168.52,350.98 169.13,356.95 168.95,362.94 167.18,371.75 165.23,377.42 159.42,391.25 156.59,399.79 155.5,405.68 155.26,408.67 155.42,414.67 157.01,423.51 159.72,432.09 164.24,443.21 176.4,470.63 183.86,490.26 189.06,507.49 193.04,525.04 195.03,536.87 196.44,548.79 197.19,560.76 197.16,569.76 196.42,578.72 195.39,584.63 193.87,590.44 190.67,598.84" fill="none" stroke="#000000" stroke-width="1"/><polyline id="SvgjsPolyline1054" points="277.02,21.94 270.98,38.9 266.48,50.02 262.62,58.15 258.18,65.98 249.55,78.24 228.54,103.68 215.93,120.47 204.56,138.12 194.31,156.45 179.74,186.05 160.16,229.88 155.59,240.97 151.4,252.21 148.71,260.8 146.65,269.56 145.49,278.48 145.35,284.48 145.75,290.46 146.69,296.38 149.91,307.93 158.79,330.23 161.75,338.72 163.74,347.49 164.22,353.47 163.88,359.46 161.94,368.23 154.35,387.81 151.87,396.45 151.37,399.41 150.98,405.39 151.39,411.37 153.21,420.18 156.02,428.72 170.03,461.88 175.13,475.99 177.55,484.65 178.79,490.52 179.66,496.46 180.08,502.44 179.96,508.44 179.25,514.39 178.09,520.28 176.53,526.07 173.36,534.49 164.94,553.72 163.02,559.41 161.54,565.22 160.55,571.14 159.9,580.11 160.08,589.11 160.87,598.07" fill="none" stroke="#000000" stroke-width="1"/><polyline id="SvgjsPolyline1055" points="248.58,0.36 246.5,9.11 241.89,23.38 234.46,43.02 226.47,62.44" fill="none" stroke="#000000" stroke-width="1"/><polyline id="SvgjsPolyline1056" points="362.41,598.51 381.26,571.43 389.58,558.95 399,543.61 409.16,525.23 417.05,509.06 423.92,492.43 428.46,478.13 430.92,466.39 431.82,457.44 431.73,448.45 430.57,439.53 428.38,430.8 426.44,425.13 422.97,416.83 406.68,384.72 399.43,368.25 396.47,359.76 394.09,351.08 392.4,342.24 391.52,333.29 391.57,324.29 392.14,318.32 393.16,312.41 394.61,306.59 396.46,300.88 399.86,292.55 403.82,284.47 413.66,265.92 417.25,257.67 419.05,251.95 420.16,246.06 420.48,240.07 420.32,237.08 419.43,231.15 417.88,225.35 413.41,214.23 407.86,203.59 392.74,177.68 384.16,161.86 376.63,145.51 370.49,128.6 366.56,114.13 363.25,96.44 361.04,75.56 358.97,39.62 358.11,33.69 356.56,27.9 353.91,22.53 350.1,17.91 345.51,14.05 335.53,7.39 328.36,1.96" fill="none" stroke="#000000" stroke-width="1"/><polyline id="SvgjsPolyline1057" points="362.16,598.91 382.69,569.34 390.94,556.81 400.27,541.42 408.94,525.65 416.86,509.48 423.76,492.86 428.34,478.58 430.84,466.85 431.79,457.91 431.76,448.91 430.65,439.99 428.51,431.25 426.59,425.57 423.15,417.25 405.57,382.44 399.59,368.69 396.6,360.2 394.19,351.54 392.46,342.71 391.54,333.76 391.53,324.76 392.07,318.79 393.06,312.87 394.48,307.04 396.3,301.32 399.66,292.98 403.6,284.89 413.45,266.34 417.08,258.11 418.92,252.4 420.1,246.52 420.48,240.54 420.35,237.54 419.52,231.61 418.02,225.8 416,220.15 413.6,214.65 408.08,204 392.97,178.09 385.74,164.94 379.18,151.45 373.52,137.57 369.72,126.19 365.93,111.68 363.11,96.95 359.05,70.26 357.68,64.42 355.65,58.78 352.65,53.59 350.78,51.25 346.42,47.13 341.55,43.63 326.35,34 324.01,32.13 321.96,29.95 320.44,27.37 319.63,24.49 319.53,18.5" fill="none" stroke="#000000" stroke-width="1"/><polyline id="SvgjsPolyline1058" points="361.8,599.45 382.31,569.88 390.58,557.36 399.93,541.98 408.63,526.22 416.58,510.07 423.52,493.47 428.15,479.21 430.72,467.49 431.73,458.55 431.76,449.56 430.73,440.62 428.66,431.87 425.71,423.37 422.12,415.12 407.11,385.73 399.78,369.3 396.75,360.83 394.29,352.17 392.51,343.35 391.53,334.41 391.46,325.41 391.95,319.43 392.89,313.51 395.11,304.79 397.07,299.12 400.61,290.85 413.12,266.93 416.81,258.72 418.72,253.04 419.98,247.17 420.45,241.2 420.37,238.2 419.62,232.25 418.19,226.43 416.22,220.76 413.86,215.25 408.38,204.57 387.42,168.18 380.66,154.79 375.84,143.8 371.62,132.57 368.87,124 365.71,112.42 360.09,89.09 358.29,83.37 355.93,77.86 352.78,72.76 350.88,70.44 346.54,66.3 341.7,62.77 328.8,55.11 321.37,50.05 319.25,47.93 317.67,45.39 316.85,42.51 316.67,39.52" fill="none" stroke="#000000" stroke-width="1"/><polyline id="SvgjsPolyline1059" points="275.61,26.08 265.45,54.31 261.74,65.72 259.78,74.5 259.43,80.48 259.79,83.46 260.66,86.32 262.07,88.97 263.96,91.3 268.44,95.28 270.91,96.99 276.25,99.7 281.9,101.72 287.71,103.21 293.62,104.25 299.59,104.72 302.59,104.6 305.52,104.01 308.09,102.51 309.61,99.96 310.51,94.05 311.39,79.08 312.51,67.13 317.34,31.46" fill="none" stroke="#000000" stroke-width="1"/><polyline id="SvgjsPolyline1060" points="362.64,598.1 381.48,571 389.78,558.51 399.18,543.16 407.92,527.43 415.92,511.31 422.94,494.74 427.67,480.51 430.34,468.81 431.45,459.89 431.6,450.89 430.69,441.94 428.72,433.17 425.85,424.64 422.31,416.37 405.98,384.29 402.2,376.12 398.8,367.79 395.88,359.28 393.55,350.59 391.93,341.74 391.12,332.78 391.09,326.78 391.49,320.79 392.33,314.85 394.41,306.1 396.3,300.41 399.75,292.1 412.24,268.17 417.14,257.22 418.9,251.49 419.97,245.59 420.23,239.6 420.05,236.6 419.11,230.68 417.52,224.9 412.99,213.79 407.42,203.17 390.75,174.69 382.23,158.83 374.65,142.51 362.39,111.88 359.79,106.47 356.75,101.3 351.09,94.32 346.62,90.32 339.22,85.21 321.08,74.64 316.43,70.87 314.69,68.44 313.73,65.61 313.46,62.63 313.84,56.65 321.7,0.19" fill="none" stroke="#000000" stroke-width="1"/><polyline id="SvgjsPolyline1061" points="261.35,65.59 257.9,77.08 256.17,85.91 255.86,91.89 256.74,97.81 257.79,100.62 259.28,103.22 261.16,105.56 265.51,109.69 270.43,113.1 278.62,116.81 287.26,119.3 296.14,120.75 302.13,120.86 305.09,120.39 307.82,119.18 309.73,116.92 310.56,114.05 310.79,111.06 310.63,96.07 311.05,84.07" fill="none" stroke="#000000" stroke-width="1"/><polyline id="SvgjsPolyline1062" points="263.22,59.72 253.01,87.92 237.46,136.49 230.3,156.23 222.01,175.52 198.63,224.2 190.61,243.6 186.86,255 184.67,263.73 183.24,272.61 182.81,278.59 183.09,287.58 183.93,293.52 185.27,299.37 188.13,307.9 191.78,316.12 195.99,324.07 211.41,349.81 215.71,357.71 219.42,365.91 222.05,374.5 222.87,380.44 222.92,383.44 222.7,386.43 221.45,392.29 220.47,395.12 217.93,400.56 206.67,418.27 202.46,426.22 200.44,431.86 199.75,434.78 199.06,440.74 199.24,446.73 200.81,455.58 204.49,467 210.43,480.77 226.12,513.17 230.64,524.28 234.26,535.72 236.84,547.43 238.44,559.32 239.45,574.29 239.93,598.28" fill="none" stroke="#000000" stroke-width="1"/><polyline id="SvgjsPolyline1063" points="253.25,95.19 252.86,101.17 252.98,104.17 254.05,110.06 255.1,112.87 258.24,117.96 260.27,120.17 264.95,123.91 270.08,127.01 275.48,129.62 281.12,131.67 286.91,133.25 292.8,134.36 298.77,134.91 304.75,134.53 307.61,133.66 310.06,131.97 311.57,129.41 312.14,126.47 312.19,123.47 310.81,105.53 310.63,96.53 311.21,81.54 312.91,63.63" fill="none" stroke="#000000" stroke-width="1"/><polyline id="SvgjsPolyline1064" points="272.98,33.56 256.5,78.64 252.11,92.98 249.35,104.66 247.61,116.53 247.29,122.52 247.47,128.51 248.95,137.38 252.04,145.82 254.85,151.12 256.54,153.59 260.47,158.12 262.67,160.16 267.47,163.75 275.41,167.97 283.9,170.91 292.73,172.64 301.71,173.09 307.67,172.47 310.59,171.79 313.42,170.78 316.06,169.36 318.36,167.46 320.15,165.05 321.26,162.28 321.73,159.32 321.69,156.32 320.67,150.42 314.54,130.34" fill="none" stroke="#000000" stroke-width="1"/><polyline id="SvgjsPolyline1065" points="360.68,599.68 388.23,556.77 397.35,541.25 404.38,528 410.75,514.43 415.21,503.29 418.85,491.86 421.3,480.12 422.07,471.15 421.95,465.16 420.74,456.25 419.25,450.44 417.3,444.76 413.69,436.52 394.91,402.35 389.74,391.52 386.35,383.18 382.57,371.8 379.73,360.14 377.93,348.28 377.35,339.3 377.52,330.31 378.52,321.37 379.67,315.48 382.11,306.82 385.34,298.42 389.23,290.31 402.71,266.92 408.08,256.2 410.14,250.56 411.53,244.73 412.11,238.76 411.85,232.77 410.79,226.87 409.1,221.12 406.91,215.53 402.96,207.45 398.5,199.63 392.07,189.5 385.28,179.61 376.37,167.55 370.73,160.53 364.77,153.78 358.44,147.39 353.98,143.37 344.57,135.94 327.23,124.1 317.69,116.84 313.77,112.31 312.4,109.65 311.51,106.79 311.02,103.83" fill="none" stroke="#000000" stroke-width="1"/><polyline id="SvgjsPolyline1066" points="372.6,583.16 384.5,565.86 394.19,550.69 404.68,532.5 412.9,516.48 419.05,502.81 424.31,488.76 427.58,477.22 429.66,465.41 430.17,456.43 429.94,450.44 428.66,441.53 426.35,432.84 424.32,427.19 420.74,418.94 404.23,386.95 400.41,378.8 396.96,370.49 393.99,362 391.58,353.32 389.85,344.5 388.89,335.55 388.82,326.55 389.3,320.58 390.21,314.65 392.38,305.92 394.31,300.24 397.82,291.95 411.84,265.43 415.47,257.2 417.3,251.49 418.45,245.61 418.78,239.62 418.3,233.65 417.07,227.78 415.26,222.06 411.75,213.78 407.62,205.78 370.92,143.84 362.65,131.34 358.89,126.66 354.8,122.27 348.04,116.34 340.67,111.17 320.12,98.78 315.39,95.11 313.44,92.84 312.08,90.17 311.43,87.25" fill="none" stroke="#000000" stroke-width="1"/><polyline id="SvgjsPolyline1067" points="274.49,29.31 266.19,51.83 251.06,91.01 245.3,104.86 238.98,118.46 233.45,129.11 227.56,139.56 205.9,175.55 195.42,193.74 185.55,212.28 176.43,231.2 170.56,245 165.61,259.15 162.78,270.81 161.67,279.73 161.54,285.73 161.94,291.71 162.87,297.64 164.3,303.46 168.31,314.77 178.33,336.57 181.8,344.88 184.48,353.46 185.82,362.35 185.7,368.34 185.31,371.32 183.92,377.15 180.67,385.54 173.08,401.85 170.43,410.44 169.62,416.38 169.54,419.38 170,425.36 171.16,431.24 173.83,439.83 177.21,448.17 182.34,459.02 189.28,472.32 196.61,485.4 204.35,498.25 225.61,530.94 229.9,538.85 232.35,544.33 234.4,549.96 236.04,555.73 238.2,567.53 239.25,579.48 239.83,597.47" fill="none" stroke="#000000" stroke-width="1"/><polyline id="SvgjsPolyline1068" points="262.67,60.35 255.3,76.77 248.16,89.96 238.4,105.08 217.54,134.42 207.57,149.4 195.25,170 183.96,191.17 168.43,223.65 162.46,237.41 158.1,248.59 155.23,257.12 152.92,265.81 151.41,274.68 150.99,280.66 151.35,289.65 152.27,295.58 153.67,301.41 157.58,312.75 167.93,337.68 170.43,346.32 171.38,352.24 171.54,358.23 170.86,364.19 170.22,367.12 167.4,375.66 160.49,392.28 158.12,400.95 157.46,406.91 157.61,412.9 158.49,418.83 159.94,424.65 162.86,433.16 167.54,444.21 199.07,512.26 203.32,520.19 209.47,530.49 226.64,555.09 229.78,560.2 232.53,565.53 234.79,571.09 237.18,579.76 238.56,588.65 239.31,597.62" fill="none" stroke="#000000" stroke-width="1"/><polyline id="SvgjsPolyline1069" points="265.37,53.16 259,66.74 251.32,79.62 244.36,89.38 225.88,113.02 215.26,127.55 203.84,145.17 193.45,163.42 185.2,179.42 177.38,195.62 168.59,214.7 160.18,233.94 155.7,245.07 151.73,256.39 149.33,265.07 148.14,270.95 147.17,279.89 147.17,285.89 147.72,291.86 148.79,297.76 152.21,309.25 163.29,337.13 165.61,345.81 166.4,351.76 166.4,357.75 166.09,360.74 164.88,366.61 163.06,372.32 156.32,389.02 153.85,397.66 153.36,400.62 152.99,406.6 153.42,412.58 155.27,421.38 158.1,429.92 174.67,468.51 180.76,485.44 183.22,494.1 185.16,502.89 186.45,511.79 186.86,517.78 186.82,523.77 186.28,529.75 184.43,538.55 180.55,549.9 171.77,568.97 168.57,577.38 166.35,586.09 165.49,592.03 165.08,598.01" fill="none" stroke="#000000" stroke-width="1"/><polyline id="SvgjsPolyline1070" points="259.22,67.56 252.21,80.81 245.79,90.95 220.94,124.8 209.05,142.11 198.12,160.04 188.07,178.48 180,194.57 171.02,213.55 162.49,232.74 157.96,243.85 153.92,255.15 151.44,263.8 149.7,272.63 149.09,278.59 149.14,287.59 149.86,293.54 151.08,299.41 154.74,310.84 162.81,330.22 165.94,338.66 168.18,347.37 168.87,353.32 168.76,359.32 167.08,368.14 165.17,373.83 158.35,390.48 155.91,399.14 155.18,405.09 155.26,411.08 156.08,417.02 157.48,422.86 159.31,428.57 162.58,436.95 176.12,467.05 183.03,483.67 188.21,497.74 198.76,529.01 203.21,540.15 207.19,548.22 213.29,558.55 225.6,575.56 230.55,583.07 234.5,591.15 237.14,599.75" fill="none" stroke="#000000" stroke-width="1"/><polyline id="SvgjsPolyline1071" points="185.4,496.03 189.05,510.58 191.46,525.38 192.2,537.35 192.02,543.35 191.39,549.31 190.24,555.2 187.52,563.77 183.96,572.04 176.12,588.24 173.85,593.79 172.02,599.5" fill="none" stroke="#000000" stroke-width="1"/><polyline id="SvgjsPolyline1072" points="158.12,426.51 163.62,440.46 177.07,470.59 184.61,490.19 190.81,510.25 200.82,551.03 205.33,565.33 208.98,573.56 213.19,581.5 218.16,589.01 225.39,598.58" fill="none" stroke="#000000" stroke-width="1"/><polyline id="SvgjsPolyline1073" points="262,61.28 256.74,72.06 249.09,84.96 240.46,97.23 220.59,123.57 212,135.87 200.83,153.65 190.61,171.99 175.93,201.55 167.16,220.63 160.02,237.15 155.65,248.32 152.76,256.84 150.4,265.53 148.83,274.39 148.35,280.37 148.41,286.36 149.01,292.33 150.13,298.22 153.63,309.69 164.81,337.53 167.16,346.21 167.97,352.15 167.98,358.14 166.47,367 163.57,375.52 157.85,389.38 155.31,398.01 154.48,403.94 154.37,406.94 155.2,415.89 156.54,421.74 159.34,430.29 162.71,438.63 173.77,463.26 179.56,477.1 184.71,491.18 189.11,505.52 192.76,520.07 195.77,534.76 203.68,585.14 206.55,599.87" fill="none" stroke="#000000" stroke-width="1"/><polyline id="SvgjsPolyline1074" points="377.36,597.85 382.42,590.41 387.11,582.73 399.99,559 422.97,513.47 435.51,486.22 443.14,466.66 447.56,452.33 449.6,443.56 450.63,437.66 451.75,425.71 451.62,416.72 451.03,410.75 450.06,404.83 447.92,396.09 442.97,381.94 432.44,357.07 428.26,345.83 425.09,334.26 424.04,328.36 423.43,322.39 423.31,316.39 423.7,310.41 424.61,304.48 425.99,298.64 429.88,287.3 438.2,268.01 440.3,262.4 442.62,253.71 443.34,247.75 443.41,244.75 442.95,238.78 441,230 437.99,221.52 429.61,202.27 426.39,193.87 424.03,185.19 423.22,179.25 423.19,173.25 424.03,167.31 424.75,164.4 426.67,158.72 434.96,139.43 437.36,130.77 438.24,121.82 437.67,112.85 436.06,104 432.89,92.42 428.06,78.22 416.44,47.34 411.45,33.2 406.21,15.98 402.6,1.42" fill="none" stroke="#000000" stroke-width="1"/><polyline id="SvgjsPolyline1075" points="364.11,599.41 380.39,577.87 392.21,560.52 404.56,539.94 417.24,516.11 427.32,494.33 433.72,477.51 436.35,468.91 438.46,460.16 439.9,451.28 440.42,445.3 440.43,436.31 439.89,430.33 438.38,421.46 436.18,412.74 434.3,407.04 431,398.67 417.03,368.77 411.33,354.9 408.55,346.35 407.06,340.53 405.92,334.64 405.18,328.69 404.88,322.7 405.05,316.7 405.71,310.74 407.59,301.95 409.37,296.22 412.69,287.85 423.15,266.26 426.61,257.95 429.01,249.29 429.74,243.34 429.79,240.34 428.76,231.41 426.27,222.77 421.57,211.73 410.83,190.27 407.17,182.05 404.15,173.57 402.19,164.8 401.86,161.82 401.8,155.82 402.09,152.84 403.33,146.97 406.51,138.56 414.78,122.58 418.28,114.29 420.53,105.59 421.33,96.63 421.17,90.64 420.58,84.67 418.54,72.85 407.01,26.25 402.03,2.78" fill="none" stroke="#000000" stroke-width="1"/><polyline id="SvgjsPolyline1076" points="362.77,599.24 382.08,572.48 392.09,557.52 402.94,539.55 414.29,518.41 423.18,499.38 429.63,482.58 433.71,468.15 435.34,459.31 435.99,453.34 436.23,447.35 435.75,438.37 434.86,432.43 432.73,423.69 430.84,418 427.49,409.65 411.72,377.29 405.83,363.5 402.89,354.99 401.26,349.22 399.43,340.41 398.66,334.46 398.31,325.47 398.63,319.48 399.99,310.59 401.46,304.77 403.32,299.07 406.73,290.74 417.48,269.29 421.15,261.07 423.84,252.49 424.42,249.55 424.98,243.58 424.96,240.58 424.32,234.62 422.98,228.78 421.1,223.08 416.25,212.11 402.02,185.7 396.75,174.92 392.46,163.72 390.94,157.92 390.02,151.99 389.85,149 390.21,140.01 390.68,137.05 392.25,131.27 395.86,123.03 404.79,107.41 408.67,99.29 411.37,90.71 412.7,81.82 412.91,75.83 412.7,69.83 411.43,57.9 401.39,1.79" fill="none" stroke="#000000" stroke-width="1"/><polyline id="SvgjsPolyline1077" points="361.7,599.98 384.09,568.05 392.31,555.5 403.07,537.47 412.94,518.94 421.72,499.87 425.03,491.5 427.96,482.99 430.41,474.33 431.71,468.47 433.28,456.58 433.37,447.59 432.85,441.61 431.86,435.7 429.56,427 427.57,421.34 424.06,413.05 407.94,380.87 404.23,372.67 400.9,364.31 398.08,355.76 395.89,347.04 394.44,338.16 393.96,332.18 394.02,323.18 394.62,317.21 395.68,311.31 398.06,302.63 400.11,297 403.75,288.77 416.11,264.77 418.46,259.25 420.35,253.56 421.93,244.71 421.97,238.71 421.22,232.77 418.86,224.09 414.18,213.05 408.58,202.44 395.23,178.97 387.22,162.85 383.88,154.5 382.05,148.79 380.64,142.96 379.79,137.02 379.62,134.02 379.9,128.04 380.38,125.07 382.67,116.38 386.34,108.17 397.33,90.28 400.19,85.01 403.59,76.68 405.69,67.94 406.4,61.98 406.67,55.99 406.24,44 404.69,29.08 400.96,2.34" fill="none" stroke="#000000" stroke-width="1"/><polyline id="SvgjsPolyline1078" points="369.95,587.67 385.41,565.53 395.11,550.37 405.61,532.19 415.17,513.5 422.39,497.01 427.38,482.87 429.02,477.1 430.95,468.31 432.29,456.39 432.32,450.39 431.88,444.41 430.97,438.48 428.76,429.76 426.8,424.09 423.33,415.79 407.09,383.66 399.89,367.17 396.97,358.66 394.63,349.97 393,341.13 392.2,332.16 392.18,326.17 392.98,317.21 394.07,311.31 396.49,302.64 398.57,297.02 402.25,288.8 414.72,264.86 417.13,259.36 419.08,253.69 420.77,244.87 420.89,238.87 420.2,232.92 417.92,224.22 413.28,213.16 407.67,202.55 389.76,171.33 384.33,160.63 380.65,152.42 377.42,144.02 374.77,135.42 372.93,126.61 372.32,120.65 372.37,114.65 373.2,108.71 374.87,102.96 377.12,97.4 381.33,89.45 391.29,74.46 394.36,69.3 398.16,61.15 400.72,52.53 402.07,43.64 402.49,31.65 401.94,19.67 400.21,1.75" fill="none" stroke="#000000" stroke-width="1"/><polyline id="SvgjsPolyline1079" points="412.56,518.6 417.69,507.75 422.35,496.69 426.39,485.4 428.88,476.75 430.74,467.94 431.82,459.01 431.93,450.02 431.41,444.04 430.42,438.13 428.98,432.3 424.97,421 419.94,410.11 404.96,380.71 400.19,369.7 397.13,361.24 394.63,352.59 392.81,343.78 391.77,334.84 391.64,325.85 392.1,319.87 393,313.94 394.34,308.09 397.1,299.53 401.9,288.53 414.41,264.61 417.85,256.3 419.49,250.53 420.42,244.61 420.58,241.61 420.27,235.63 419.2,229.72 417.51,223.97 412.86,212.92 407.23,202.32 387.78,168.52 382.35,157.82 377.47,146.86 373.27,135.62 369.9,124.11 367.61,112.33 366.87,103.37 367.03,97.37 367.86,91.43 368.56,88.52 370.55,82.86 376.15,72.26 389.66,52.43 393.83,44.46 395.96,38.85 398.09,30.12 399.13,21.18 399.39,12.19 398.95,0.2" fill="none" stroke="#000000" stroke-width="1"/><polyline id="SvgjsPolyline1080" points="370.01,126.69 367.67,118 365.77,109.2 363.69,94.35 363.3,82.37 363.73,76.38 364.76,70.47 366.48,64.73 370.36,56.62 375.15,49.01 385.65,34.39 388.79,29.28 391.47,23.91 393.57,18.3 395.09,12.49 396.07,6.58 396.61,0.6" fill="none" stroke="#000000" stroke-width="1"/><polyline id="SvgjsPolyline1081" points="361.97,84.27 361.29,72.29 361.42,60.3 362.4,51.36 364.63,42.65 366.99,37.14 371.54,29.38 383.84,12.36 387,7.26 389.64,1.87" fill="none" stroke="#000000" stroke-width="1"/><polyline id="SvgjsPolyline1082" points="364.94,106.39 362.26,88.59 360.99,73.65 360.34,52.66 360.92,34.67 361.6,28.71 362.78,22.83 365.65,14.31 368.19,8.88 373.04,1.31" fill="none" stroke="#000000" stroke-width="1"/><polyline id="SvgjsPolyline1083" points="361,76.87 359.51,58.93 358.34,50.01 356.96,44.18 354.66,38.64 351.23,33.73 346.88,29.61 342.02,26.11 329.41,17.98 324.94,13.99 323.28,11.51 322.26,8.69 321.8,2.73" fill="none" stroke="#000000" stroke-width="1"/><polyline id="SvgjsPolyline1084" points="360.02,48.6 359.43,27.61 358.94,21.63 357.99,15.71 356.2,9.99 354.85,7.31 351.5,2.33 349.58,0.03" fill="none" stroke="#000000" stroke-width="1"/><polyline id="SvgjsPolyline1085" points="252.73,89.85 248.68,104.29 245.5,118.94 243.72,130.81 242.7,142.76 242.5,154.76 243.23,169.74 245.13,184.61 247.58,196.36 250.92,207.88 255.31,219.04 257.95,224.43 260.95,229.62 266.19,236.93 272.42,243.41 277.16,247.08 279.71,248.67 282.36,250.08 287.93,252.28 293.78,253.6 296.76,253.93 302.76,253.97 308.71,253.26 314.56,251.93 320.27,250.09 325.83,247.84 333.86,243.78 338.98,240.66 343.89,237.21 348.52,233.4 354.71,226.88 358.06,221.91 359.42,219.24 361.31,213.55 361.8,210.6 361.87,204.61 360.86,198.7 359.02,192.99 355.16,184.87 350.42,177.22 345.13,169.94 325.82,146.98 320.44,139.78 316.04,131.94 313.93,126.32 312.49,120.5" fill="none" stroke="#000000" stroke-width="1"/><polyline id="SvgjsPolyline1086" points="248.39,104.12 242.84,127.46 236.16,162.84 232.33,180.42 227.79,197.84 215.79,238.09 212.35,252.68 210.93,261.57 210.24,270.54 210.45,279.53 211.7,288.44 213.15,294.26 216.18,302.73 218.72,308.16 223.19,315.97 226.54,320.95 232.02,328.08 237.97,334.83 244.34,341.19 251.11,347.12 258.29,352.54 265.9,357.35 271.21,360.14 279.52,363.56 285.27,365.27 291.15,366.46 297.12,367.08 303.12,367.06 309.07,366.34 312,365.7 317.68,363.79 323,361.02 325.47,359.32 329.96,355.35 333.83,350.78 337.14,345.77 340,340.5 352,313.01 355.91,304.91 360.23,297.01 368.28,284.36 385.89,260.07 392.21,249.88 394.78,244.46 396.72,238.78 397.84,232.9 398.06,229.9 398.04,226.91 397.33,220.95 395.84,215.14 393.75,209.52 388.33,198.82 383.55,191.2 378.37,183.84 369.02,172.12 363,165.42 356.69,159.01 345.51,149.01 324.32,132.28 317.83,126.07 314.38,121.17 313.12,118.45 311.6,112.66" fill="none" stroke="#000000" stroke-width="1"/><polyline id="SvgjsPolyline1087" points="262.3,62.2 255.17,81.95 248.8,101.96 244.81,116.42 236.02,151.33 230.94,168.59 223.87,188.36 208.19,227.32 202.35,244.35 198.66,258.88 197.18,267.76 196.56,276.73 196.99,285.72 198.54,294.57 201.19,303.17 204.75,311.43 209.04,319.34 215.55,329.42 222.68,339.07 232.13,350.71 242.04,361.98 250.32,370.66 256.85,376.85 263.8,382.57 268.72,385.99 276.63,390.27 282.23,392.43 288.02,393.98 296.94,395.13 302.94,395.13 308.9,394.54 314.77,393.31 320.46,391.42 325.85,388.8 330.8,385.42 335.17,381.31 338.87,376.59 343.22,368.73 346.45,360.33 348.96,351.69 356.4,322.63 359.22,314.08 362.56,305.73 367.87,294.97 372.42,287.21 389.3,262.41 395.52,252.16 398.09,246.74 400.08,241.08 401.29,235.21 401.55,232.22 401.4,226.23 400.38,220.32 398.67,214.57 396.42,209.01 393.77,203.63 389.27,195.83 384.33,188.31 377.24,178.63 365.69,164.84 355.14,154.18 343.74,144.43 322.26,128.09 317.88,123.99 314.27,119.21 312.04,113.66 311.06,107.75 310.64,95.76 311.26,80.78" fill="none" stroke="#000000" stroke-width="1"/><polyline id="SvgjsPolyline1088" points="257.14,75.84 242.56,115.23 238,126.33 233.03,137.25 223.44,155.93 197.24,203.14 189.11,219.2 182.84,232.83 178.33,243.95 174.51,255.32 171.75,266.99 170.7,275.93 170.61,281.92 171.05,287.91 172.02,293.82 174.37,302.51 176.44,308.14 180.08,316.37 192.46,340.36 197.41,351.29 200.3,359.8 201.82,368.66 201.77,374.65 201.38,377.63 200.77,380.56 198.93,386.27 196.49,391.75 188.01,407.63 185.61,413.12 183.83,418.85 182.88,424.77 182.74,427.76 183.09,433.75 184.15,439.65 185.76,445.43 187.77,451.08 191.29,459.36 195.23,467.46 205.36,485.85 222.25,514.19 226.52,522.12 230.31,530.28 233.47,538.7 235.87,547.37 237.56,556.21 238.9,568.14" fill="none" stroke="#000000" stroke-width="1"/><polyline id="SvgjsPolyline1089" points="253.29,87.27 247.8,104.41 237.56,138.92 230.71,158.77 222.64,178.16 202.43,221.69 194.6,241.17 190.98,252.61 188.93,261.37 187.67,270.28 187.37,276.27 187.86,285.25 188.83,291.17 191.2,299.85 194.51,308.21 198.54,316.26 203.08,324.03 223.15,353.91 231.02,366.67 235.13,374.68 237.51,380.18 240,388.82 240.54,394.79 240.38,397.78 239.9,400.74 238.04,406.44 233.61,414.26 220.79,430.88 216.02,438.5 213.64,444.01 212.78,446.88 212.15,449.81 211.58,455.78 212.22,464.74 213.38,470.63 214.94,476.42 217.76,484.97 230.36,518.69 233.77,530.19 235.79,538.96 237.72,550.8 238.9,562.74 239.63,577.72 239.94,598.72" fill="none" stroke="#000000" stroke-width="1"/><polyline id="SvgjsPolyline1090" points="256.84,77.1 249.29,99.88 237,143.16 230.47,163.12 222.72,182.63 204.49,223.77 200.05,234.92 197.05,243.4 194.47,252.03 192.48,260.8 191.26,269.71 190.99,275.71 191.5,284.69 193.16,293.53 195.89,302.1 199.5,310.34 205.32,320.82 211.9,330.86 247.7,379.01 257.73,393.95 265.42,406.83 273.56,422.88 279.23,436.76 283.73,451.06 286.92,465.71 288.2,474.62 289.18,486.58 289.4,495.57 289.09,507.57 288.21,519.54 286.51,534.44 282.13,564.12 281.01,570.01 279.79,572.75 277.99,575.14 275.83,577.22 271.01,580.79 260.95,587.33 256.18,590.97 249.83,597.34 247.98,599.7" fill="none" stroke="#000000" stroke-width="1"/><polyline id="SvgjsPolyline1091" points="253.23,88.55 249.28,103.02 246.9,114.78 245.47,126.69 245.22,135.68 245.89,144.65 247.74,153.45 251.01,161.82 254.07,166.98 259.79,173.91 266.51,179.88 274.23,184.5 282.61,187.74 291.39,189.67 300.36,190.29 309.32,189.48 315.12,187.97 317.9,186.85 322.97,183.68 325.08,181.55 326.75,179.07 327.9,176.3 328.5,173.37 328.61,170.37 327.76,164.44 326.02,158.7 317.85,139.36 314.84,130.88 313.31,125.08 311.74,116.22 310.76,104.27 310.7,92.27 311.53,77.29 313.06,62.37" fill="none" stroke="#000000" stroke-width="1"/><polyline id="SvgjsPolyline1092" points="352.81,599.11 351.83,596.28 348.71,591.16 346.77,588.87 342.2,585 332.21,578.36 327.71,574.41 326.05,571.92 325.1,569.08 324.87,566.1 325.11,563.11 327.8,551.42 338.67,513.97 344.91,490.8 349.66,470.34 353.51,449.7 355.97,431.87 357.84,410.95 358.71,392.98 359.6,359.99 360.46,345.01 361.79,333.09 364.02,321.3 366.41,312.63 368.38,306.96 370.65,301.41 374.57,293.31 380.58,282.92 395.31,260.3 400.94,249.71 403.06,244.1 404.46,238.27 405,232.3 404.93,229.3 404.14,223.36 402.62,217.56 400.52,211.94 398,206.5 393.66,198.62 388.87,191 383.77,183.58 376.58,173.97 364.96,160.23 354.33,149.66 342.78,140.09 325.74,127.83 318.75,122.17 314.78,117.68 313.26,115.1 312.16,112.31 311.45,109.4" fill="none" stroke="#000000" stroke-width="1"/><polyline id="SvgjsPolyline1093" points="357.6,598.14 359.03,592.31 359.6,586.35 359.33,583.36 357.77,577.57 356.57,574.83 353.08,569.97 348.69,565.88 339.27,558.45 335.13,554.13 333.56,551.58 332.52,548.77 332.05,545.81 332.32,539.83 334.11,531.01 342.76,499.16 347.81,478.78 351.5,461.17 354.47,443.41 356.64,425.55 358.05,407.6 359.61,359.63 360.25,347.65 361.85,332.74 364.1,320.95 367.48,309.44 370.79,301.08 373.36,295.66 380.77,282.62 395.49,259.99 398.47,254.78 401.08,249.38 403.16,243.76 404.52,237.92 404.87,234.94 404.91,228.95 403.37,220.09 401.5,214.39 399.15,208.88 393.47,198.31 383.56,183.29 376.36,173.69 370.68,166.71 362.66,157.78 356.27,151.45 349.54,145.48 342.5,139.88 323.06,125.81 316.41,119.76 314.58,117.39 313.1,114.78 312.05,111.97 311,106.07 310.64,97.08" fill="none" stroke="#000000" stroke-width="1"/><polyline id="SvgjsPolyline1094" points="358.44,599.42 362.87,588.27 365.59,579.7 366.75,573.81 366.99,570.82 366.79,564.83 365.6,558.97 362.98,553.59 359.27,548.88 348.36,538.59 344.36,534.12 342.7,531.63 341.39,528.93 340.48,526.07 339.84,520.12 340.26,514.14 341.82,505.28 344.48,493.58" fill="none" stroke="#000000" stroke-width="1"/><polyline id="SvgjsPolyline1095" points="359.89,597.69 368.74,578.64 373.16,567.49 374.92,561.76 376.17,555.89 376.96,546.93 376.45,540.96 375.76,538.05 373.48,532.51 370.24,527.46 358.31,514 354.64,509.25 353.06,506.7 350.63,501.23 349.83,498.34 349.01,492.4 348.98,486.4 349.76,477.44 354.94,441.81 357.42,417.95 358.61,396.98 359.83,355 361.28,337.06 363.17,325.22 365.28,316.47 368.04,307.9 371.48,299.59 378.5,286.34 396.34,258.59 399.23,253.33 401.72,247.87 403.62,242.18 404.75,236.3 404.98,233.31 404.76,227.32 403.71,221.41 401.98,215.67 399.72,210.11 397.09,204.72 392.63,196.91 387.77,189.34 377.2,174.77 365.65,160.97 355.08,150.33 343.59,140.7 324.14,126.64 317.33,120.77 313.72,115.99 312.48,113.27 311.15,107.43" fill="none" stroke="#000000" stroke-width="1"/><polyline id="SvgjsPolyline1096" points="359.95,598.58 375.2,569.31 382.67,552.94 385.71,544.47 387.28,538.68 388.76,529.81 389.13,523.83 388.68,517.85 388.11,514.9 387.3,512.02 385,506.48 380.29,498.82 371.13,486.94 366.02,479.54 361.98,471.51 359.42,462.89 358.18,453.99 357.81,442 359.13,400.02 359.63,370.02" fill="none" stroke="#000000" stroke-width="1"/><polyline id="SvgjsPolyline1097" points="359.95,599.28 381.96,560.03 387.43,549.35 392.37,538.42 395.56,530.01 398.08,521.37 399.6,512.51 400.05,503.52 399.08,494.59 396.41,486.01 393.82,480.6 390.79,475.42 378.99,458.05 374.38,450.32 371.72,444.94 369.46,439.39 366.14,427.87 364.52,419.01 363.42,410.08 362.45,398.12 361.7,383.14 361.37,356.15 361.88,344.16 362.71,335.2 364.05,326.3 365.99,317.52 368.62,308.91 371.93,300.55 374.5,295.12 378.8,287.22 396.54,259.4 399.46,254.16 401.99,248.72 403.96,243.06 405.18,237.19 405.52,231.2 405.35,228.21 404.39,222.29 402.72,216.53 400.52,210.95 397.93,205.54 393.52,197.69 388.7,190.1 376.38,173.1 364.75,159.36 354.1,148.8 344.9,141.1 325.44,127.07 318.45,121.4 314.52,116.89 313.05,114.28 312,111.47 311.35,108.54" fill="none" stroke="#000000" stroke-width="1"/><polyline id="SvgjsPolyline1098" points="361.19,597.63 385.74,556.39 391.5,545.86 396.87,535.13 401.67,524.13 404.76,515.68 407.22,507.03 408.8,498.17 409.2,492.19 408.96,486.2 407.66,477.3 405.09,468.68 402.7,463.18 399.92,457.86 385.71,434.91 381.33,427.05 376.32,416.15 372.41,404.81 369.5,393.17 366.99,378.38 365.49,363.46 365,351.47 365.27,339.48 366.48,327.54 368.15,318.7 371.5,307.19 374.85,298.84 380.29,288.14 384.9,280.41 396.23,262.74 402,252.22 404.28,246.67 405.92,240.9 406.73,234.97 406.65,228.97 405.72,223.05 404.09,217.28 401.92,211.69 397.95,203.61 393.42,195.84 388.53,188.28 376.19,171.29 364.59,157.54 353.94,146.98 344.71,139.32 325.14,125.43 318.12,119.81 314.21,115.28 312.78,112.65 311.8,109.82 311.21,106.88" fill="none" stroke="#000000" stroke-width="1"/><polyline id="SvgjsPolyline1099" points="390.77,599.57 391.28,593.6 393.21,584.81 395.94,576.24 399.13,567.82 407.51,548.57 434.34,491.57 440.19,477.76 444.47,466.55 448.22,455.15 451.23,443.54 453.26,431.72 453.94,422.74 453.53,410.76 452.73,404.81 450.84,396.02 446.19,381.77 434.75,354.03 430.75,342.72 427.85,331.09 426.98,325.15 426.58,319.17 426.95,310.18 427.83,304.25 429.2,298.4 433.05,287.05 442.27,264.89 444.8,256.26 445.75,250.34 445.73,241.36 444.08,232.52 441.26,223.97 433.06,204.64 429.87,196.23 427.53,187.55 426.72,181.6 426.71,175.61 427.02,172.63 428.27,166.76 430.17,161.08 437.24,144.52 439.9,135.93 441.11,127.03 440.8,118.04 439.92,112.11 438.64,106.25 434.37,91.87 429.24,77.78 413.97,38.65 410.02,27.32 406.51,15.85" fill="none" stroke="#000000" stroke-width="1"/><polyline id="SvgjsPolyline1100" points="369.61,598.41 377.08,589.02 382.38,581.75 393.78,564.12 408.52,537.99 423.48,508.58 433.26,486.67 439.49,469.78 442.05,461.16 444.1,452.4 445.5,443.51 446,437.53 446.02,428.53 445.5,422.56 444.56,416.63 442.43,407.89 437.38,393.77 425.12,366.39 420.65,355.26 417.84,346.71 416.34,340.91 415.19,335.02 414.46,329.06 414.18,323.07 414.4,317.08 415.11,311.12 416.31,305.24 419.93,293.81 430.89,269.14 434,260.7 435.93,251.92 436.19,242.94 435.41,236.99 433.07,228.31 428.58,217.19 417.19,192.71 414.2,184.23 412.37,175.43 412.13,172.44 412.33,166.45 413.43,160.55 416.14,151.98 424.98,132.93 428.02,124.47 429.68,115.64 429.85,106.65 428.85,97.71 426.34,85.98 423.08,74.43 409.56,31.51 405.68,17.02 402.37,2.39" fill="none" stroke="#000000" stroke-width="1"/><polyline id="SvgjsPolyline1101" points="447.57,599.8 452.91,585.79 455.6,577.2 457.41,568.39 457.82,562.41 457.36,556.44 456.03,550.59 449.85,533.69 447.74,524.95 447.2,515.98 448.05,507.02 449.87,498.21 453.21,486.69 466.34,449.97 471.85,432.84 475.33,418.25 476.29,412.33 477.09,403.37 477.14,397.37 476.79,391.38 474.88,379.54 471.67,367.98 463.77,345.32 461.19,336.7 459.29,327.9 458.39,318.96 458.68,309.97 460.15,301.09 462.55,292.42 468.45,275.42 470.16,269.67 471.43,263.81 472.08,257.85 472,251.85 470.61,242.97 468.12,234.32 461.28,214.47 459.38,205.68 458.97,199.7 459.39,193.72 460.59,187.85 466.34,170.79 467.98,165.02 469.31,156.13 469.32,150.14 468.68,144.17 467.54,138.28 464.24,126.75 460.23,115.44 439,59.32 428.84,34.31 422.45,20.74 412.97,2.01" fill="none" stroke="#000000" stroke-width="1"/><polyline id="SvgjsPolyline1102" points="246.79,113.32 245.27,122.19 244.23,131.12 243.74,140.11 243.89,149.11 244.79,158.06 245.87,163.96 248.3,172.62 250.54,178.18 253.33,183.49 256.69,188.46 262.51,195.32 266.95,199.35 271.84,202.82 277.12,205.66 285.58,208.69 291.46,209.89 300.43,210.51 306.42,210.17 315.26,208.52 320.94,206.62 326.33,203.99 331.18,200.48 335.11,195.96 336.56,193.34 337.59,190.53 338.18,187.59 338.16,181.6 337.67,178.65 335.98,172.89 332.34,164.67 322.03,146.38 317.94,138.36 314.71,129.97 313.16,124.17" fill="none" stroke="#000000" stroke-width="1"/><polyline id="SvgjsPolyline1103" points="245.19,118.97 242.3,136.74 240.57,154.65 239.79,169.63 237.67,232.59 237.55,247.59 238.17,259.57 239.33,268.49 241.27,277.28 243.06,283 245.27,288.58 249.39,296.58 252.66,301.61 256.32,306.36 260.35,310.81 264.72,314.91 269.42,318.64 274.42,321.95 282.45,326 288.11,327.97 293.97,329.25 299.95,329.71 302.94,329.59 305.92,329.23 311.72,327.74 317.18,325.26 319.74,323.69 324.5,320.05 328.83,315.9 332.84,311.44 353.34,285.58 374.58,260.32 381.73,250.69 386.25,242.92 388.57,237.39 390.09,231.59 390.68,225.63 390.6,222.63 389.77,216.69 387.12,208.1 384.67,202.62 381.84,197.34 375.35,187.25 366.15,175.4 356.02,164.35 347.34,156.06 326.82,138.52 320.33,132.29 316.58,127.61 315.03,125.04 312.79,119.49 311.57,113.62" fill="none" stroke="#000000" stroke-width="1"/><polyline id="SvgjsPolyline1104" points="278.1,18.66 272.22,35.67 257.64,75.06 252.92,89.3 249.6,100.83 246.82,112.5 244.29,127.28 243.15,139.23 242.89,151.22 243.34,160.21 243.98,166.17 246.14,177.97 249.67,189.43 253.37,197.63 258.11,205.27 264,212.06 268.45,216.09 273.24,219.69 281.19,223.88 289.8,226.46 298.73,227.43 307.71,226.93 316.52,225.15 322.23,223.29 327.73,220.91 335.42,216.26 339.95,212.33 341.94,210.09 345.15,205.03 347.01,199.34 347.41,193.37 346.54,187.44 344.75,181.72 342.33,176.23 337.94,168.38 322.85,146 319.76,140.86 317.04,135.51" fill="none" stroke="#000000" stroke-width="1"/><polyline id="SvgjsPolyline1105" points="252.39,90.91 247.63,108.26 244.62,122.96 242.58,137.81 241.47,155.78 241.69,173.77 243.02,191.72 245.31,209.57 248.61,227.26 253.25,244.65 257.37,255.91 259.88,261.36 262.75,266.63 267.8,274.08 273.83,280.74 280.91,286.28 286.19,289.12 288.98,290.22 294.78,291.7 297.76,292.04 303.75,291.91 309.63,290.74 315.28,288.73 320.66,286.09 325.81,283.01 333.2,277.87 340.31,272.35 349.49,264.63 356.16,258.58 362.55,252.24 368.48,245.48 372.04,240.65 375.1,235.49 377.46,229.98 378.91,224.17 379.25,221.19 379.14,215.2 378.71,212.23 377.24,206.42 373.84,198.09 367.85,187.71 360.79,178.01 353,168.88 344.67,160.24 327.34,143.65 321.21,137.06 317.63,132.25 316.1,129.67 314.79,126.97 312.87,121.29" fill="none" stroke="#000000" stroke-width="1"/><polyline id="SvgjsPolyline1106" points="248.26,105.95 245.72,117.68 243.85,129.53 242.72,141.47 242.39,153.47 242.9,165.45 243.86,174.4 245.99,186.21 248.27,194.91 251.23,203.41 254.96,211.59 259.61,219.29 263.29,224.03 269.74,230.29 274.66,233.71 280.02,236.4 288.59,239.12 291.52,239.76 297.48,240.44 303.47,240.39 309.43,239.68 318.18,237.59 323.83,235.59 329.32,233.16 334.59,230.3 339.59,226.99 346.34,221.05 350.07,216.36 351.59,213.78 353.78,208.21 354.64,202.28 354.23,196.31 352.81,190.48 349.35,182.18 346.45,176.93 341.55,169.39 321.74,143 317.23,135.22 314.9,129.69" fill="none" stroke="#000000" stroke-width="1"/><polyline id="SvgjsPolyline1107" points="241.78,155.85 242,167.84 242.87,179.81 244.83,194.68 247.11,206.46 250.09,218.08 253.95,229.44 257.56,237.68 261.96,245.53 267.29,252.77 271.44,257.1 278.36,262.85 283.48,265.96 286.21,267.21 289.02,268.24 294.87,269.58 300.85,269.92 306.82,269.35 315.52,267.12 321.11,264.94 326.53,262.37 336.91,256.35 346.7,249.42 355.75,241.55 361.74,234.84 365.12,229.89 366.55,227.25 368.72,221.67 369.42,218.75 369.95,212.78 369.39,206.81 367.92,201 364.47,192.7 360.02,184.88 354.9,177.48 347.36,168.15 323.01,141.64 317.8,134.31 315.11,128.96" fill="none" stroke="#000000" stroke-width="1"/><polyline id="SvgjsPolyline1108" points="243.27,127.87 240.55,145.66 235.08,190.33 232.69,205.13 227.31,234.65 224.97,252.49 224.38,261.47 224.47,270.47 225.43,279.41 227.38,288.19 229.25,293.89 232.89,302.12 235.82,307.35 240.89,314.78 246.66,321.68 250.85,325.97 255.3,330 262.42,335.5 270.05,340.27 275.4,342.98 280.95,345.25 286.68,347.02 292.56,348.22 298.53,348.76 304.52,348.56 310.42,347.5 316.08,345.52 318.76,344.18 323.75,340.85 328.17,336.8 333.84,329.83 338.73,322.27 349.3,304.13 355.71,293.99 364.42,281.77 380.94,260.42 387.63,250.46 390.47,245.18 392.74,239.63 394.25,233.83 394.85,227.86 394.79,224.87 393.99,218.92 391.41,210.31 389.01,204.81 386.23,199.5 378.14,186.88 368.94,175.04 362.99,168.29 356.73,161.81 345.69,151.67 324.78,134.59 318.36,128.29 314.89,123.41 313.58,120.71 311.9,114.96 311.09,109.02" fill="none" stroke="#000000" stroke-width="1"/><polyline id="SvgjsPolyline1109" points="248.11,104.49 244.25,118.98 235.75,153.97 230.8,171.27 223.89,191.1 208.69,230.25 203.23,247.4 200.63,259.1 199.52,268.03 199.35,277.03 200.28,285.97 202.33,294.73 204.28,300.4 207.96,308.61 212.36,316.46 217.32,323.97 224.58,333.52 232.41,342.61 240.74,351.24 247.35,357.35 254.32,363.04 261.72,368.16 266.93,371.14 275.08,374.94 280.7,377.04 289.43,379.22 295.38,379.97 301.37,380.14 307.35,379.67 313.24,378.53 318.93,376.65 324.29,373.97 326.8,372.32 331.38,368.46 335.32,363.94 338.62,358.93 342.61,350.87 345.82,342.47 354.53,316.91 360.5,303.15 364.71,295.2 369.37,287.5 388.25,260.44 392.99,252.8 395.72,247.46 397.9,241.87 399.35,236.05 399.75,233.08 399.84,227.09 399.04,221.15 397.49,215.35 395.35,209.75 392.79,204.33 388.36,196.49 383.45,188.95 378.18,181.66 368.74,170 358.49,159.06 351.92,152.9 345.07,147.07 321.45,128.59 317.23,124.33 313.88,119.37" fill="none" stroke="#000000" stroke-width="1"/><polyline id="SvgjsPolyline1110" points="241.25,128.48 234.65,151.55 228.8,168.57 222.07,185.27 204.05,226.5 199.74,237.7 196.04,249.11 193.27,260.78 192.38,266.72 191.89,272.69 191.87,278.69 192.35,284.67 194.03,293.51 196.78,302.07 200.42,310.3 206.27,320.77 212.88,330.78 225.44,347.61 244.1,371.1 255.54,385 263.73,393.77 268.24,397.72 273.16,401.14 281.24,405.1 286.91,407.03 292.8,408.18 298.78,408.63 304.77,408.46 313.66,407.08 319.42,405.42 324.95,403.11 330.14,400.1 332.55,398.32 334.83,396.36 338.89,391.95 340.67,389.54 343.72,384.38 347.2,376.09 349.73,367.45 357.29,329.2 360.4,317.61 363.36,309.11 366.91,300.85 372.51,290.24 378.88,280.07 392.33,260.19 398.17,249.72 400.43,244.16 401.99,238.38 402.47,235.41 402.72,229.43 402.08,223.46 400.67,217.64 398.64,211.99 396.17,206.53 393.36,201.22 388.71,193.52 378.34,178.81 366.88,164.94 360.72,158.38 354.23,152.15 345.09,144.37 325.85,130.03 318.96,124.25 315.04,119.72 313.52,117.14 311.65,111.46" fill="none" stroke="#000000" stroke-width="1"/><polyline id="SvgjsPolyline1111" points="240.47,130.47 234.41,150.58 227.23,170.31 221.39,184.13 204.11,222.4 196.48,241.96 193.01,253.45 191.09,262.24 189.99,271.17 189.81,277.16 190.47,286.13 192.28,294.94 195.15,303.47 198.85,311.67 203.19,319.55 209.63,329.67 234.14,363.78 240.77,373.78 245.29,381.56 247.91,386.95 250,392.58 250.74,395.48 251.36,401.44 251.13,404.43 249.9,410.3 247.71,415.87 246.23,418.48 242.75,423.36 228.93,439.17 223.75,446.52 221.09,451.89 220.07,454.71 219.29,457.61 218.44,463.54 218.68,472.52 220.2,481.39 222.45,490.1 230.5,515.87 233.67,527.45 236.68,542.14 238.24,554.03" fill="none" stroke="#000000" stroke-width="1"/><polyline id="SvgjsPolyline1112" points="254.68,83.29 248.26,103.29 237.69,140.83 231.3,160.83 222.5,183.15 204.27,224.29 197.82,241.09 195.12,249.68 192.95,258.41 191.5,267.29 191.04,273.27 191.25,282.26 192.6,291.15 195.06,299.81 199.75,310.84 204.07,318.73 210.52,328.85 219.25,341.05 239.2,367.34 248.02,379.47 258.03,394.42 265.69,407.32 273.79,423.39 279.42,437.29 282.24,445.83 284.61,454.51 287.49,469.23 288.84,481.15 289.4,496.14 288.89,511.13 287.41,526.04 285.9,528.63 283.8,530.77 281.43,532.6 265.96,541.8 258.56,546.91 254.12,550.94 248.54,557.99 245.63,563.23 244.51,566.01 242.86,571.77 241.79,577.68 241.12,583.64 240.34,598.62" fill="none" stroke="#000000" stroke-width="1"/><polyline id="SvgjsPolyline1113" points="206.71,217.99 200.96,231.84 196.86,243.12 193.51,254.64 191.72,263.46 190.77,272.41 190.86,281.4 191.55,287.36 193.54,296.13 195.45,301.82 199.02,310.07 206.39,323.13 216.57,337.97 241.62,371.68 251.56,386.68 255.95,394.54 258.44,400 260.3,405.69 260.85,408.64 261.04,411.63 260.8,414.62 260.11,417.54 257.93,423.12 256.52,425.77 254.86,428.27 251.06,432.9 238.33,445.64 232.42,452.42 229.1,457.41 227.71,460.06 226.53,462.82 224.9,468.59 224.43,471.55 224.12,477.54 224.48,483.53 225.33,489.46 227.15,498.28 233.62,524.49 236.49,539.21" fill="none" stroke="#000000" stroke-width="1"/><polyline id="SvgjsPolyline1114" points="246.48,376.78 265.39,403.83 270.9,410.94 275.16,415.15 277.55,416.96 282.86,419.72 288.56,421.61 294.44,422.75 300.43,423.06 309.39,422.3 318.15,420.28 323.78,418.22 331.68,413.93 336.38,410.21 340.48,405.84 343.89,400.91 346.64,395.58 349.73,387.13 351.25,381.33 352.99,372.5 357.02,342.77 359,330.94 361.74,319.26 365.52,307.87 369.07,299.61 374.7,289.01 381.07,278.85 392.77,261.41 397.32,253.65 401.01,245.45 402.69,239.69 403.54,233.76 403.49,227.76 402.57,221.84 400.93,216.07 398.75,210.48 394.74,202.43 390.15,194.69 383.45,184.73 372.49,170.46 366.61,163.65 360.43,157.11 353.92,150.89 347.09,145.03 320.75,125.17 316.48,120.96 314.68,118.57 313.22,115.95 312.16,113.14" fill="none" stroke="#000000" stroke-width="1"/><polyline id="SvgjsPolyline1115" points="260.96,399.77 266.51,410.41 269.62,418.84 270.19,421.79 270.35,424.78 269.98,427.75 269.06,430.61 267.7,433.28 262.41,440.54 258.18,444.79 242.46,458.71 236.57,465.5 233.43,470.61 232.18,473.34 231.17,476.16 229.85,482.01 229.37,487.98 229.79,496.97 231.01,505.88 236.73,538.38 238.17,550.29 239.26,565.25" fill="none" stroke="#000000" stroke-width="1"/><polyline id="SvgjsPolyline1116" points="237.39,141.88 232.9,156.19 227.78,170.29 222.07,184.16 202.72,228.08 198.46,239.3 194.83,250.73 192.2,262.44 191.4,268.38 191.02,274.37 191.36,283.36 192.22,289.29 193.6,295.13 195.43,300.84 198.93,309.13 201.66,314.47 206.21,322.24 216.36,337.1 241.66,370.62 252.09,385.29 261.81,400.43 275.06,423.96 278.49,428.88 280.59,431.01 283.02,432.76 285.72,434.07 288.58,434.97 294.47,436.09 297.46,436.38 303.45,436.34 309.41,435.65 315.28,434.42 321.02,432.68 326.56,430.38 334.27,425.76 336.61,423.88 340.84,419.64 344.41,414.82 347.3,409.57 350.54,401.18 353.35,389.52 355.11,377.65 357.98,347.79 359.48,335.89 361.7,324.09 364.91,312.54 369.26,301.36 374.68,290.66 380.92,280.41 394.16,260.4 398.6,252.57 401.06,247.1 402.91,241.4 403.98,235.5 404.18,232.5 403.9,226.52 402.79,220.62 401,214.9 397.41,206.65 393.09,198.76 388.31,191.13 383.2,183.73 375.98,174.14 366.31,162.67 355.81,151.98 344.39,142.26 322.65,126.25 318.14,122.29 314.35,117.66" fill="none" stroke="#000000" stroke-width="1"/><polyline id="SvgjsPolyline1117" points="270.38,416.3 275.29,427.25 277.99,435.82 278.31,438.8 278,441.78 276.99,444.6 275.44,447.17 273.55,449.49 269.33,453.76 264.75,457.64 250.45,468.56 243.91,474.73 240.18,479.43 237.24,484.65 236.12,487.43 234.58,493.23 233.86,499.18 233.87,508.17 234.63,517.14 237.81,543.95 238.82,555.91 239.64,573.89 239.95,597.89" fill="none" stroke="#000000" stroke-width="1"/><polyline id="SvgjsPolyline1118" points="281.59,442.51 282.95,445.19 284.83,447.52 287.32,449.18 290.14,450.2 293.09,450.73 302.07,451.09 308.04,450.49 313.93,449.35 319.7,447.72 325.31,445.59 333.21,441.3 337.94,437.63 340.1,435.54 342.1,433.3 345.57,428.42 348.38,423.12 350.61,417.55 352.35,411.81 354.28,403.02 355.61,394.12 356.54,385.17 358.73,352.25 359.86,340.3 362.23,325.49 365.23,313.88 369.4,302.63 374.67,291.86 380.81,281.55 394.01,261.51 398.51,253.71 402.12,245.48 403.74,239.71 404.25,236.75 404.58,230.77 404.02,224.8 402.68,218.95 399.56,210.52 395.54,202.47 390.95,194.73 385.98,187.22 378.94,177.51 367.54,163.58 361.42,156.99 354.96,150.73 343.47,141.09 321.7,125.12 317.28,121.07 315.34,118.79" fill="none" stroke="#000000" stroke-width="1"/><polyline id="SvgjsPolyline1119" points="245.27,113.61 236.34,145.38 229.68,165.29 222.99,182 203.6,225.91 197.26,242.75 194.65,251.36 192.61,260.13 191.32,269.03 191,275.02 191.42,284.01 192.99,292.86 195.65,301.45 200.55,312.4 204.97,320.24 211.51,330.3 220.3,342.45 245.56,376.01 254.09,388.34 262.08,401.03 269.34,414.16 275.69,427.74 280.95,441.78 283.25,450.48 283.38,453.47 282.63,456.37 281.12,458.96 279.17,461.23 272.29,467.03 257.47,477.23 250.39,482.78 246.14,487.02 244.24,489.34 242.53,491.8 239.78,497.12 238.76,499.94 237.38,505.78 236.72,511.74 236.57,517.73 239.45,565.64" fill="none" stroke="#000000" stroke-width="1"/><polyline id="SvgjsPolyline1120" points="277.7,432.67 281.68,443.99 285.69,458.44 287.28,460.98 289.84,462.52 292.74,463.27 301.73,463.52 307.69,462.92 316.49,461.03 324.98,458.07 332.93,453.87 337.71,450.26 341.91,445.98 345.44,441.13 348.29,435.86 351.52,427.47 353.79,418.76 355.38,409.91 357.28,392.01 359.09,356.06 360.28,341.11 362.5,326.28 365.39,314.63 369.44,303.35 374.63,292.53 380.71,282.19 393.89,262.13 398.42,254.36 402.11,246.16 403.81,240.41 404.36,237.46 404.79,231.48 404.32,225.5 403.05,219.64 400.01,211.18 396.04,203.1 391.49,195.34 386.56,187.82 379.54,178.08 368.21,164.1 362.12,157.48 355.7,151.17 344.26,141.48 322.46,125.55 317.95,121.59 314.18,116.94" fill="none" stroke="#000000" stroke-width="1"/><polyline id="SvgjsPolyline1121" points="288.87,474.4 291.51,475.79 294.46,476.33 303.45,476.14 309.39,475.34 315.25,474.05 323.8,471.25 331.83,467.22 336.7,463.72 340.98,459.53 342.87,457.2 346.13,452.16 348.75,446.77 351.73,438.28 353.88,429.54 355.86,417.71 357.82,396.81 359.37,357.84 360.39,342.88" fill="none" stroke="#000000" stroke-width="1"/><polyline id="SvgjsPolyline1122" points="230.6,162.76 222.87,182.28 203.49,226.19 199.14,237.38 195.38,248.77 192.55,260.43 191.3,269.34 190.99,275.33 191.17,281.32 192.4,290.23 193.85,296.05 196.86,304.53 200.69,312.67 206.71,323.05 216.91,337.87 240.43,368.99 249.2,381.15 259.12,396.17 266.68,409.12 273.4,422.53 279.1,436.4 283.63,450.69 286.84,465.34 286.78,468.34 285.58,471.08 283.69,473.4 279.08,477.23 258.89,490.2 251.78,495.71 247.61,500.02 245.78,502.39 242.77,507.57 241.62,510.34 240.69,513.19 239.44,519.06 238.81,525.02 238.59,531.02 239.69,570 239.98,600" fill="none" stroke="#000000" stroke-width="1"/><polyline id="SvgjsPolyline1123" points="256.47,78.13 248.97,100.92 236.69,144.21 231.12,161.33 223.47,180.88 204.07,224.78 199.66,235.94 196.71,244.44 193.48,256 191.82,264.84 191.02,273.8 191.29,282.79 192.71,291.67 195.23,300.31 198.68,308.62 204.34,319.19 209.14,326.8 216.01,336.64 241.3,370.17 251.74,384.83 261.46,399.98 270.14,415.74 274.01,423.87 277.5,432.17 280.58,440.62 283.23,449.22 285.4,457.95 287.11,466.79 288.95,481.67 288.87,484.67 289.63,487.57 292.33,488.83 295.3,489.26 304.28,488.86 313.15,487.37 321.78,484.83 329.95,481.08 334.92,477.74 339.32,473.66 343.01,468.94 347.28,461.03 350.38,452.59 352.68,443.89 354.44,435.06 356.16,423.19 358.15,399.27 359.46,360.3 360.33,345.32 362.12,330.43 364.59,318.7 368.2,307.26 371.69,298.96 374.36,293.59 380.35,283.2 395.09,260.58 400.76,250.01 403.74,241.53 404.77,235.63 404.96,232.63 404.64,226.65 403.51,220.76 401.71,215.04 399.41,209.5 395.29,201.5 390.65,193.79 383.93,183.85 378.58,176.61 367.16,162.7 361.01,156.13 354.53,149.89 343,140.3 325.96,128.03 318.95,122.39 314.94,117.94 313.38,115.38 312.24,112.61 311.51,109.71" fill="none" stroke="#000000" stroke-width="1"/><polyline id="SvgjsPolyline1124" points="287.35,468.32 288.87,480.22 288.53,483.19 286.95,485.73 284.81,487.83 279.94,491.32 261.89,502.06 254.58,507.3 250.23,511.42 246.57,516.16 245.06,518.76 242.75,524.29 240.77,533.06 239.85,545.01 240,599.01" fill="none" stroke="#000000" stroke-width="1"/><polyline id="SvgjsPolyline1125" points="286.17,461.59 287.67,470.46 288.69,479.4 289.49,494.38 289.2,497.36 289.66,500.32 292.36,501.57 295.33,501.97 298.33,501.99 307.29,501.22 313.19,500.13 318.98,498.56 327.31,495.18 332.42,492.05 334.77,490.19 338.95,485.89 342.37,480.97 346.3,472.88 349.21,464.37 352.13,452.73 354.78,437.97 356.64,423.09" fill="none" stroke="#000000" stroke-width="1"/><polyline id="SvgjsPolyline1126" points="288.99,483.05 289.57,495.03 288.82,497.93 286.98,500.29 282.25,503.96 264.06,514.45 256.61,519.48 252.11,523.45 250.09,525.67 248.27,528.05 245.3,533.25 244.15,536.03 242.48,541.78 241.08,550.67 240.35,562.64 240.06,583.64" fill="none" stroke="#000000" stroke-width="1"/><polyline id="SvgjsPolyline1127" points="283.5,450.23 286.78,464.86 288.72,479.73 289.4,494.71 289.22,506.71 288.8,509.68 289.06,512.66 291.73,513.98 294.69,514.44 303.68,514.22 309.63,513.46 315.5,512.21 321.23,510.43 326.7,507.98 329.28,506.45 333.97,502.73 336.03,500.55 339.54,495.69 343.54,487.64 345.62,482.01 348.2,473.39 352.18,455.84 355.08,438.08" fill="none" stroke="#000000" stroke-width="1"/><polyline id="SvgjsPolyline1128" points="288.52,515.69 287.85,521.64 288,524.63 290.6,526.09 293.54,526.67 296.53,526.84 302.53,526.7 308.49,526.1 317.28,524.19 322.91,522.12 325.59,520.76 330.48,517.32 332.63,515.22 336.23,510.43 339.06,505.15 341.36,499.61 344.2,491.07 346.62,482.4 351.83,458.98" fill="none" stroke="#000000" stroke-width="1"/><polyline id="SvgjsPolyline1129" points="287.72,524.42 286.52,533.34 286.62,536.33 289.11,537.96 292.02,538.67 295.01,538.96 304,538.89 312.9,537.61 318.67,535.98 321.45,534.85 326.59,531.77 328.84,529.79 332.56,525.1 336.6,517.07 341.44,502.88 346.85,482.59" fill="none" stroke="#000000" stroke-width="1"/><polyline id="SvgjsPolyline1130" points="289.4,497.11 289.01,509.1 288.34,518.07 286.7,532.98 284.96,544.85 285.06,547.85 287.43,549.64 290.3,550.5 293.27,550.91 302.26,551.16 311.2,550.14 316.99,548.61 319.77,547.47 322.39,546.02 324.78,544.21 326.88,542.07 328.67,539.67 330.2,537.08 332.69,531.63 336.62,520.29 340.86,505.91" fill="none" stroke="#000000" stroke-width="1"/><polyline id="SvgjsPolyline1131" points="285.19,541.98 283.64,544.55 279.23,548.59 258.86,561.27 254.13,564.96 249.97,569.26 246.63,574.24 244.22,579.73 242.06,588.45 240.99,597.39" fill="none" stroke="#000000" stroke-width="1"/><polyline id="SvgjsPolyline1132" points="289.23,487.66 289.3,502.65 288.38,517.63 286.37,535.51 283.26,556.28 283.41,559.27 285.68,561.2 288.5,562.2 291.46,562.73 297.43,563.23 303.43,563.19 312.33,561.94 317.98,559.95 320.54,558.4 322.8,556.43 324.68,554.1 327.53,548.83 330.68,540.4 335.12,526.08" fill="none" stroke="#000000" stroke-width="1"/><polyline id="SvgjsPolyline1133" points="284.61,547.89 281.06,571.63 282.58,574.19 285.19,575.65 288.07,576.47 293.99,577.43 299.98,577.76 305.96,577.45 311.86,576.36 314.68,575.35 317.27,573.85 319.47,571.81 321.19,569.36 323.65,563.9 326.45,555.35 335.86,523.72 342.36,500.61 349.43,471.46 351.78,459.69 354.25,444.9" fill="none" stroke="#000000" stroke-width="1"/><polyline id="SvgjsPolyline1134" points="282.89,559.14 279.38,582.88 279.4,585.88 283.09,590.56 285.64,592.12 288.47,593.11 291.4,593.73 297.37,594.32 306.35,593.98 309.3,593.41 312.11,592.4 314.58,590.71 316.42,588.36 317.71,585.65 333.73,530.96" fill="none" stroke="#000000" stroke-width="1"/><polyline id="SvgjsPolyline1135" points="289.39,498.08 288.75,513.06 287.31,527.99 285.35,542.86 279.03,584.38 278.1,587.23 276.55,589.8 274.55,592.03 264.99,599.27" fill="none" stroke="#000000" stroke-width="1"/><polyline id="SvgjsPolyline1136" points="339.52,599.06 326.69,591.3 324.28,589.51 322.22,587.35 320.85,584.7 320.39,581.74 320.57,578.75 321.73,572.87 324.85,561.28" fill="none" stroke="#000000" stroke-width="1"/><polyline id="SvgjsPolyline1137" points="358.79,599.66 366.15,583.24 370.42,572.03 372.68,563.32 373.26,557.36 373.12,554.36 371.74,548.54 368.94,543.25 365.21,538.56 354.65,527.9 350.65,523.44 347.34,518.44 345.24,512.84 344.44,506.9 344.9,497.92 346.29,489.03 349.74,471.36" fill="none" stroke="#000000" stroke-width="1"/><polyline id="SvgjsPolyline1138" points="360.17,597.8 372.28,573.67 378.36,559.96 382.16,548.59 383.39,542.71 383.87,536.74 383.75,533.74 382.62,527.86 380.33,522.32 377.15,517.24 373.54,512.44 363.9,500.95 360.36,496.12 357.39,490.9 356.21,488.15 354.51,482.4 353.45,473.47 353.55,464.48 357.94,413.67" fill="none" stroke="#000000" stroke-width="1"/><polyline id="SvgjsPolyline1139" points="402.76,599.76 400.52,594.2 399.76,591.3 399.07,585.35 399.11,582.35 399.81,576.4 401.92,567.65 405.83,556.31 410.39,545.21 434.21,493.43 441.27,476.87 445.55,465.66 450.16,451.39 453,439.74 454.79,427.88 455.26,418.89 455.11,412.89 454.55,406.92 453.61,401 451.52,392.25 447.74,380.86 437.51,355.87 433.36,344.61 430.21,333.04 429.17,327.13 428.58,321.17 428.64,312.17 429.34,306.21 430.53,300.34 434.13,288.9 444.28,263.88 446.61,255.2 447.36,249.25 447.05,240.27 445.17,231.48 442.24,222.97 435.23,206.39 432.02,197.98 429.63,189.31 428.62,180.38 428.98,174.4 431.02,165.65 438.99,146.23 441.63,137.63 442.81,128.72 442.47,119.74 440.26,107.95 436.87,96.44 430.71,79.53 418.37,48.93 411.98,32.1 406.46,14.97 402.68,0.46" fill="none" stroke="#000000" stroke-width="1"/><polyline id="SvgjsPolyline1140" points="436.01,598.25 437.16,589.33 437.1,583.34 436.73,580.36 436.12,577.42 434.29,571.71 428.36,557.94 426.58,552.21 425.64,546.29 425.51,543.3 426.26,534.34 428.25,525.56 431.94,514.15 436.23,502.95 450.99,466.84 458,447.06 460.51,438.41 462.57,429.65 464.07,420.78 464.85,411.82 464.6,399.83 463.88,393.87 462.11,385.05 458.69,373.55 449.16,348.29 445.46,336.88 444.02,331.06 442.97,325.15 442.27,316.18 442.75,307.2 444.39,298.36 446.96,289.74 454.44,270.12 456.3,264.41 457.71,258.58 458.5,252.64 458.55,246.64 457.26,237.75 454.74,229.11 448.28,212.31 445.37,203.8 443.4,195.02 442.92,189.05 443.26,183.06 444.41,177.18 446.19,171.45 451.61,157.46 454.11,148.82 454.99,142.89 455.14,136.9 454.63,130.92 452.9,122.09 450.41,113.45 446.41,102.13 434.94,74.42 413.94,27.94 408.45,13.98 404.69,2.59" fill="none" stroke="#000000" stroke-width="1"/><polyline id="SvgjsPolyline1141" points="460.93,598.66 463.89,587.03 474.37,555.74 476.41,546.98 477.17,541.03 477.04,532.05 476.02,526.14 469.72,506.12 467.91,497.31 467.51,488.32 468.38,479.37 470.16,470.55 472.49,461.86 482.68,430.47 486.92,416.09 490.07,401.43 491.26,389.5 491.14,380.5 490.54,374.53 489.54,368.62 486.6,356.99 478.67,331.18 476.87,322.37 476.09,313.41 476.25,307.41 477.49,298.5 479.71,289.78 485.9,269.72 487.11,263.85 487.72,257.88 487.62,251.89 486.84,245.94 484.68,237.21 478.54,217.13 477.41,211.24 476.93,205.26 477.23,199.28 478.28,193.37 483.53,176.16 484.95,170.33 485.74,164.39 485.79,158.39 485.14,152.43 483.22,143.64 475,117.93 471.75,106.38 469.56,94.59 468.94,85.61 469.14,79.62 470.42,70.72 472.72,62.02 479.13,42.02 480.45,36.17 481.33,30.24 481.75,24.25 481.6,15.26 479.77,0.38" fill="none" stroke="#000000" stroke-width="1"/><polyline id="SvgjsPolyline1142" points="442.3,598.51 444.96,589.92 446.25,584.06 446.93,578.1 446.75,572.11 446.3,569.14 444.05,560.43 438.47,546.51 435.96,537.89 435.25,531.93 435.64,522.95 437.33,514.12 440.73,502.61 444.8,491.32 457.83,457.77 464.49,437.85 466.8,429.16 468.61,420.34 469.79,411.42 470.15,405.43 469.73,393.45 467.75,381.62 464.49,370.08 455.3,344.69 452.61,336.1 450.11,324.38 449.39,315.41 449.87,306.43 451.52,297.59 454.08,288.96 462.15,266.37 463.58,260.54 464.42,254.6 464.53,248.61 463.34,239.7 460.92,231.04 452.82,208.45 450.76,199.69 450.18,193.73 450.41,187.73 451.44,181.83 453.11,176.07 458.31,162 460.68,153.32 461.45,147.38 461.49,141.38 460.35,132.46 458.2,123.72 455.45,115.16 450.17,101.12 435.1,65.15 413.45,18.97 406.57,2.35" fill="none" stroke="#000000" stroke-width="1"/><polyline id="SvgjsPolyline1143" points="453.31,598.47 460.66,578.8 463.49,570.25 465.66,561.52 466.6,552.59 466.24,546.6 465.05,540.73 463.35,534.97 458.34,520.83 456.21,512.1 455.6,503.13 456.4,494.17 458.2,485.36 460.6,476.69 474.21,436.95 478.52,422.59 481.7,407.94 482.77,399 483.03,393.01 482.69,384.02 480.82,372.17 478.56,363.47 471.02,340.68 468.52,332.04 466.72,323.22 465.94,314.26 466.09,308.27 467.32,299.36 469.55,290.64 476.92,267.81 478.15,261.94 478.76,255.97 478.65,249.98 477.21,241.1 468.33,212.46 467.22,206.56 466.78,200.58 467.15,194.6 468.27,188.71 473.8,171.58 475.92,162.85 476.51,156.88 476.37,150.88 474.99,142 472.66,133.31 460.96,99.26 456.79,84.86 453.76,70.17 452.53,58.24 452.43,52.24 452.76,46.25 454.11,37.36 456.44,28.67 463.47,8.89 465.79,0.2" fill="none" stroke="#000000" stroke-width="1"/><polyline id="SvgjsPolyline1144" points="451.25,598.09 457.64,581.26 460.4,572.7 462.42,563.93 463.04,557.97 462.87,551.98 461.82,546.07 460.08,540.34 455.92,529.08 453.58,520.4 452.68,511.45 452.89,505.46 453.63,499.51 455.47,490.7 457.89,482.03 471.59,442.33 476.76,425.1 478.76,416.32 479.76,410.41 480.66,401.45 480.78,395.46 480.19,386.48 478.7,377.61 475.58,366.03 466.15,337.55 463.66,325.82 462.97,316.85 463.18,310.86 464.49,301.96 466.77,293.26 474.21,270.45 475.46,264.58 476.09,258.62 476,252.62 474.61,243.74 472.13,235.09 465.51,215.16 464.25,209.3 463.65,203.33 463.86,197.34 464.88,191.43 466.5,185.66 471.28,171.44 472.71,165.62 473.62,156.68 473.34,150.69 471.86,141.81 469.51,133.13 452.62,85.01 448.38,70.63 444.83,56.05 442.14,41.3 440.38,23.39 440.5,11.4 441.65,2.48" fill="none" stroke="#000000" stroke-width="1"/><polyline id="SvgjsPolyline1145" points="450.26,598.04 455.63,584.03 459.26,572.59 461.01,563.77 461.36,557.79 460.85,551.81 459.51,545.97 453.44,529.03 451.41,520.27 450.9,511.3 451.75,502.34 453.55,493.53 455.95,484.86 459.7,473.46 469.75,445.19 475.06,428 478.27,413.35 479.51,401.42 479.57,395.42 479.21,389.43 477.3,377.6 474.09,366.04 467.25,346.18 463.85,334.68 462.13,325.85 461.46,316.88 461.68,310.88 462.99,301.99 465.29,293.29 472.8,270.5 474.08,264.64 474.75,258.68 474.71,252.69 473.37,243.8 470.91,235.14 464.2,215.24 462.86,209.4 462.16,203.44 462.26,197.45 463.18,191.52 464.74,185.73 470.41,168.65 472.02,159.81 472.22,153.82 471.29,144.87 468.45,133.22 464.65,121.84 453.26,90.87 447.55,73.8 441.55,53.68 431.21,16.07 426.83,1.72" fill="none" stroke="#000000" stroke-width="1"/><polyline id="SvgjsPolyline1146" points="246.98,110.89 244.08,125.61 242.11,140.47 241.03,155.43 240.71,173.43 241.34,197.42 243.03,227.37 244.98,245.26 246.55,254.12 247.93,259.96 251.68,271.35 256.67,282.26 261.42,289.9 267.12,296.85 273.76,302.91 281.27,307.84 286.73,310.34 289.57,311.3 295.43,312.57 298.41,312.84 304.4,312.58 307.35,312.05 310.24,311.25 315.78,308.95 320.93,305.88 325.73,302.29 336.75,292.13 363.8,264.03 369.8,257.32 375.43,250.3 380.39,242.8 383.08,237.44 385.03,231.77 386.06,225.87 386.2,222.87 385.74,216.89 383.49,208.19 381.21,202.65 378.49,197.3 372.11,187.14 364.86,177.58 354.89,166.38 344.13,155.93 326.21,139.97 319.95,133.51 316.41,128.67 314.96,126.05 313.77,123.29 312.16,117.52" fill="none" stroke="#000000" stroke-width="1"/><polyline id="SvgjsPolyline1147" points="288.12,513.05 286.2,515.35 281.42,518.97 265.78,527.87 258.21,532.73 253.58,536.54 251.48,538.67 247.85,543.44 246.37,546.05 244.09,551.6 242.04,560.35 240.8,572.28 240.15,593.27" fill="none" stroke="#000000" stroke-width="1"/><polyline id="SvgjsPolyline1148" points="416.33,599.84 409.51,586.48 407.5,580.83 406.86,577.91 406.48,574.93 406.47,568.94 407.87,560.06 410.33,551.4 415.61,537.36 438.79,485.29 443.38,474.21 448.6,460.15 452.94,445.79 455.5,434.07 456.91,422.16 457.05,413.17 456.31,404.2 453.99,392.43 449.4,378.16 439.29,353.13 435.31,341.81 432.42,330.17 431.56,324.23 431.17,318.25 431.57,309.26 432.48,303.33 433.87,297.5 436.66,288.94 444.61,269.51 446.64,263.86 448.86,255.15 449.54,249.19 449.44,243.2 447.94,234.33 445.24,225.75 437.26,206.33 434.21,197.87 432.08,189.13 431.48,183.16 431.69,177.17 433.55,168.38 435.56,162.73 441.35,148.89 444,140.3 445.21,131.39 444.87,122.41 442.64,110.63 439.21,99.13 432.96,82.25 418.04,46.22 412.58,32.25 407.72,18.06 402.92,0.71" fill="none" stroke="#000000" stroke-width="1"/><polyline id="SvgjsPolyline1149" points="427.88,597.18 426.29,591.4 424.07,585.83 417.75,572.23 415.96,566.51 415.1,560.57 415.04,557.58 416.02,548.64 418.2,539.91 423.19,525.77 443.25,478.88 451.78,456.46 455.31,444.99 457.46,436.25 459.07,427.4 459.99,418.45 460.1,409.45 459.69,403.47 458.34,394.57 456.98,388.73 453.42,377.27 443.56,352.14 439.62,340.81 436.76,329.16 435.68,320.23 435.74,311.24 436.43,305.28 437.63,299.4 441.21,287.95 449.95,265.61 452.26,256.92 453.03,250.97 453.04,244.97 451.69,236.09 449.1,227.47 441.33,207.97 438.4,199.46 436.47,190.68 436.03,184.7 436.43,178.71 437.64,172.84 439.49,167.14 446.14,150.42 447.82,144.66 448.86,138.75 449.08,129.77 448.44,123.8 447.31,117.91 444.97,109.22 442.14,100.68 433.36,78.35 413.31,31.46 407.26,14.51 403.13,0.09" fill="none" stroke="#000000" stroke-width="1"/><polyline id="SvgjsPolyline1150" points="473.24,598.36 472.72,592.39 472.77,589.39 473.93,580.47 476.12,571.75 482.56,551.76 485.04,543.11 486.79,534.29 487.3,528.31 487.12,522.32 486.24,516.39 484.77,510.57 480.29,496.26 478.41,487.46 477.82,478.49 478.47,469.52 480.04,460.66 482.21,451.93 492.76,417.51 495.82,405.91 498.02,394.11 498.91,382.15 498.5,373.17 497.16,364.27 495.07,355.52 487.47,329.62 485.77,320.78 485.2,314.81 485.16,308.81 486.15,299.87 488.16,291.11 494.1,270.97 495.63,262.1 495.85,256.11 495.37,250.14 494.28,244.24 487.64,221.18 486.48,215.3 485.93,209.32 486.16,203.33 487.13,197.42 492.14,180.13 493.46,174.28 494.14,168.32 493.78,159.34 492.77,153.43 491.33,147.61 485.15,127.54 482.81,118.85 481.12,110.01 480.52,104.04 480.61,95.05 481.38,89.1 483.45,80.35 489.48,60.24 490.68,54.36 491.59,45.41 491.49,36.42 490.57,27.46 488.47,15.65 484.97,1.07" fill="none" stroke="#000000" stroke-width="1"/><polyline id="SvgjsPolyline1151" points="456.55,599.85 468.3,565.83 470.57,557.12 471.73,548.21 471.59,542.22 470.61,536.3 468.98,530.53 464.12,516.34 462.22,507.55 461.72,498.57 462.5,489.61 464.19,480.78 466.48,472.07 478.68,435.03 482.9,420.64 485.94,405.96 486.98,394.01 486.71,385.02 486.01,379.06 484.91,373.16 482.68,364.45 473.62,335.85 471.7,327.06 470.76,318.12 471.02,309.13 472.46,300.25 474.81,291.57 481.11,271.54 482.31,265.66 482.9,259.7 482.77,253.7 481.34,244.82 479.78,239.03 473.38,219.04 472.09,213.18 471.44,207.22 471.58,201.22 472.52,195.3 474.07,189.51 478.66,175.23 479.98,169.38 480.65,163.42 480.61,157.42 479.37,148.52 477.16,139.79 466.67,108.51 463.41,96.96 461.08,85.19 460.25,76.24 460.44,67.25 461.22,61.3 462.5,55.44 464.19,49.68 470.98,29.81 473.28,21.11 474.6,12.22 474.91,6.22 474.81,0.23" fill="none" stroke="#000000" stroke-width="1"/><polyline id="SvgjsPolyline1152" points="474.87,433.92 478.76,419.44 480.84,407.63 481.54,398.66 481.51,392.66 481.07,386.68 479.64,377.79 477.46,369.06 468.93,343.45 466.45,334.8 464.69,325.98 463.96,317.01 464.15,311.02 465.43,302.12 467.68,293.41 475.09,270.58 476.33,264.72 476.95,258.75 476.86,252.76 475.46,243.87 472.99,235.22 466.42,215.28 465.19,209.41 464.63,203.44 464.89,197.45 465.95,191.55 472.34,171.56 473.71,165.72 474.43,159.76 474.44,153.77 473.28,144.85 470.25,133.25 457.24,96.48 451.91,79.29 448.33,64.73 446.23,52.91 445.27,43.97 445.01,37.97 445.13,31.98 445.71,26.01 446.78,20.1 448.32,14.31 453.48,0.22" fill="none" stroke="#000000" stroke-width="1"/><polyline id="SvgjsPolyline1153" points="485.96,599.34 482.86,587.76 482.23,581.8 482.4,575.8 483.24,569.87 484.56,564.01 491.5,541.04 493.74,532.33 495.1,523.44 495.28,517.44 494.77,511.47 493.62,505.58 488.55,488.31 487.19,482.47 486.12,473.54 486.3,464.55 487.5,455.63 489.41,446.84 499.49,412.28 502.45,400.66 504.5,388.84 505.16,379.87 504.87,370.87 503.64,361.96 501.62,353.19 495.01,330.12 493.22,321.31 492.56,315.35 492.43,309.35 493.29,300.4 495.2,291.61 500.92,271.4 502.32,262.52 502.46,256.53 501.38,247.6 500.01,241.76 495.05,224.46 493.84,218.58 493.22,212.62 493.36,206.63 494.25,200.69 499.07,183.36 500.33,177.49 500.95,171.53 500.84,165.54 500.05,159.59 498.77,153.73 492.87,133.58 490.67,124.85 489.25,115.97 488.92,109.98 489.17,103.99 490.63,95.11 496.42,74.93 498.28,66.13 499.08,57.17 499.02,51.17 498.19,42.21 496.11,30.4 493.33,18.73 488.44,1.4" fill="none" stroke="#000000" stroke-width="1"/><polyline id="SvgjsPolyline1154" points="498.12,598.57 492.63,578.3 491.85,572.36 491.87,566.36 492.58,560.41 493.79,554.53 501.86,525.65 503.34,516.77 503.65,510.78 503.31,504.8 502.34,498.88 497.51,481.54 495.55,472.76 494.84,466.81 494.79,457.81 495.78,448.87 497.53,440.04 499.74,431.32 507.18,405.37 509.93,393.69 511.64,381.82 511.93,372.83 511.58,366.84 510.27,357.94 508.21,349.18 501.93,326.02 500.51,317.14 500.17,311.15 500.4,305.15 501.17,299.21 503.14,290.43 507.93,273.08 509.04,267.18 509.57,261.21 509.4,255.22 508.59,249.27 507.27,243.42 502.49,226.07 501.39,220.17 500.91,214.2 501.18,208.21 502.17,202.29 507.45,181.97 508.17,176.02 508.16,170.03 507.45,164.07 506.23,158.2 499.18,132.14 497.82,123.25 497.57,117.26 497.93,111.27 498.89,105.35 504.4,85.09 505.68,79.23 506.71,70.3 506.62,61.3 505.11,49.4 502.61,37.67 497.91,20.29 491.8,0.2" fill="none" stroke="#000000" stroke-width="1"/><polyline id="SvgjsPolyline1155" points="509.83,599.58 510.07,593.58 509.74,587.6 508.66,581.7 504.79,567.21 503.89,561.28 503.74,555.29 504.3,549.32 505.4,543.42 512.97,514.4 514.22,505.49 514.37,499.5 513.88,493.52 512.82,487.61 508.17,470.23 506.9,464.37 505.85,455.43 505.79,449.43 506.57,440.47 508.13,431.61 510.98,419.96 516.55,399.71 519.2,388.01 520.5,379.1 520.94,370.12 520.69,364.13 519.49,355.21 517.53,346.43 512.19,326.12 510.71,317.25 510.31,311.26 510.48,305.27 511.19,299.31 513.08,290.51 517.62,273.1 518.59,267.18 518.95,261.19 518.21,252.23 517.02,246.35 512.46,228.95 511.41,223.04 510.97,217.06 511.72,208.1 516.1,190.65 517.26,184.77 517.77,178.79 517.55,172.8 516.07,163.93 510.04,140.7 509.02,134.79 508.52,128.81 508.63,122.82 509.37,116.87 510.63,111 515.19,93.59 516.18,87.68 516.69,78.7 516.38,72.71 515.67,66.75 513.37,54.98 509.59,40.46 498.12,0.06" fill="none" stroke="#000000" stroke-width="1"/><polyline id="SvgjsPolyline1156" points="521.93,597.42 524.44,585.69 525.04,576.72 524.01,567.79 519.83,550.29 519.23,544.32 519.36,538.33 520.11,532.38 521.3,526.5 527.11,503.22 528.42,494.32 528.66,488.32 528.3,482.34 527.39,476.41 523.05,458.94 521.3,450.12 520.53,441.15 520.63,435.16 521.57,426.21 523.23,417.37 529.83,391.19 531.71,382.39 532.98,373.48 533.34,367.49 533.25,361.49 532.27,352.55 530.47,343.74 525.47,323.34 524.53,317.42 524.06,311.44 524.15,305.44 524.79,299.48 525.9,293.58 530.23,276.11 531.27,270.2 531.74,264.23 531.21,255.25 530.13,249.35 525.85,231.87 524.91,225.95 524.62,219.96 525.55,211.02 530.24,190.56 530.77,184.58 530.58,178.59 529.13,169.71 524.15,149.32 523.24,143.39 522.89,137.4 523.19,131.41 524.1,125.48 528.97,105.06 529.76,99.11 529.99,93.12 529.35,84.15 527.83,75.28 518.95,40.4 515.78,25.74 514.17,13.85 513.84,7.86 513.92,1.86" fill="none" stroke="#000000" stroke-width="1"/><polyline id="SvgjsPolyline1157" points="534.32,597.35 539.13,576.91 540.19,571.01 540.75,565.04 540.27,556.06 535.88,535.54 535.38,529.56 535.57,523.57 536.9,514.67 541.07,497.16 542.85,488.34 543.59,482.39 543.82,476.4 543.5,470.41 542.64,464.47 538.57,446.94 536.93,438.09 536.35,432.12 536.36,423.13 536.92,417.15 538.38,408.28 545.68,376.1 546.82,367.17 547.06,361.18 546.84,355.19 546.16,349.23 544.45,340.39 540.36,322.86 539.41,316.94 538.93,310.96 539.01,304.97 539.64,299 544.76,275.56 545.76,266.62 545.63,260.63 544.87,254.68 540.31,234.18 539.42,225.24 540.09,216.28 544.48,195.75 544.95,186.77 543.88,177.84 539.25,157.37 538.43,151.42 538.21,145.43 539.12,136.49 543.63,115.98 544.28,110.02 544.34,104.02 543.85,98.04 542.36,89.17 536.76,65.83 534.39,54.07 533.29,45.14 533.02,39.15 533.19,33.15 534.31,24.23 539.63,0.83" fill="none" stroke="#000000" stroke-width="1"/><polyline id="SvgjsPolyline1158" points="528.63,597.87 532.13,583.28 532.96,577.34 533.13,571.35 531.94,562.44 529.06,550.79 527.98,544.89 527.53,538.91 527.75,532.92 529.09,524.03 535.26,497.74 536.09,491.8 536.41,485.81 536.12,479.82 535.28,473.89 530.42,453.46 529.35,447.56 528.55,438.6 528.6,432.6 529.08,426.62 530.45,417.72 537.39,388.54 539.1,379.71 540.09,370.77 540.21,364.77 539.86,358.78 539.06,352.84 533.01,326.53 532.03,320.61 531.52,314.63 531.56,308.64 532.16,302.67 533.22,296.76 537.94,276.31 538.74,267.35 538.08,258.38 532.85,234.97 531.97,226.02 532.71,217.07 537.25,196.57 537.79,190.6 537.63,184.61 536.25,175.72 531.44,155.28 530.49,146.34 530.67,140.34 531.51,134.4 536.17,113.94 536.89,107.98 537.06,101.99 536.69,96 535.37,87.1 526.24,49.19 524.63,40.34 523.89,34.38 523.5,25.4 523.81,19.41 525.18,10.51 527.2,1.74" fill="none" stroke="#000000" stroke-width="1"/><polyline id="SvgjsPolyline1159" points="546.11,599.57 546.01,593.58 546.58,587.61 551.61,564.15 552.69,555.22 552.29,546.24 548.11,525.67 547.62,519.69 547.8,513.7 549.07,504.79 554.21,481.35 555.04,475.41 555.41,469.42 555.24,463.43 554.54,457.47 549.06,431.04 548.42,425.08 548.34,416.08 548.84,410.1 550.24,401.22 556.6,371.9 557.4,365.96 557.8,359.97 557.73,353.97 557.18,348 555.63,339.14 551.72,321.57 550.84,315.63 550.43,309.65 550.6,303.65 551.3,297.7 555.69,277.16 556.71,268.23 556.32,259.25 555.34,253.33 551.56,235.74 550.89,226.77 551.77,217.83 555.48,200.22 556.04,191.25 555.06,182.31 550.69,161.77 549.96,152.81 550.7,143.85 554.96,123.29 555.51,117.32 555.45,111.32 554.85,105.36 553.84,99.44 547.99,73.09 546.73,64.18 546.36,58.19 546.46,52.19 547.5,43.26 551.4,25.69 552.93,16.82 553.41,10.84 553.26,1.85" fill="none" stroke="#000000" stroke-width="1"/><polyline id="SvgjsPolyline1160" points="558.07,598.61 556.65,589.73 556.75,580.74 558.17,571.86 561.92,554.25 562.71,545.3 562,536.34 558.41,518.7 557.84,512.73 557.92,506.74 559.05,497.81 563.99,474.33 564.78,468.38 565.12,462.4 564.93,456.4 564.22,450.44 559.92,429.89 558.97,423.97 558.43,418 558.34,412 558.71,406.01 559.97,397.1 564.4,376.58 566.02,367.72 566.72,361.77 566.99,355.77 566.78,349.78 566.09,343.82 561.28,320.31 560.47,314.37 560.15,308.38 560.74,299.41 565.39,275.87 566.06,266.9 565.3,257.94 561.64,240.32 560.61,231.39 561.08,222.41 565.07,201.8 565.35,192.82 564.17,183.91 560.51,166.28 559.83,157.32 560.63,148.37 563.72,133.69 564.65,127.76 564.95,118.78 564.42,112.8 563.45,106.88 558.45,83.41 557.12,71.49 557.14,65.5 557.65,59.52 558.62,53.6 562.39,36 563.47,27.07 563.62,21.07 563.31,15.08 562.63,9.12 561.1,0.25" fill="none" stroke="#000000" stroke-width="1"/><polyline id="SvgjsPolyline1161" points="570.42,598.96 567.4,584.27 566.86,575.3 567.82,566.36 571.94,545.77 572.59,536.8 571.75,527.85 568.32,510.19 567.9,501.2 568.37,495.23 569.29,489.3 573.99,465.77 574.61,459.8 574.75,453.8 574.36,447.82 573.51,441.88 569.86,424.25 568.94,418.33 568.41,412.35 568.34,406.35 569.51,394.42 575.3,364.99 575.97,359.03 576.21,353.04 575.95,347.04 575.22,341.09 571.08,320.5 570.24,314.56 569.88,308.58 570.39,299.6 574.85,276.02 575.38,267.05 574.5,258.1 570.98,240.45 570.26,231.49 571.05,222.53 574.45,204.86 574.76,195.88 573.6,186.96 570.57,172.27 569.66,163.33 570.21,154.35 574.08,133.72 574.4,124.74 573.43,115.8 568.67,92.28 567.87,86.33 567.5,80.34 567.65,74.35 568.31,68.39 572.86,44.83 573.41,38.85 573.47,32.86 572.34,20.92 568.21,0.33" fill="none" stroke="#000000" stroke-width="1"/><polyline id="SvgjsPolyline1162" points="582.26,597 581.4,588.06 578.63,573.32 578.28,567.33 579.03,558.37 582.97,537.75 583.6,528.78 582.8,519.83 579.5,502.14 579.12,493.15 579.59,487.17 580.5,481.24 584.55,460.64 585.26,454.68 585.53,448.69 585.28,442.7 584.56,436.74 580.14,413.16 579.58,407.19 579.49,401.19 580.62,389.25 585.69,362.74 586.37,356.78 586.61,350.78 586.04,341.81 581.66,318.21 580.8,309.26 580.92,303.26 581.57,297.3 584.98,279.63 585.89,270.68 585.4,261.71 582.06,244.02 581.14,235.08 581.7,226.11 584.98,208.41 585.36,199.43 584.27,190.51 581.38,175.79 580.64,166.83 581.37,157.87 584.66,140.18 585.05,131.19 584.11,122.25 579.64,98.67 578.97,89.7 579.49,80.73 583.37,60.09 584.13,54.14 584.42,48.15 584.23,42.16 583.18,33.22 576.85,0.84" fill="none" stroke="#000000" stroke-width="1"/><polyline id="SvgjsPolyline1163" points="593.82,599.87 595.02,590.95 595.18,584.96 594.63,578.99 591.95,564.23 591.52,555.25 592.52,546.32 595.8,528.62 596.38,519.65 595.56,510.69 592.43,492.97 592.14,483.99 593.06,475.04 597.37,451.43 597.93,445.46 598.03,439.46 597.24,430.5 593.03,406.88 592.52,400.9 592.47,394.91 593.67,382.97 598.02,359.38 598.64,353.41 598.81,347.41 598.12,338.44 594.37,317.79 593.52,308.83 593.92,299.85 597.56,279.17 598.15,273.2 597.88,264.22 594.74,246.5 593.82,237.55 594.37,228.58 597.48,210.86 597.69,201.87 597,195.91 594.24,181.17 593.43,172.22 593.72,166.23 596.82,148.5 597.51,139.54 596.81,130.57 592.62,106.95 592.17,97.96 592.96,89 596.62,68.33 597.04,59.35 596.71,53.36 595.98,47.4 590.5,17.91 589.56,8.97 589.42,2.97" fill="none" stroke="#000000" stroke-width="1"/></g></svg>